<?xml version="1.0" encoding="UTF-8" standalone="no"?>
<!-- Created with Inkscape (http://www.inkscape.org/) -->

<svg
   xmlns:dc="http://purl.org/dc/elements/1.1/"
   xmlns:cc="http://creativecommons.org/ns#"
   xmlns:rdf="http://www.w3.org/1999/02/22-rdf-syntax-ns#"
   xmlns:svg="http://www.w3.org/2000/svg"
   xmlns="http://www.w3.org/2000/svg"
   xmlns:sodipodi="http://sodipodi.sourceforge.net/DTD/sodipodi-0.dtd"
   xmlns:inkscape="http://www.inkscape.org/namespaces/inkscape"
   width="112mm"
   height="38mm"
   viewBox="0 0 112 38"
   version="1.1"
   id="svg8"
   inkscape:version="0.92.3 (2405546, 2018-03-11)"
   sodipodi:docname="music_img_2.svg">
  <defs
     id="defs2" />
  <sodipodi:namedview
     id="base"
     pagecolor="#ffffff"
     bordercolor="#666666"
     borderopacity="1.0"
     inkscape:pageopacity="0.0"
     inkscape:pageshadow="2"
     inkscape:zoom="3.959798"
     inkscape:cx="143.3993"
     inkscape:cy="64.505039"
     inkscape:document-units="mm"
     inkscape:current-layer="layer1"
     showgrid="false"
     inkscape:window-width="1920"
     inkscape:window-height="1005"
     inkscape:window-x="-9"
     inkscape:window-y="-9"
     inkscape:window-maximized="1" />
  <metadata
     id="metadata5">
    <rdf:RDF>
      <cc:Work
         rdf:about="">
        <dc:format>image/svg+xml</dc:format>
        <dc:type
           rdf:resource="http://purl.org/dc/dcmitype/StillImage" />
        <dc:title></dc:title>
      </cc:Work>
    </rdf:RDF>
  </metadata>
  <g
     inkscape:label="Layer 1"
     inkscape:groupmode="layer"
     id="layer1"
     transform="translate(0,-259)">
    <path
       style="fill:#000000;stroke-width:0.17501301"
       d="m 91.73062,296.36388 c 0,-0.18703 0.157511,-0.83311 0.350026,-1.43573 0.437754,-1.3703 0.437754,-1.53375 0,-1.13759 -0.59953,0.54257 -0.382806,0.0129 0.242846,-0.59347 0.368455,-0.35713 0.619891,-0.49359 0.664248,-0.36052 0.05476,0.16429 0.161313,0.15795 0.457809,-0.0272 0.587855,-0.36712 1.000796,-0.0192 0.985796,0.8306 -0.02102,1.19091 -1.093403,2.20685 -1.422954,1.34805 -0.07623,-0.19864 -0.204756,0.008 -0.407486,0.6563 -0.298271,0.95328 -0.870285,1.42624 -0.870285,0.71957 z m 2.192015,-2.37418 c 0.07027,-0.30204 0.150133,-0.64761 0.177477,-0.76793 0.102015,-0.44888 -0.617588,-0.20482 -0.877388,0.29758 -0.372151,0.71966 -0.33415,0.96739 0.152692,0.99539 0.334473,0.0192 0.445344,-0.0872 0.547219,-0.52504 z m 0.783205,2.45346 c 0,-0.12932 0.157512,-0.69294 0.350026,-1.25249 0.43547,-1.26572 0.467052,-1.80261 0.08751,-1.48761 -0.144386,0.11983 -0.26252,0.16774 -0.26252,0.10648 0,-0.17821 0.776372,-1.32702 0.898416,-1.32941 0.233404,-0.005 0.267287,0.89044 0.04959,1.31004 -0.217538,0.4193 -0.208323,0.43465 0.199518,0.33228 0.315638,-0.0792 0.427588,-0.0363 0.427588,0.16385 0,0.14914 -0.08004,0.32063 -0.177867,0.38109 -0.259809,0.16057 -0.03049,0.43758 0.26756,0.32321 0.250715,-0.0962 0.607496,-1.08381 0.609383,-1.68681 0.0012,-0.39581 -0.511484,-0.60431 -0.707222,-0.2876 -0.08131,0.13156 -0.205434,0.1816 -0.275835,0.1112 -0.171558,-0.17156 0.478076,-0.65453 0.807689,-0.60047 0.360749,0.0592 0.753996,0.94269 0.633414,1.42312 -0.255187,1.01675 -1.282181,1.65811 -1.809964,1.13033 -0.14707,-0.14708 -0.229239,-0.0236 -0.320342,0.48128 -0.126898,0.70328 -0.357649,1.11663 -0.623361,1.11663 -0.08447,0 -0.153585,-0.10581 -0.153585,-0.23512 z m 3.276639,-0.0468 c -0.05882,-0.0588 0.03986,-0.51167 0.219281,-1.00633 0.179425,-0.49465 0.381777,-1.17502 0.449671,-1.51192 l 0.123442,-0.61255 -0.371892,0.3334 c -0.551137,0.49409 -0.441038,0.10391 0.155809,-0.55216 0.556587,-0.61182 0.795662,-0.7273 0.634098,-0.30627 -0.122502,0.31923 0.08434,0.34187 0.399737,0.0437 0.190806,-0.18036 0.196786,-0.15135 0.03406,0.16526 -0.108557,0.21122 -0.27571,0.43245 -0.371449,0.49162 -0.27959,0.1728 -0.201608,0.38892 0.175954,0.48766 0.355175,0.0929 0.495917,0.47433 0.175013,0.47433 -0.09626,0 -0.175013,0.11813 -0.175013,0.26252 0,0.43596 0.521495,0.29463 0.70629,-0.19141 0.0949,-0.24966 0.18464,-0.76158 0.19937,-1.13759 0.0293,-0.74702 0.20625,-0.87211 0.48829,-0.34513 0.31181,0.58263 0.2,1.17941 -0.32658,1.74313 -0.512531,0.54866 -0.956074,0.6902 -1.154876,0.36853 -0.202165,-0.32711 -0.612509,-0.18113 -0.614935,0.21877 -0.0056,0.92413 -0.370787,1.44987 -0.746271,1.07439 z M 9.7569162,296.20229 c -0.4218903,-0.42189 0.6629058,-1.97419 1.3796248,-1.97419 0.431777,0 0.663791,-0.36442 0.501416,-0.78756 -0.07367,-0.19198 0.02186,-0.26252 0.355519,-0.26252 0.558856,0 0.569445,0.23213 0.05189,1.13758 -0.636488,1.11352 -0.675247,1.28755 -0.262731,1.17968 0.317506,-0.083 0.334657,-0.0519 0.155762,0.28233 -0.110568,0.20659 -0.257329,0.38538 -0.326135,0.3973 -0.553725,0.0959 -1.7688637,0.11387 -1.8553468,0.0274 z m 1.2552738,-0.9654 c 0.156716,-0.25828 0.222472,-0.53186 0.146124,-0.60794 -0.167555,-0.16698 -0.808737,0.58281 -0.808737,0.94572 0,0.3745 0.333619,0.20443 0.662613,-0.33778 z m 3.664988,0.9853 c -0.06324,-0.0632 -0.0291,-0.27542 0.07585,-0.47152 0.104951,-0.19611 0.203025,-0.59922 0.217941,-0.89581 0.02397,-0.47668 0.09023,-0.54129 0.570964,-0.55676 0.299114,-0.01 0.668283,-0.0652 0.820375,-0.12362 0.370708,-0.14225 0.521583,0.14542 0.377451,0.71969 -0.117274,0.46725 -0.119952,0.46801 -0.322749,0.091 -0.174745,-0.32485 -0.24905,-0.34748 -0.510767,-0.15554 -0.16845,0.12354 -0.309105,0.29469 -0.312566,0.38033 -0.01079,0.26693 -0.795316,1.13341 -0.916495,1.01223 z m 1.214477,-0.0106 c -0.205743,-0.20574 -0.124728,-0.71785 0.128964,-0.8152 0.299365,-0.11487 0.979452,0.0463 0.979452,0.23211 0,0.12051 -0.767572,0.69977 -0.927246,0.69977 -0.03547,0 -0.116999,-0.0525 -0.18117,-0.11667 z m -2.216831,-0.23027 c 0,-0.1106 0.09005,-0.36936 0.200109,-0.57501 0.150138,-0.28053 0.150138,-0.39056 0,-0.44061 -0.313757,-0.10458 -0.23553,-0.35629 0.179815,-0.57857 0.314835,-0.1685 0.419775,-0.14883 0.612533,0.11478 0.127934,0.17496 0.173547,0.36213 0.101361,0.41594 -0.07219,0.0538 -0.249381,0.32778 -0.393766,0.60883 -0.271831,0.52913 -0.700052,0.80724 -0.700052,0.45464 z m 19.251429,-0.10209 c 0,-0.15071 0.08689,-0.43637 0.193083,-0.6348 0.146638,-0.274 0.138821,-0.39431 -0.0325,-0.50019 -0.33456,-0.20677 0.119858,-0.69114 0.648404,-0.69114 0.471693,0 0.524836,0.27906 0.148019,0.77726 -0.278759,0.36855 -0.334395,0.63507 -0.125694,0.60212 0.375844,-0.0593 0.416519,0.0555 0.13126,0.37075 -0.376961,0.41654 -0.962572,0.46278 -0.962572,0.076 z m 2.688459,0.0114 c -0.0601,-0.15662 -0.01722,-0.48681 0.09529,-0.73376 0.326212,-0.71596 0.09759,-0.66102 -0.446029,0.10718 -0.275049,0.38868 -0.567691,0.70837 -0.65032,0.71042 -0.142526,0.004 -0.06542,-0.50876 0.16821,-1.11759 0.06304,-0.16427 0.01626,-0.27878 -0.113885,-0.27878 -0.145838,0 -0.113259,-0.1189 0.09591,-0.35002 0.35952,-0.39727 0.723181,-0.45464 0.83202,-0.13126 0.05702,0.16941 0.140947,0.16319 0.372027,-0.0276 0.473113,-0.39059 0.763933,0.0167 0.454542,0.6366 -0.133089,0.26665 -0.2805,0.56357 -0.327581,0.65983 -0.04708,0.0963 0.04064,0.0727 0.194932,-0.0523 0.385012,-0.3119 0.554845,0.0274 0.176309,0.35227 -0.544537,0.4673 -0.738742,0.51861 -0.851427,0.22495 z m 17.307621,-0.30619 c 0.04697,-0.21658 0.148292,-0.54452 0.225156,-0.72876 0.09875,-0.2367 0.07968,-0.29786 -0.065,-0.20844 -0.119196,0.0737 -0.204754,0.0239 -0.204754,-0.11918 0,-0.28845 0.549619,-0.82501 0.845092,-0.82501 0.257115,0 0.266048,0.60896 0.01579,1.07657 -0.367942,0.68751 -0.01512,0.50905 0.550365,-0.27837 0.315276,-0.43901 0.638635,-0.7982 0.718574,-0.7982 0.23932,0 0.164563,0.59473 -0.127098,1.01113 -0.246583,0.35205 -0.246583,0.38897 0,0.38897 0.374139,0 0.341315,0.23345 -0.08737,0.62141 -0.306216,0.27712 -0.413573,0.29205 -0.720686,0.10026 -0.258832,-0.16165 -0.414416,-0.17182 -0.550251,-0.036 -0.340938,0.34094 -0.692134,0.22127 -0.599817,-0.20439 z m 12.493047,-0.0438 c -0.226206,-0.58948 0.597538,-1.83763 1.212791,-1.83763 0.626059,0 0.564281,0.63742 -0.09832,1.01446 -0.656155,0.37337 -0.679185,0.60454 -0.04486,0.45028 0.480796,-0.11693 0.480946,-0.11667 0.147888,0.25918 -0.384569,0.43398 -1.070037,0.498 -1.217503,0.11371 z m 1.900725,-0.13126 c 0.07047,-0.21658 0.138723,-0.60642 0.151672,-0.86631 0.03372,-0.67686 0.37625,-0.97724 0.807356,-0.70801 0.21294,0.13299 0.376654,0.14752 0.443493,0.0394 0.05827,-0.0943 0.228616,-0.17143 0.378541,-0.17143 0.275523,0 0.265458,0.39796 -0.02771,1.09581 -0.09961,0.23712 -0.06441,0.28329 0.152507,0.20004 0.37989,-0.14577 0.35753,0.15666 -0.03805,0.51466 -0.647709,0.58617 -1.064979,0.23153 -0.656651,-0.55809 0.434045,-0.83935 0.07321,-0.79472 -0.456589,0.0565 -0.523557,0.84117 -0.976589,1.07981 -0.754571,0.39748 z m 12.455294,0.27711 c -0.428754,-0.42876 0.442459,-1.98348 1.111472,-1.98348 0.501222,0 0.929879,-0.50695 0.681606,-0.8061 -0.164392,-0.19808 -0.116142,-0.24398 0.25648,-0.24398 0.545648,0 0.565467,0.15285 0.131391,1.0133 -0.180164,0.35713 -0.380289,0.82 -0.444722,1.0286 -0.09848,0.31882 -0.06022,0.36438 0.240063,0.28586 0.196468,-0.0514 0.357216,-0.1598 0.357216,-0.24093 0,-0.30293 0.975528,-1.04446 1.312597,-0.99775 0.277114,0.0384 0.344309,0.17014 0.322577,0.63241 -0.05175,1.10089 -1.44361,1.95799 -1.727431,1.06375 -0.115653,-0.36439 -0.116548,-0.36433 -0.546051,0.0392 -0.361659,0.33976 -0.455462,0.36329 -0.588714,0.14769 -0.126236,-0.20426 -0.202747,-0.21223 -0.37581,-0.0392 -0.238888,0.23889 -0.549622,0.28168 -0.730674,0.10063 z m 3.286154,-0.62232 c 0.304827,-0.4352 0.362883,-1.01114 0.101924,-1.01114 -0.180398,0 -0.704546,0.90495 -0.704546,1.2164 0,0.31137 0.316198,0.20367 0.602622,-0.20526 z m -2.1824,-0.35895 c 0.141822,-0.25153 0.199013,-0.51617 0.127093,-0.58809 -0.171284,-0.17129 -0.576948,0.26385 -0.734561,0.78792 -0.168706,0.56096 0.257575,0.42073 0.607468,-0.19983 z m 3.218633,0.83659 c -0.06062,-0.15797 -0.0263,-0.37113 0.07627,-0.4737 0.266652,-0.26665 0.771879,-0.0229 0.702226,0.33873 -0.07758,0.40286 -0.638388,0.50009 -0.778498,0.13497 z m -62.510447,-0.39294 c 0.07204,-0.37407 0.66098,-0.51389 0.853369,-0.2026 0.201908,0.3267 0.03416,0.50687 -0.471928,0.50687 -0.323769,0 -0.424554,-0.0804 -0.381441,-0.30427 z m 5.486178,0.13928 c -0.191485,-0.30983 0.07351,-0.53507 0.629507,-0.53507 0.407874,0 0.514367,0.0695 0.469461,0.30628 -0.06547,0.34522 -0.917394,0.52259 -1.098968,0.22879 z m 13.991512,-0.19042 c -0.191332,-0.30959 0.169729,-0.55313 0.725814,-0.48959 0.703564,0.0804 0.665523,0.56666 -0.04976,0.63609 -0.303801,0.0295 -0.608025,-0.0364 -0.676052,-0.1465 z m 6.08503,0.0644 c -0.120321,-0.0485 -0.218766,-0.1998 -0.218766,-0.33616 0,-0.17226 0.212007,-0.24794 0.69456,-0.24794 0.545482,0 0.672937,0.0564 0.593821,0.26252 -0.05541,0.14439 -0.164628,0.26252 -0.242714,0.26252 -0.07809,0 -0.246861,0.0331 -0.375054,0.0736 -0.128195,0.0405 -0.331526,0.0339 -0.451847,-0.0146 z m 12.469676,-0.23407 c -0.190274,-0.30787 0.09149,-0.52504 0.681212,-0.52504 0.657802,0 0.821155,0.10793 0.688109,0.45464 -0.108293,0.28221 -1.203614,0.33852 -1.369321,0.0704 z m 14.350301,-0.17625 c -0.05991,-0.0969 0.0085,-0.2213 0.151957,-0.27636 0.390503,-0.14985 1.036654,-0.0148 1.118529,0.23384 0.08834,0.26826 -1.106263,0.30824 -1.270486,0.0425 z M 2.1791602,293.88062 c -0.824116,-0.34017 -1.0240861,-1.56846 -0.3294498,-2.0236 0.7565364,-0.49571 1.5589181,0.31636 0.9320172,0.94326 -0.1730623,0.17306 -0.1641546,0.2509 0.043753,0.38235 0.3849934,0.2434 0.6025615,0.20881 1.0879116,-0.17297 0.4847891,-0.38134 0.8961403,-1.59707 0.8064901,-2.38355 l -0.058228,-0.51082 h -1.735387 c -1.2326579,0 -1.7565579,-0.0634 -1.8084676,-0.21877 -0.051526,-0.15424 0.1682906,-0.21876 0.7452806,-0.21876 h 0.8183613 l -0.8074002,-0.89803 c -0.8507004,-0.94618 -0.8527851,-0.95635 -0.5242163,-2.55848 0.044417,-0.21658 5.012e-4,-0.39378 -0.09759,-0.39378 -0.098091,0 -0.1783473,-0.11813 -0.1783473,-0.26252 0,-0.14438 0.1424907,-0.26252 0.316646,-0.26252 0.1741553,0 0.725185,-0.39378 1.2245104,-0.87506 l 0.9078645,-0.87507 h -1.312017 c -0.9962972,0 -1.31201691,-0.0579 -1.31201691,-0.24054 0,-0.19301 0.31331461,-0.22269 1.58512471,-0.15017 l 1.5851247,0.0904 -0.053761,-0.94367 -0.053761,-0.94366 -1.5313637,0.0632 c -1.3177111,0.0544 -1.53136371,0.0239 -1.53136371,-0.21876 0,-0.23844 0.24333281,-0.282 1.57511691,-0.282 1.4667402,0 1.575117,-0.0245 1.575117,-0.35565 0,-0.61823 0.4786506,-1.53119 0.8674867,-1.6546 0.5222218,-0.16574 0.7778136,0.10751 1.0559579,1.12894 0.2730817,1.00284 0.00484,0.92655 3.0644258,0.87155 0.9625714,-0.0173 2.2874189,-0.0306 2.9441059,-0.0295 0.746973,0.001 1.21572,-0.0729 1.252055,-0.19816 0.03194,-0.11008 0.117384,-0.35766 0.189868,-0.55017 0.116016,-0.30814 0.144502,-0.28719 0.238003,0.17501 l 0.106214,0.52504 2.96779,-0.0123 2.96779,-0.0123 0.10038,-0.42522 c 0.221598,-0.9387 0.420483,-0.34447 0.370335,1.1065 l -0.05294,1.53172 3.603976,-0.0282 c 1.982187,-0.0155 3.650796,0.0186 3.708018,0.0759 0.220566,0.22056 -1.189444,0.3085 -4.175789,0.26042 l -3.106481,-0.05 v 0.49348 c 0,0.28441 -0.07414,0.44764 -0.175013,0.3853 -0.09626,-0.0595 -0.175013,-0.26102 -0.175013,-0.44786 0,-0.38215 -0.07468,-0.389 -3.719026,-0.34117 -1.364192,0.0179 -2.056402,-0.0362 -2.056402,-0.16076 0,-0.12606 0.943032,-0.18778 2.86899,-0.18778 3.132529,0 3.081451,0.0175 3.081451,-1.05823 0,-0.60388 -0.341516,-0.80177 -1.312597,-0.76056 -0.385029,0.0164 -1.67163,0.0385 -2.859114,0.0492 l -2.159062,0.0195 0.03326,1.35635 c 0.03913,1.59584 0.0056,1.86352 -0.158866,1.26885 -0.11412,-0.41259 -0.205422,-0.44273 -1.601424,-0.52869 -1.691891,-0.10417 -1.544195,-0.31567 0.269724,-0.38623 l 1.225091,-0.0477 v -0.78756 -0.78756 l -3.6143555,-0.0473 -3.6143552,-0.0472 -0.5422034,0.88119 c -0.2982118,0.48465 -0.5422032,0.9251 -0.5422032,0.97876 0,0.0537 0.4134682,0.0784 0.9188182,0.055 0.50535,-0.0234 0.9188182,0.0299 0.9188182,0.11857 0,0.0886 -0.4725351,0.16114 -1.0500779,0.16114 -1.2750271,0 -1.4883891,0.12093 -1.4849305,0.84164 0.0045,0.93786 0.2043248,1.0855 1.3897045,1.02675 0.6625388,-0.0328 1.0577974,0.017 1.0577974,0.13342 0,0.10222 -0.233894,0.18585 -0.5197646,0.18585 H 5.8097876 l 0.4322581,0.63697 c 0.237742,0.35033 0.4322581,0.74411 0.4322581,0.87506 0,0.13096 0.1181338,0.2381 0.2625195,0.2381 0.1443858,0 0.2625195,0.0788 0.2625195,0.17501 0,0.0963 -0.073449,0.17501 -0.1632192,0.17501 -0.089771,0 -0.2170453,0.1772 -0.2828327,0.39378 -0.065787,0.21658 -0.31137,0.64974 -0.5457392,0.96258 l -0.4261262,0.56879 h 0.806794 c 0.4932965,0 0.7647643,0.068 0.6986298,0.17501 -0.05949,0.0963 -0.5760511,0.17501 -1.1479132,0.17501 H 5.0991869 l -0.00288,0.91882 c -0.00586,1.86886 -1.6038592,3.4761 -2.9171477,2.93402 z m 3.3562289,-4.48909 c 0.2557006,-0.0981 0.6139568,-0.82981 0.6136832,-1.25337 -1.484e-4,-0.22998 -0.1645295,-0.30139 -0.7198519,-0.31269 l -0.7196594,-0.0147 0.1051953,0.76748 c 0.06666,0.48634 0.041858,0.72834 -0.067707,0.66062 -0.095096,-0.0588 -0.1729018,-0.37321 -0.1729018,-0.69875 0,-0.72606 -0.1130001,-0.80415 -0.9050885,-0.62551 -0.3427862,0.0773 -0.7466565,0.0715 -0.8974897,-0.0129 -0.3757025,-0.21025 -0.5129262,0.072 -0.3031922,0.62365 0.2776627,0.73031 1.1763805,1.18637 2.0843924,1.05773 0.4213992,-0.0597 0.8635778,-0.14592 0.9826192,-0.1916 z m -2.0997966,-0.58991 c -0.4654394,-0.51431 -0.2530942,-0.56223 0.3170031,-0.0716 0.2850596,0.24536 0.3882068,0.42265 0.245891,0.42265 -0.1348348,0 -0.388137,-0.158 -0.5628941,-0.3511 z m -0.5386524,-1.44279 c 0.081673,-0.17501 0.1225091,-0.17501 0.2041817,0 0.1302139,0.27904 1.1614692,0.28531 1.4380235,0.009 0.1633454,-0.16335 0.2100156,-0.16335 0.2100156,0 0,0.1294 0.2771038,0.21001 0.7219286,0.21001 0.7203129,0 0.7216831,-10e-4 0.6122182,-0.56879 -0.1087179,-0.56365 -0.9142667,-1.40609 -1.2418129,-1.2987 -0.093602,0.0307 -0.2235744,0.24686 -0.2888275,0.48036 -0.1118217,0.40015 -0.1196446,0.40252 -0.1360871,0.0411 -0.027814,-0.61136 -0.2887821,-0.61713 -0.8732707,-0.0193 -0.5790816,0.5923 -0.7314074,0.48528 -0.2623832,-0.18435 0.2757874,-0.39374 0.2710475,-0.40122 -0.2187663,-0.34521 -0.4126444,0.0472 -0.5283332,0.16922 -0.6580646,0.69421 -0.1633723,0.66112 -0.062339,1.20067 0.2248324,1.20067 0.091257,0 0.2118622,-0.0984 0.2680123,-0.21877 z m 0.9914696,-2.0564 c 0.2669958,0 0.3357122,-0.12538 0.3357122,-0.61254 0,-0.3369 -0.047158,-0.61255 -0.104796,-0.61255 -0.1697324,0 -1.120295,1.07107 -1.120295,1.26232 0,0.0964 0.124575,0.12743 0.2768333,0.069 0.1522585,-0.0584 0.427904,-0.10623 0.6125455,-0.10623 z m 1.1670239,-3.031 c 0.5490832,-0.80655 0.5088589,-1.02757 -0.175013,-0.96163 -0.5438768,0.0524 -0.5687922,0.0874 -0.5687922,0.79855 0,0.89289 0.2148908,0.94001 0.7438052,0.16308 z m 0.5687923,-1.92187 c 0,-0.983 -0.6625312,-1.34072 -1.0219858,-0.5518 -0.3789205,0.83164 -0.2709871,1.12935 0.4094403,1.12935 0.5763053,0 0.6125455,-0.0342 0.6125455,-0.57755 z m 28.2952851,13.06333 c -0.158269,-0.15827 0.233961,-0.60424 0.426677,-0.48514 0.241297,0.14913 0.182549,0.60029 -0.07817,0.60029 -0.128344,0 -0.285171,-0.0518 -0.348509,-0.11515 z m 55.279185,-1.50372 c -0.152132,-0.21658 -0.451932,-0.39378 -0.666222,-0.39378 -0.595436,0 -0.634632,-0.34206 -0.04686,-0.40892 0.284776,-0.0324 0.743666,-0.24897 1.019754,-0.48129 0.276088,-0.23231 0.712513,-0.43147 0.969836,-0.44257 0.919525,-0.0397 0.993594,-0.0722 1.048821,-0.4611 l 0.05593,-0.39378 h -2.81238 c -1.758246,0 -2.81238,-0.0656 -2.81238,-0.17501 0,-0.10938 1.050078,-0.17501 2.800208,-0.17501 h 2.800208 v -0.43754 c 0,-0.24064 0.07876,-0.43753 0.175013,-0.43753 0.103711,0 0.175013,0.64172 0.175013,1.57512 0,1.35204 -0.05056,1.62568 -0.357015,1.93213 -0.762881,0.76288 -1.920697,0.91034 -2.349922,0.29928 z m 2.112622,-1.30895 c -0.05815,-0.0581 -0.09952,0.0452 -0.09192,0.22971 0.0084,0.20388 0.04987,0.24535 0.105736,0.10573 0.05056,-0.12633 0.04434,-0.27728 -0.01381,-0.33544 z m 7.576665,1.47542 c 0.891272,-0.14219 1.239037,-0.29476 1.706377,-0.74861 0.49861,-0.48421 0.58696,-0.69145 0.58696,-1.37673 v -0.80672 l -3.454409,0.0483 -3.454408,0.0483 -0.112651,-0.52503 c -0.06196,-0.28878 -0.121968,-1.72607 -0.133358,-3.19399 l -0.02071,-2.66895 h -3.139905 c -1.904486,0 -3.182464,-0.0689 -3.24807,-0.17501 -0.07062,-0.11427 1.016308,-0.17502 3.131555,-0.17502 h 3.239718 l 0.0521,-1.09383 0.0521,-1.09383 1.050078,-0.0183 c 0.577543,-0.0101 3.845911,-0.0274 7.26304,-0.0385 7.81994,-0.0254 7.35387,-0.0177 7.90419,-0.13093 0.35112,-0.0722 0.48838,-0.0177 0.5563,0.22097 0.0496,0.17426 0.11548,2.20699 0.14641,4.51716 l 0.0562,4.20031 -2.46432,0.0875 c -2.96864,0.10541 -4.97374,0.0291 -4.97374,-0.18938 0,-0.0904 1.14559,-0.16065 2.61857,-0.16065 h 2.61856 l 0.0504,-3.71902 c 0.0277,-2.04547 0.0255,-3.8943 -0.005,-4.10852 l -0.0554,-0.38948 -7.0033,0.0626 c -4.281866,0.0383 -7.070355,0.12966 -7.175865,0.23517 -0.09491,0.0949 -0.147506,0.47828 -0.116875,0.85193 l 0.0557,0.67936 h 6.94169 c 3.81792,0 7.00097,0.0591 7.07344,0.13126 0.0725,0.0722 -0.76737,0.13896 -1.86631,0.14838 -1.09893,0.009 -4.00634,0.0485 -6.46089,0.087 -2.454565,0.0384 -4.752554,0.0701 -5.106647,0.0704 l -0.64381,5.2e-4 0.03126,0.83131 c 0.03113,0.82787 0.03398,0.83154 0.687562,0.88563 0.816605,0.0676 0.870661,0.38322 0.06563,0.38322 -0.520428,0 -0.603562,0.0645 -0.699097,0.54213 -0.05963,0.29818 -0.059,0.73908 0.0014,0.97979 0.09331,0.37177 0.184357,0.42275 0.604805,0.33866 0.272227,-0.0544 0.542038,-0.0228 0.599579,0.0703 0.06003,0.0971 -0.16487,0.1693 -0.527381,0.1693 H 94.68744 l 0.0529,0.91882 0.0529,0.91882 3.193987,0.0497 3.193983,0.0497 v -0.88102 c 0,-0.84161 -0.0215,-0.88154 -0.48128,-0.89267 -0.26471,-0.006 -1.347601,-0.0261 -2.40643,-0.0438 -1.145357,-0.0191 -1.925143,-0.10298 -1.925143,-0.2071 0,-0.10845 0.752962,-0.16157 1.979581,-0.13966 1.088768,0.0195 2.171432,-0.0376 2.405932,-0.12674 0.36616,-0.13921 0.41511,-0.24988 0.34674,-0.7839 -0.0438,-0.34199 -0.12696,-0.69842 -0.18484,-0.79208 -0.0598,-0.0967 -1.12174,-0.17027 -2.457586,-0.17027 -1.451556,0 -2.352347,-0.067 -2.352347,-0.17502 0,-0.11378 2.219473,-0.16874 6.344223,-0.1571 3.48932,0.01 6.10795,0.0729 5.81918,0.14004 -0.28877,0.0672 -1.92296,0.11686 -3.63152,0.11042 -1.70857,-0.006 -3.10932,0.029 -3.11278,0.0787 -0.0146,0.21007 -0.0191,3.18318 -0.007,4.59265 l 0.0132,1.52699 0.52503,-0.10501 c 0.4239,-0.0848 0.52504,-0.0458 0.52504,0.20229 0,0.2524 -0.10749,0.28985 -0.6017,0.20965 -0.42694,-0.0693 -0.6684,-0.0172 -0.83132,0.17923 -0.38805,0.46793 -1.307651,0.74884 -2.367885,0.72332 l -1.011946,-0.0244 1.119415,-0.17858 z M 110.282,287.9568 c 0,-0.92605 -0.0838,-1.10325 -0.45465,-0.96096 -0.16427,0.063 -0.2454,0.3773 -0.2454,0.95051 0,0.73967 0.0477,0.85634 0.35002,0.85634 0.30175,0 0.35003,-0.11667 0.35003,-0.84589 z m 0,-2.22901 c 0,-0.91074 -0.0259,-0.97107 -0.39378,-0.91882 -0.28673,0.0407 -0.40939,0.19251 -0.4512,0.55836 -0.0913,0.79893 0.10883,1.33521 0.49829,1.33521 0.30408,0 0.34669,-0.1198 0.34669,-0.97475 z m -0.0346,-2.13337 c 0.0502,-0.87037 0.0311,-0.91718 -0.37463,-0.91718 -0.36274,0 -0.44,0.0995 -0.50978,0.6563 -0.0982,0.78387 0.13122,1.31112 0.53705,1.23401 0.22277,-0.0423 0.30734,-0.27924 0.34736,-0.97313 z m 0.0346,-1.59536 c 0,-0.83361 -0.2263,-1.42198 -0.54692,-1.42198 -0.2771,0 -0.32815,0.13612 -0.32815,0.87507 0,0.81672 0.0292,0.87506 0.43753,0.87506 0.31114,0 0.43754,-0.0948 0.43754,-0.32815 z m -86.7276,9.73189 c -0.05452,-0.14206 -0.08231,-0.44556 -0.06176,-0.67445 0.02054,-0.2289 0.02516,-0.61306 0.01026,-0.8537 l -0.02709,-0.43754 -5.294269,0.0551 c -3.534161,0.0368 -5.236083,-0.003 -5.119254,-0.12015 0.106353,-0.1065 1.994486,-0.18781 4.812857,-0.20726 4.97982,-0.0344 5.600416,-0.083 5.600416,-0.43928 0,-0.12667 0.09116,-0.28665 0.202581,-0.35551 0.138801,-0.0858 0.171511,-0.006 0.103891,0.25219 -0.108562,0.41514 -0.266933,0.3885 2.624936,0.4416 1.205988,0.0221 1.268788,0.004 1.268844,-0.37048 3.7e-5,-0.21658 0.07882,-0.39378 0.175076,-0.39378 0.09626,0 0.175013,0.15751 0.175013,0.35003 0,0.43688 -0.0449,0.43882 2.029948,-0.0875 0.948642,-0.24064 1.785677,-0.43753 1.860078,-0.43753 0.0744,0 0.135273,0.19689 0.135273,0.43753 v 0.43753 h 2.625195 2.625195 v -0.93788 -0.93788 l -2.493935,0.0374 c -1.371665,0.0206 -2.533313,0.0532 -2.581442,0.0725 -0.04813,0.0193 -1.006746,0.0268 -2.130263,0.0166 -1.794517,-0.0163 -2.065038,0.0198 -2.226094,0.2966 -0.171392,0.29459 -0.183683,0.29516 -0.188659,0.009 -0.0039,-0.22243 -0.149027,-0.30626 -0.530361,-0.30626 -0.288771,0 -0.525039,-0.0877 -0.525039,-0.19488 0,-0.11697 0.209874,-0.16407 0.525039,-0.11781 0.438375,0.0643 0.525958,0.0171 0.530605,-0.28641 0.005,-0.3289 0.02651,-0.33594 0.225738,-0.074 0.194947,0.25626 0.745733,0.28941 4.807292,0.28935 l 4.587119,-7e-5 v -0.94565 -0.94565 h -2.5377 -2.537689 v 0.43753 c 0,0.24065 -0.07876,0.43754 -0.175013,0.43754 -0.09626,0 -0.175013,-0.14858 -0.175013,-0.33016 0,-0.40578 -0.43557,-0.47824 -2.406429,-0.40032 -1.395642,0.0552 -1.443857,0.0712 -1.443857,0.48128 0,0.23332 -0.07876,0.42421 -0.175013,0.42421 -0.09626,0 -0.175013,-0.40165 -0.175013,-0.89257 0,-0.78172 0.07389,-0.96646 0.595044,-1.48761 0.633336,-0.63333 0.630282,-0.64946 -0.113758,-0.6004 -0.264707,0.0174 -0.481286,-0.053 -0.481286,-0.15646 0,-0.16452 1.487665,-0.26202 3.937793,-0.25807 0.288771,5.2e-4 0.564417,-0.0473 0.612545,-0.10605 0.643439,-0.78601 2.07762,-0.93921 2.516848,-0.26886 0.267653,0.40849 0.26009,0.45213 -0.14926,0.86148 -0.23716,0.23716 -0.61093,0.48832 -0.830601,0.55813 -0.358491,0.11393 -0.584517,0.15301 -1.318221,0.22792 -0.120321,0.0123 -0.218766,0.17985 -0.218766,0.37236 0,0.31167 0.119861,0.35107 1.093831,0.35959 0.601608,0.005 1.743567,0.052 2.537689,0.10387 l 1.443857,0.0943 v -2.18024 -2.18024 l 1.968896,-0.10147 c 3.690643,-0.1902 16.274793,-0.1562 16.151283,0.0436 -0.07358,0.11906 -1.220891,0.18518 -3.21065,0.18503 l -3.096152,-1.8e-4 0.05831,0.93447 0.05831,0.93446 3.660719,-0.0786 c 2.614683,-0.0562 3.660719,-0.0231 3.660719,0.11579 0,0.1364 -1.097071,0.19443 -3.675273,0.19443 h -3.675273 l -0.02993,0.48129 c -0.01647,0.26471 -0.04469,0.6388 -0.06273,0.83131 -0.01804,0.19251 -0.04394,0.95502 -0.05757,1.69446 -0.02361,1.28087 -0.04952,1.36205 -0.548153,1.71711 -0.287856,0.20497 -0.794737,0.41671 -1.126401,0.47053 -0.491928,0.0798 -0.677993,0.017 -1.009951,-0.34122 -0.37329,-0.40279 -0.535198,-0.44014 -1.958836,-0.45196 -1.895207,-0.0157 -2.244953,-0.19252 -0.442228,-0.22354 1.857259,-0.032 1.957116,-0.0528 2.710898,-0.56498 0.37456,-0.25452 0.918693,-0.46397 1.209183,-0.46544 0.682685,-0.003 1.044638,-0.23923 0.909187,-0.59221 -0.08623,-0.22471 -0.385758,-0.28018 -1.513113,-0.28018 -0.82039,0 -1.405596,-0.0729 -1.405596,-0.17501 0,-0.10303 0.615594,-0.17501 1.496756,-0.17501 h 1.496757 l -0.0529,-0.90955 -0.0529,-0.90955 -3.105852,-0.009 c -3.006225,-0.009 -3.10447,0.002 -3.062728,0.34076 0.02372,0.19251 -0.03412,0.35003 -0.128536,0.35003 -0.09441,0 -0.173168,-0.11814 -0.175013,-0.26252 -0.0027,-0.21277 -0.343337,-0.27198 -1.797235,-0.3124 -2.318479,-0.0645 -2.370922,-0.38765 -0.0629,-0.38765 h 1.730983 l 0.07037,-0.60279 c 0.138544,-1.18673 -0.01922,-1.31362 -1.554892,-1.25067 -0.750696,0.0308 -1.699613,0.0666 -2.108706,0.0796 l -0.743805,0.0237 v 0.9813 c 0,0.79084 0.04986,0.96216 0.256914,0.8827 0.141304,-0.0542 0.303464,-0.0233 0.360355,0.0688 0.05689,0.092 -0.06283,0.16737 -0.26606,0.16737 -0.335789,0 -0.364674,0.0838 -0.316602,0.91881 l 0.0529,0.91882 1.925142,-0.0395 c 1.058829,-0.0217 2.062966,-0.0414 2.231416,-0.0437 0.18819,-0.003 0.306273,-0.13918 0.306273,-0.35425 0,-0.19251 0.08104,-0.35003 0.180092,-0.35003 0.156558,0 0.114761,3.15034 -0.04269,3.21761 -0.02744,0.0117 -0.302664,0.19825 -0.611603,0.41451 -0.735618,0.51492 -1.687562,0.52746 -1.911686,0.0252 -0.129847,-0.291 -0.337892,-0.37491 -0.994315,-0.40102 -1.124534,-0.0447 -1.221435,0.0449 -1.078533,0.99785 0.11904,0.79382 0.128629,0.80352 0.845713,0.85584 0.398918,0.0291 0.685929,0.1129 0.6378,0.18623 -0.04813,0.0733 -1.859513,0.15872 -4.025299,0.18974 -2.165786,0.031 -4.134682,0.10464 -4.375325,0.16358 -0.240643,0.0589 -0.988823,0.26955 -1.662623,0.46803 -1.401678,0.4129 -1.662624,0.37272 -1.662624,-0.25598 v -0.44988 l -1.925143,0.0365 c -1.883127,0.0356 -1.925143,0.0453 -1.925143,0.44005 0,0.36093 0.04747,0.38556 0.448926,0.23293 0.65425,-0.24875 0.773867,-0.21524 0.796467,0.2231 0.01835,0.35585 0.02841,0.36007 0.104495,0.0437 0.09677,-0.40231 0.400242,-0.78271 0.400242,-0.50171 0,0.0995 0.232804,0.18085 0.51734,0.18085 0.284538,0 0.480143,-0.0602 0.434679,-0.13375 -0.04547,-0.0736 0.0096,-0.19074 0.122246,-0.26039 0.114275,-0.0706 0.158389,-0.0514 0.09973,0.0435 -0.05785,0.0936 0.04812,0.28066 0.235478,0.4157 0.39747,0.28649 0.442407,0.51829 0.100471,0.51829 -0.213416,0 -2.327035,0.65356 -3.127344,0.96701 -0.19323,0.0757 -0.341077,0.0248 -0.403912,-0.13891 z m 16.562035,-4.95494 c 0.300366,-0.28777 0.74822,-0.48679 1.234667,-0.54868 0.892437,-0.11353 1.219657,-0.32227 1.079157,-0.6884 -0.08296,-0.21618 -0.446831,-0.25455 -2.046,-0.2157 -2.607771,0.0633 -2.557642,0.0451 -2.557642,0.93302 0,0.40588 0.0525,0.79048 0.116676,0.85465 0.06417,0.0642 0.47333,0.11668 0.909241,0.11668 0.613515,0 0.899047,-0.10202 1.263901,-0.45157 z m -8.17602,-2.65492 0.02991,-0.91881 h -0.659623 c -0.624775,0 -0.659622,0.0295 -0.659622,0.55751 0,0.33563 -0.155158,0.72267 -0.389855,0.97249 l -0.389854,0.41498 1.019563,-0.0537 1.019564,-0.0537 z m 15.844804,-1.38217 1.084286,-0.11333 -0.05229,-0.80549 -0.05229,-0.80549 h -2.975221 c -1.781086,0 -3.026827,0.0702 -3.103801,0.17502 -0.07072,0.0962 -0.129786,0.50972 -0.13126,0.91881 l -0.0027,0.74381 h 2.074483 c 1.140966,0 2.562411,-0.051 3.158768,-0.11333 z m 23.393875,8.58896 c -0.418868,-0.41887 -0.330838,-0.93251 0.25334,-1.47821 l 0.528361,-0.49357 -1.858525,0.0535 c -1.022189,0.0294 -2.067199,-0.01 -2.322244,-0.0866 l -0.463719,-0.14014 0.525039,-0.024 c 0.288771,-0.0132 1.552715,-0.0164 2.808762,-0.007 2.547668,0.0189 2.871491,-0.0467 2.896605,-0.5866 0.01554,-0.33424 0.03062,-0.32744 0.138497,0.0625 0.110435,0.39917 0.217058,0.44212 1.215953,0.48985 0.956135,0.0457 1.161047,-0.003 1.616786,-0.38681 0.287036,-0.24153 0.814899,-0.48778 1.17303,-0.54724 0.994051,-0.16503 1.088679,-0.21722 1.088679,-0.60038 0,-0.33 -0.108863,-0.35551 -1.51678,-0.35551 -0.834227,0 -1.464236,-0.0525 -1.400018,-0.11676 0.145448,-0.14545 0.62211,-0.20001 1.910473,-0.21869 0.884789,-0.0128 1.006325,-0.0569 1.006325,-0.36461 0,-0.19251 0.08427,-0.35002 0.187271,-0.35002 0.124959,0 0.1595,0.50001 0.103809,1.50273 -0.0968,1.74297 -0.378597,2.19392 -1.557997,2.49328 -0.673764,0.17103 -0.74197,0.15167 -1.20241,-0.34123 -0.448721,-0.48036 -0.570001,-0.51829 -1.502308,-0.46979 -0.92292,0.048 -1.022146,0.0921 -1.102715,0.49028 -0.140301,0.69337 -0.677844,1.35776 -1.263782,1.56202 -0.724211,0.25246 -0.93776,0.23776 -1.262432,-0.0869 z m 20.901552,-0.075 c 0,-0.0962 0.196889,-0.17501 0.437532,-0.17501 0.240643,0 0.437533,0.0788 0.437533,0.17501 0,0.0963 -0.19689,0.17502 -0.437533,0.17502 -0.240643,0 -0.437532,-0.0788 -0.437532,-0.17502 z m 4.025298,0 c 0,-0.0962 0.305381,-0.17501 0.678624,-0.17501 0.418015,0 0.770862,-0.11122 0.918818,-0.28963 0.506925,-0.61125 2.189887,-0.9751 3.026084,-0.65422 0.39859,0.15296 0.34175,0.40302 -0.0673,0.29605 -0.59814,-0.15641 -2.141044,0.30627 -2.236325,0.67062 -0.0723,0.27649 -0.258721,0.32721 -1.202738,0.32721 -0.628106,0 -1.117173,-0.0766 -1.117173,-0.17502 z m 2.535139,-0.004 c -0.06339,-0.10256 0.248331,-0.17088 0.779779,-0.17088 0.486967,0 0.885398,0.0616 0.885398,0.13695 0,0.20232 -1.541691,0.23374 -1.665177,0.0339 z m -15.936398,-0.12981 c -0.36835,-0.25223 -0.391243,-0.70365 -0.06305,-1.24331 l 0.333191,-0.54789 h -1.864233 c -1.025327,0 -1.819785,-0.0444 -1.765461,-0.0988 0.114719,-0.11472 1.418038,-0.18975 3.921249,-0.22574 l 1.774019,-0.0255 0.07968,-0.54292 c 0.04383,-0.29861 0.04615,-0.71836 0.0052,-0.93278 -0.07119,-0.37241 -0.136524,-0.38627 -1.459923,-0.30966 -0.959465,0.0555 -1.385403,0.0195 -1.385403,-0.1173 0,-0.13031 0.479457,-0.1975 1.40925,-0.1975 h 1.40925 l -0.0529,-0.91882 -0.0529,-0.91882 -2.887714,0.0527 c -2.296396,0.0419 -2.928274,0.10569 -3.085782,0.31142 -0.17415,0.22746 -0.210472,0.22637 -0.300781,-0.009 -0.08545,-0.22269 -0.517099,-0.26767 -2.568715,-0.26767 -1.599436,0 -2.427993,-0.0615 -2.357839,-0.17501 0.06337,-0.10255 1.076202,-0.17502 2.445925,-0.17502 1.714266,0 2.357401,-0.0583 2.411394,-0.21876 0.05727,-0.17015 0.138873,-0.16491 0.367202,0.0236 0.232954,0.1923 0.771851,0.22001 2.609902,0.13419 1.273983,-0.0595 2.572287,-0.10948 2.885123,-0.11109 0.443255,-0.002 0.568792,-0.0771 0.568792,-0.33905 0,-0.44997 0.805541,-0.61828 1.746477,-0.36492 0.39913,0.10748 0.937323,0.22308 1.195983,0.2569 2.137309,0.27945 3.45717,0.48477 3.571831,0.55563 0.192725,0.11911 0.169987,1.1136 -0.02546,1.1136 -0.08891,0 -0.541759,-0.0767 -1.006324,-0.17048 -0.464565,-0.0938 -1.632222,-0.29437 -2.594794,-0.44579 -0.962571,-0.15143 -1.92733,-0.31248 -2.143909,-0.3579 -0.373894,-0.0784 -0.393779,-0.0294 -0.393779,0.97084 v 1.05341 h 2.100156 c 1.962195,0 2.100156,-0.0223 2.100156,-0.3397 0,-0.48924 0.254306,-0.58138 1.233157,-0.44675 0.734533,0.10102 0.86695,0.1769 0.86668,0.4966 -3.5e-4,0.34461 0.08702,0.37597 1.006325,0.36138 1.001342,-0.0159 1.001893,-0.0156 0.104733,0.052 -0.797923,0.0601 -0.914958,0.11994 -1.015058,0.51877 -0.09733,0.3878 -0.142503,0.41344 -0.323181,0.18343 -0.319343,-0.40653 -1.846159,-0.6507 -4.068933,-0.6507 h -2.004035 v 1.42721 1.4272 l -0.707422,0.67295 c -0.697145,0.66318 -1.516937,0.88214 -2.018045,0.53902 z m -14.783122,-0.6624 c -0.185591,-0.22363 -0.176364,-0.32011 0.05251,-0.54897 0.313817,-0.31382 0.783592,-0.20396 0.946827,0.22142 0.201676,0.52556 -0.613305,0.79268 -0.999333,0.32755 z m 18.16564,-0.12247 c -0.142284,-0.38691 0.06095,-0.6563 0.495117,-0.6563 0.334469,0 0.422949,0.0915 0.422949,0.43753 0,0.34481 -0.08875,0.43753 -0.418808,0.43753 -0.230345,0 -0.455011,-0.0984 -0.499258,-0.21876 z m -29.41752,-0.0729 c -0.06417,-0.0642 -0.116675,-0.2447 -0.116675,-0.40118 0,-0.25967 -0.733119,-0.27845 -8.400624,-0.21518 -6.052357,0.05 -8.400624,0.0153 -8.400624,-0.12386 0,-0.13263 0.891437,-0.19583 2.843961,-0.20162 1.564179,-0.005 5.389471,-0.0243 8.500651,-0.0438 l 5.656688,-0.0353 -0.100026,-0.50316 c -0.05501,-0.27674 -0.100026,-0.69021 -0.100026,-0.91882 v -0.41565 h -3.675273 c -2.238875,0 -3.675273,-0.0659 -3.675273,-0.16851 0,-0.20128 6.459915,-0.31212 10.150753,-0.17418 2.500441,0.0935 2.854797,0.16328 1.137585,0.22416 -0.869697,0.0308 -0.875172,0.0347 -0.892566,0.62945 -0.01136,0.38868 -0.151212,0.7067 -0.398995,0.90734 l -0.381492,0.30891 0.574006,0.0552 c 0.315704,0.0304 1.026854,0.0285 1.580333,-0.004 l 1.006324,-0.0593 v -1.99711 -1.9971 h -0.729221 c -0.40107,0 -0.672493,-0.0567 -0.603158,-0.12607 0.06934,-0.0693 0.400978,-0.10237 0.736985,-0.0734 l 0.610923,0.0526 -0.03292,-2.10095 -0.03292,-2.10095 -3.125078,0.0875 c -2.16798,0.0607 -3.125077,0.0298 -3.125077,-0.1008 0,-0.10356 0.09844,-0.19783 0.218766,-0.20949 0.120321,-0.0117 4.944117,-0.047 10.719546,-0.0786 5.775429,-0.0316 14.216708,-0.10186 18.758398,-0.15612 5.08536,-0.0608 8.296724,-0.0354 8.359412,0.0661 0.05599,0.0906 -0.03717,0.20625 -0.207021,0.25704 -0.169848,0.0508 -7.190286,0.11553 -15.600975,0.14386 -12.009415,0.0405 -15.31013,0.0983 -15.375865,0.26963 -0.04604,0.11996 -0.07789,0.39561 -0.07079,0.61255 0.0071,0.21694 0.0139,1.00715 0.0151,1.75604 l 0.0022,1.3616 2.234788,-0.049 2.23479,-0.049 -0.05103,-0.78025 c -0.02806,-0.42914 -0.09385,-0.82292 -0.1462,-0.87507 -0.05235,-0.0521 -0.954763,-0.083 -2.005375,-0.0687 -1.050611,0.0144 -1.910202,-0.0447 -1.910202,-0.13126 0,-0.0866 1.004137,-0.16879 2.231416,-0.18271 3.429647,-0.0389 3.809774,-0.0215 3.766647,0.17262 -0.04049,0.18223 1.042378,0.44085 2.708834,0.64696 0.50535,0.0625 0.918818,0.16608 0.918818,0.23017 0,0.0641 0.255957,0.11576 0.568792,0.11483 0.490488,-10e-4 0.568793,0.0586 0.568793,0.43584 0,0.24269 -0.09743,0.42974 -0.218767,0.42004 -0.120321,-0.01 -0.376278,-0.0293 -0.568792,-0.0438 -0.192514,-0.0144 -0.350026,-0.14438 -0.350026,-0.28877 0,-0.14439 -0.07876,-0.26252 -0.175013,-0.26252 -0.09626,0 -0.175013,0.0788 -0.175013,0.17501 0,0.28815 -0.556473,0.19783 -0.808691,-0.13126 -0.195404,-0.25495 -0.261657,-0.26534 -0.395411,-0.062 -0.102435,0.15573 -0.278095,0.1967 -0.484612,0.11303 -0.178164,-0.0722 -0.678337,-0.14839 -1.111494,-0.16936 -0.433157,-0.021 -1.082893,-0.10029 -1.443857,-0.17626 l -0.65631,-0.13831 v 1.15706 c 0,0.6547 -0.07599,1.15706 -0.175013,1.15706 -0.09626,0 -0.175013,-0.19689 -0.175013,-0.43753 v -0.43753 h -2.187662 -2.187663 v 0.85466 c 0,1.01196 -0.06856,0.9841 2.582854,1.04962 1.732792,0.0428 1.800702,0.0303 1.957685,-0.36117 0.160881,-0.40118 0.162745,-0.40142 0.173718,-0.023 0.01061,0.36545 0.07827,0.38108 1.515467,0.35003 0.827406,-0.0179 1.540857,0.0266 1.585447,0.0988 0.04459,0.0722 -0.632378,0.13126 -1.504374,0.13126 -1.05559,0 -1.585446,0.0657 -1.585446,0.19644 0,0.13537 -0.06801,0.14113 -0.218766,0.0185 -0.120321,-0.0979 -1.187664,-0.18695 -2.371876,-0.19799 l -2.153108,-0.0201 0.05295,0.92036 0.05295,0.92036 0.700052,0.0875 c 1.449835,0.18123 0.1999,0.36908 -2.397745,0.36035 -2.553345,-0.009 -2.689568,0.009 -3.322614,0.4279 -0.730874,0.48367 -0.735734,0.4854 -0.900966,0.32016 z m 1.233466,-1.91659 c 1.42621,-0.7802 1.445205,-0.87774 0.193321,-0.99272 -0.608261,-0.0559 -1.162935,-0.0457 -1.23261,0.0225 -0.117782,0.11539 0.014,1.42836 0.143369,1.42836 0.03212,0 0.435282,-0.20617 0.89592,-0.45815 z m 7.195155,1.91521 c -0.161073,-0.0426 -0.423209,-0.27639 -0.582524,-0.51954 -0.271518,-0.41438 -0.26984,-0.46398 0.02679,-0.79175 0.401688,-0.44386 1.355734,-0.84582 2.007553,-0.84582 0.277017,0 0.503666,-0.0788 0.503666,-0.17501 0,-0.0963 0.08501,-0.17502 0.18892,-0.17502 0.119509,0 0.147639,0.20898 0.07656,0.5688 -0.210182,1.06403 -0.459114,1.47541 -1.068707,1.7661 -0.626436,0.29873 -0.656822,0.30327 -1.152259,0.17224 z M 104.15654,289.959 c 0,-0.5074 0.37943,-0.68882 0.79899,-0.38204 0.42106,0.3079 0.20196,0.80085 -0.35596,0.80085 -0.35061,0 -0.44303,-0.0874 -0.44303,-0.41881 z M 8.2494208,289.84632 c -0.4331572,-0.0638 -0.7481806,-0.13083 -0.700052,-0.14896 0.3054925,-0.11511 5.1109052,-0.10371 5.1825962,0.0123 0.04865,0.0787 -0.250909,0.1451 -0.665683,0.14753 -0.414773,0.002 -1.266047,0.0271 -1.891718,0.0548 -0.6256717,0.0277 -1.491986,-0.002 -1.9251432,-0.0656 z m 84.2687572,-0.6936 c -0.06542,-0.10585 0.176639,-0.17501 0.612546,-0.17501 0.435906,0 0.677967,0.0692 0.612545,0.17501 -0.05949,0.0963 -0.335136,0.17501 -0.612545,0.17501 -0.27741,0 -0.553056,-0.0787 -0.612546,-0.17501 z m 9.538212,-0.17501 c 0.34352,-0.22201 1.00037,-0.22201 1.13758,0 0.0658,0.10646 -0.18719,0.17396 -0.64597,0.17233 -0.55139,-0.002 -0.68356,-0.0483 -0.49161,-0.17233 z m -78.650249,-1.42119 c -0.109616,-0.7687 -0.08459,-1.71376 0.0628,-2.37107 0.0036,-0.0162 0.271864,-0.19342 0.596059,-0.39378 0.78532,-0.48536 1.859825,-0.49308 1.985036,-0.0143 0.05035,0.19251 0.161105,0.35002 0.246135,0.35002 0.721237,0 -0.947967,1.14653 -1.901801,1.30629 -0.572296,0.0959 -0.743806,0.20175 -0.743806,0.45923 0,0.30162 0.138129,0.33464 1.400104,0.33464 0.816728,0 1.400104,0.0729 1.400104,0.17501 0,0.10197 -0.579501,0.17501 -1.388479,0.17501 -1.382585,0 -1.388749,0.002 -1.452181,0.48129 -0.04461,0.33701 -0.105753,0.18641 -0.203971,-0.50237 z m 50.102402,0.32735 c -0.01139,-0.12032 -0.01139,-0.27783 0,-0.35002 0.01139,-0.0722 -0.191916,-0.13126 -0.45181,-0.13126 -0.341732,0 -0.419602,-0.0529 -0.281309,-0.19123 0.274279,-0.27428 0.928857,0.11149 0.928857,0.54741 0,0.37535 -0.162209,0.47902 -0.195738,0.1251 z M 7.5824219,287.66122 c 0.2034639,-0.20346 2.7241451,-0.2948 2.8426811,-0.103 0.08458,0.13684 -0.331942,0.19439 -1.4069639,0.19439 -0.8399094,0 -1.4859821,-0.0411 -1.4357172,-0.0914 z m 3.9484921,-0.0495 c -0.813581,-0.0522 -0.831311,-0.0657 -0.831311,-0.6327 0,-0.32111 0.161682,-0.7849 0.362728,-1.04049 l 0.362729,-0.46113 h -0.391898 c -0.215543,0 -0.33554,-0.0564 -0.266659,-0.12524 0.122549,-0.12255 0.298852,-0.14174 1.814489,-0.19745 0.618016,-0.0227 0.743806,-0.0865 0.743806,-0.37737 0,-0.53816 0.347305,-0.41501 0.370179,0.13126 0.04644,1.10903 -0.286868,1.86332 -0.910875,2.06137 -0.567285,0.18005 -0.369062,0.42099 0.278176,0.33813 0.3369,-0.0431 0.612546,-0.008 0.612546,0.0771 0,0.19025 -1.023492,0.29838 -2.14391,0.22649 z m 0.67453,-1.91191 c -0.05816,-0.0582 -0.09952,0.0452 -0.09192,0.2297 0.0084,0.20388 0.04987,0.24535 0.105738,0.10574 0.05056,-0.12634 0.04434,-0.27729 -0.01382,-0.33544 z m 3.350769,1.75423 c 0.216579,-0.0417 0.57098,-0.0417 0.787559,0 0.216578,0.0417 0.03938,0.0758 -0.393779,0.0758 -0.433158,0 -0.610358,-0.0341 -0.39378,-0.0758 z m 1.718837,-0.16965 c -0.180542,-0.47048 -0.105249,-0.87801 0.244328,-1.32242 0.18936,-0.24074 0.294368,-0.48763 0.23335,-0.54865 -0.06102,-0.061 0.236896,-0.11931 0.66203,-0.12954 1.45883,-0.0351 1.476051,-0.0408 1.429536,-0.47285 -0.02509,-0.23303 0.03045,-0.35825 0.13126,-0.29594 0.537297,0.33206 -0.09013,2.10386 -0.909716,2.56894 -0.385739,0.21889 -0.369142,0.23332 0.384414,0.3344 0.612143,0.0821 0.468738,0.10797 -0.643839,0.11611 -1.112913,0.008 -1.453639,-0.0475 -1.531363,-0.25005 z m 4.275358,0.2248 c 0,-0.14015 1.249756,-0.20833 1.33355,-0.0727 0.04797,0.0776 -0.232459,0.14111 -0.623168,0.14111 -0.39071,0 -0.710382,-0.0308 -0.710382,-0.0684 z m 49.003639,-0.28166 c 0,-0.21086 1.171926,-0.21086 1.662624,0 0.251835,0.10821 0.06773,0.15386 -0.656299,0.16271 -0.562408,0.007 -1.006325,-0.0649 -1.006325,-0.16271 z m 3.896446,-0.12559 c 0.26603,-0.0402 0.659809,-0.0392 0.875065,0.002 0.215255,0.0415 -0.0024,0.0744 -0.483692,0.0731 -0.481286,-10e-4 -0.657404,-0.0353 -0.391373,-0.0755 z m 5.029217,-0.0494 c 0,-0.10171 0.531423,-0.16986 1.268844,-0.16271 0.87135,0.008 1.15919,0.0594 0.918818,0.16271 -0.491905,0.21138 -2.187662,0.21138 -2.187662,0 z m 22.31416,-0.17501 c 0.066,-0.10671 1.40192,-0.17501 3.42308,-0.17501 2.09327,0 3.31492,0.0645 3.31492,0.17501 0,0.11071 -1.25771,0.17501 -3.42309,0.17501 -2.23748,0 -3.38561,-0.0606 -3.31491,-0.17501 z m -28.462183,-0.15356 c -0.03572,-0.10624 -0.478407,-0.2913 -0.983757,-0.41124 -0.927315,-0.2201 -1.070811,-0.41059 -0.813817,-1.08031 0.08283,-0.21586 0.179411,-0.2338 0.457458,-0.085 0.193851,0.10374 0.619136,0.15749 0.945077,0.11944 0.335963,-0.0392 0.598777,0.0103 0.606838,0.11444 0.07506,0.96931 0.07015,1.1847 -0.03071,1.34788 -0.08198,0.13265 -0.135259,0.13112 -0.181093,-0.005 z m 0.02257,-0.99435 c 0,-0.0425 -0.07876,-0.0772 -0.175013,-0.0772 -0.09626,0 -0.175013,0.0834 -0.175013,0.18534 0,0.10194 0.07876,0.13667 0.175013,0.0772 0.09626,-0.0595 0.175013,-0.1429 0.175013,-0.18534 z m -19.120014,0.56521 c -0.07211,-0.1761 -0.08326,-0.51081 -0.02478,-0.7438 0.103112,-0.41084 0.07637,-0.42363 -0.88555,-0.42363 -0.571871,0 -0.948978,-0.0694 -0.890575,-0.16391 0.05872,-0.095 0.853941,-0.12327 1.891719,-0.0672 1.92546,0.10396 2.498873,0.23115 1.042092,0.23115 H 54.47298 l -0.05382,0.7438 c -0.03846,0.5315 -0.09124,0.65242 -0.184921,0.42363 z m 2.444214,-0.40599 c -0.231953,-0.37531 0.168455,-1.80313 0.637075,-2.27175 0.251407,-0.2514 0.414307,-0.52635 0.362001,-0.61098 -0.05231,-0.0846 0.334164,-0.15388 0.858824,-0.15388 0.864301,0 0.963959,0.04 1.060694,0.42539 0.128507,0.51201 -0.147886,1.31933 -0.458268,1.33856 -0.122704,0.008 0.01318,0.10604 0.301941,0.21876 0.481245,0.18786 0.40156,0.21225 -0.955366,0.29246 -1.402112,0.0829 -1.48581,0.11055 -1.582592,0.52327 -0.06114,0.26072 -0.151245,0.35639 -0.224309,0.23817 z M 7.4618623,285.47745 c -0.068891,-0.11147 0.4357152,-0.17502 1.3897752,-0.17502 0.8819509,0 1.4979395,0.072 1.4979395,0.17502 0,0.10198 -0.579934,0.17501 -1.3897755,0.17501 -0.7643764,0 -1.4384489,-0.0788 -1.4979392,-0.17501 z m 7.2192857,-0.12815 c 0.409093,-0.0369 1.078518,-0.0369 1.487611,0 0.409093,0.0368 0.07438,0.067 -0.743805,0.067 -0.818186,0 -1.152899,-0.0301 -0.743806,-0.067 z m 6.169208,-0.0469 c 0,-0.0963 0.19689,-0.17501 0.437533,-0.17501 0.240643,0 0.437532,0.0788 0.437532,0.17501 0,0.0963 -0.196889,0.17502 -0.437532,0.17502 -0.240643,0 -0.437533,-0.0788 -0.437533,-0.17502 z m 5.903359,0.0602 c 0.118489,-0.0479 0.354756,-0.0509 0.525039,-0.006 0.170282,0.0444 0.07334,0.0836 -0.215436,0.0872 -0.288772,0.004 -0.428092,-0.0327 -0.309603,-0.0807 z m 16.719133,-0.23569 c 0.649751,-0.19544 2.054341,-0.18515 2.054341,0.015 0,0.0882 -0.57098,0.15366 -1.268844,0.14539 -0.961452,-0.0114 -1.151749,-0.0503 -0.785497,-0.16043 z m 5.825278,0.0136 c -0.07959,-0.12877 0.36588,-0.1882 1.410786,-0.1882 0.83991,0 1.494293,0.0298 1.454187,0.0662 -0.2037,0.18499 -2.758798,0.29378 -2.864973,0.12199 z m 18.2807,-0.19357 c 0,-0.11343 0.649484,-0.17126 1.75013,-0.15582 0.962572,0.0135 1.75013,0.0947 1.75013,0.18038 0,0.0857 -0.787558,0.15582 -1.75013,0.15582 -1.084762,0 -1.75013,-0.0686 -1.75013,-0.18038 z m 24.589326,-0.16965 c 0.490068,-0.21059 1.487611,-0.21059 1.487611,0 0,0.0963 -0.413469,0.16948 -0.918819,0.16271 -0.674801,-0.009 -0.82586,-0.0522 -0.568792,-0.16271 z m -39.577379,-0.78814 c -0.06025,-0.157 -0.02033,-0.37468 0.08871,-0.48372 0.123577,-0.12357 0.198252,-0.13056 0.198252,-0.0185 0,0.10138 0.2363,0.14502 0.542181,0.10013 0.456721,-0.067 0.532358,-0.0278 0.479852,0.24907 -0.08391,0.44244 -1.150108,0.56711 -1.308995,0.15306 z m 26.219461,-0.20785 c -0.01682,-0.30716 -0.117206,-0.61201 -0.223087,-0.67744 -0.105881,-0.0654 -1.205612,-0.11238 -2.443846,-0.1043 -2.204394,0.0144 -3.164645,-0.19635 -1.693428,-0.37161 1.551928,-0.18489 12.905422,-0.15085 12.905422,0.0387 0,0.12552 -1.355282,0.18552 -4.190249,0.18552 h -4.190249 l -0.06699,0.74381 c -0.05257,0.5836 -0.07358,0.62352 -0.09757,0.18534 z M 7.5744372,283.39733 c -0.4161263,-0.26515 0.06343,-0.37137 1.3657342,-0.3025 1.5568006,0.0823 1.8422086,0.28246 0.40281,0.28246 -0.585713,0 -1.1698188,0.0385 -1.2980131,0.0857 -0.128194,0.0471 -0.339933,0.0176 -0.4705311,-0.0656 z m 27.8019978,-0.37007 c 0,-0.0962 0.354401,-0.17501 0.787559,-0.17501 0.433157,0 0.787558,0.0788 0.787558,0.17501 0,0.0963 -0.354401,0.17502 -0.787558,0.17502 -0.433158,0 -0.787559,-0.0788 -0.787559,-0.17502 z m 21.482845,-0.1159 c 0.120322,-0.0486 0.317211,-0.0486 0.437533,0 0.120321,0.0485 0.02188,0.0883 -0.218767,0.0883 -0.240642,0 -0.339087,-0.0397 -0.218766,-0.0883 z m 3.193987,-0.0591 c 0,-0.0963 0.35905,-0.17501 0.797888,-0.17501 0.487359,0 0.75579,0.0681 0.689723,0.17501 -0.05949,0.0963 -0.41854,0.17501 -0.797888,0.17501 -0.379348,0 -0.689723,-0.0788 -0.689723,-0.17501 z m 9.751695,-0.12789 c 0.406187,-0.0367 1.11499,-0.0371 1.575117,-0.001 0.460125,0.0362 0.127789,0.0662 -0.738525,0.0667 -0.866315,5.2e-4 -1.242782,-0.0291 -0.836592,-0.0658 z m 2.717981,0.007 c 0.16845,-0.044 0.444096,-0.044 0.612546,0 0.16845,0.044 0.03063,0.08 -0.306273,0.08 -0.3369,0 -0.474723,-0.036 -0.306273,-0.08 z m -43.589237,-1.1482 c 0.04113,-0.2958 -0.04316,-0.40769 -0.338736,-0.44967 -0.242431,-0.0344 -0.433519,-0.21538 -0.497761,-0.47134 -0.141747,-0.56476 0.03175,-0.78537 0.617631,-0.78537 0.583441,0 0.932923,0.34122 0.713353,0.69649 -0.08966,0.14508 -0.08051,0.38228 0.02216,0.57411 0.121903,0.22778 0.111704,0.40309 -0.03364,0.57822 -0.310127,0.37368 -0.545132,0.30437 -0.483003,-0.14244 z m -0.03275,-1.09384 c 0,-0.14438 -0.07033,-0.26252 -0.156288,-0.26252 -0.08596,0 -0.20162,0.11814 -0.257028,0.26252 -0.06136,0.15992 -3.5e-4,0.26252 0.156289,0.26252 0.141365,0 0.257027,-0.11813 0.257027,-0.26252 z m -0.875065,1.05008 c 0,-0.14438 0.07876,-0.26252 0.175013,-0.26252 0.09626,0 0.175013,0.11814 0.175013,0.26252 0,0.14439 -0.07876,0.26252 -0.175013,0.26252 -0.09626,0 -0.175013,-0.11813 -0.175013,-0.26252 z m -7.381063,-0.44501 c -0.918391,-0.21618 0.13618,-0.30661 3.399518,-0.2915 1.901078,0.009 3.456506,0.0797 3.456506,0.1575 0,0.12092 -1.318296,0.17239 -5.632697,0.21995 -0.45091,0.005 -1.001408,-0.0337 -1.223327,-0.0859 z m 12.45644,-0.1858 c 0,-0.0862 0.910341,-0.15675 2.022979,-0.15675 1.34446,0 1.985578,0.0605 1.911476,0.18042 -0.137917,0.22315 -3.934455,0.20031 -3.934455,-0.0237 z m -1.878983,-0.10732 c 0.26603,-0.0402 0.659809,-0.0392 0.875065,0.002 0.215255,0.0415 -0.0024,0.0745 -0.483692,0.0731 -0.481286,-10e-4 -0.657403,-0.0353 -0.391373,-0.0755 z m -6.346628,-1.14612 c 0,-0.25453 1.644083,-1.29182 2.779937,-1.75394 0.441347,-0.17957 1.234541,-0.31652 1.860962,-0.32133 1.301738,-0.01 3.234686,0.4874 3.234686,0.83235 0,0.29493 0.02835,0.29568 -0.875065,-0.0231 -1.623209,-0.5727 -3.980467,-0.22212 -5.801873,0.86289 -1.180305,0.7031 -1.198647,0.70927 -1.198647,0.40309 z M 1.5247264,274.56835 c -0.54095532,-0.54096 -0.5743423,-1.0433 -0.1008124,-1.51683 0.4236356,-0.42363 0.7565227,-0.44357 1.1322954,-0.0678 0.2596344,0.25963 0.2592515,0.3173 -0.00478,0.72027 -0.2495141,0.38081 -0.2541594,0.47089 -0.035554,0.6895 0.2076499,0.20765 0.3350741,0.21336 0.7313726,0.0328 0.6618196,-0.30155 1.1518878,-1.33696 1.1518878,-2.43371 v -0.89786 l -1.7938832,0.0596 c -1.5043667,0.05 -1.79388321,0.0172 -1.79388321,-0.20295 0,-0.20139 0.17318597,-0.24882 0.74380521,-0.20371 0.8529456,0.0674 0.9201123,-0.0448 0.3128027,-0.52247 -0.2370516,-0.18646 -0.590971,-0.56368 -0.7864876,-0.83826 -0.31517063,-0.44261 -0.33535691,-0.60537 -0.1779994,-1.43511 0.1205054,-0.63542 0.1201616,-0.95498 -0.001071,-0.99539 -0.30743477,-0.10248 -0.19451569,-0.55539 0.1384688,-0.55539 0.1743639,0 0.4704236,-0.13783 0.6579105,-0.30628 0.1874869,-0.16845 0.6503597,-0.57287 1.0286063,-0.89872 l 0.6877211,-0.59245 -1.3456317,0.1261 c -1.30371127,0.12217 -1.34563146,0.11423 -1.34563146,-0.25458 0,-0.37029 0.0399298,-0.37734 1.46562036,-0.25858 0.8311089,0.0692 1.5078982,0.0537 1.5632751,-0.0359 0.05371,-0.0869 0.051845,-0.49954 -0.00414,-0.91697 l -0.1017984,-0.75897 -1.4614765,0.0912 c -1.34844036,0.0841 -1.46147626,0.0656 -1.46147626,-0.23948 0,-0.29827 0.14571905,-0.33066 1.48761046,-0.33066 1.4451678,0 1.4876104,-0.0117 1.4876104,-0.41165 0,-0.67707 0.7427203,-1.60895 1.2384844,-1.55391 0.5374096,0.0597 0.8062187,0.41934 0.9501636,1.27134 0.095458,0.56501 0.1891927,0.68232 0.5814484,0.72767 0.6494859,0.0751 0.586736,0.39255 -0.090553,0.45814 -0.44904,0.0435 -0.6458302,0.20358 -1.0063248,0.81872 -0.2464699,0.42057 -0.4481272,0.81095 -0.4481272,0.86752 0,0.0566 1.1506786,0.0725 2.5570636,0.0353 2.977037,-0.0786 3.113651,-0.15103 2.606952,-1.38184 -0.1712685,-0.41602 0.29142,-0.40653 0.671795,0.0138 0.324805,0.35891 0.379108,0.82909 0.114632,0.99255 -0.496148,0.30663 0.107527,0.36994 3.10648,0.32576 10.084065,-0.14856 18.595131,-0.10048 18.595131,0.10506 0,0.16222 -4.267497,0.27801 -7.288857,0.19778 l -0.900883,-0.0239 -0.06398,0.8045 c -0.03519,0.44247 -0.02357,0.85771 0.02582,0.92275 0.04939,0.065 1.366148,0.11776 2.926128,0.11714 2.943752,-10e-4 3.404484,-0.105 3.075351,-0.69312 -0.146908,-0.26251 -0.184378,-0.26414 -0.389591,-0.0169 -0.311474,0.3753 -0.767264,0.34289 -1.151692,-0.0819 -0.297598,-0.32884 -0.300288,-0.37688 -0.03591,-0.64126 0.232237,-0.23224 0.335289,-0.24471 0.549926,-0.0666 0.164471,0.1365 0.46495,0.17511 0.796343,0.10232 0.530587,-0.11654 0.532207,-0.11452 0.532207,0.6603 0,0.73464 0.02396,0.77262 0.437533,0.69356 0.255405,-0.0488 0.437532,-0.002 0.437532,0.11177 0,0.1924 -0.226383,0.26431 -0.656299,0.20848 -0.152231,-0.0198 -0.218766,0.26811 -0.218766,0.94652 v 0.97492 l 2.573755,-0.0484 2.573755,-0.0484 0.121501,-0.43754 c 0.103276,-0.3719 0.127347,-0.33251 0.160466,0.26252 0.100586,1.80711 -0.0061,2.43658 -0.493379,2.9105 -0.271671,0.26424 -0.759698,0.50296 -1.145694,0.56041 -0.551463,0.0821 -0.740363,0.0281 -1.050078,-0.30021 -0.375774,-0.39832 -0.398272,-0.40004 -4.527347,-0.34725 -2.282334,0.0292 -4.189902,-0.012 -4.239042,-0.0915 -0.137847,-0.22304 1.952258,-0.36664 5.356336,-0.36801 3.025861,-10e-4 3.104118,-0.0105 3.602411,-0.42984 0.28782,-0.24218 0.882864,-0.49121 1.36811,-0.57257 0.601553,-0.10085 0.876197,-0.23457 0.917005,-0.44646 0.06575,-0.34141 0.223844,-0.3346 -7.027307,-0.30286 -2.748758,0.012 -3.961736,-0.0398 -3.883712,-0.16608 0.07118,-0.11518 1.112434,-0.18359 2.794336,-0.18359 h 2.680876 l -0.08929,-0.83131 c -0.04911,-0.45722 -0.107297,-0.85323 -0.1293,-0.88002 -0.022,-0.0268 -1.350432,-0.0662 -2.952063,-0.0875 l -2.912057,-0.0388 -0.01181,0.52504 c -0.0065,0.28877 -0.0017,1.17102 0.01075,1.96055 0.01241,0.78954 -0.0633,1.59597 -0.168254,1.79207 -0.467848,0.87419 -2.311895,1.21713 -2.64253,0.49144 -0.17376,-0.38137 -0.256031,-0.39356 -2.610644,-0.38692 -2.103865,0.006 -2.47886,0.05 -2.784955,0.32697 -0.194547,0.17606 -0.708487,0.3601 -1.142088,0.40897 -0.727872,0.082 -0.805145,0.052 -1.007046,-0.39109 l -0.218684,-0.47995 -3.76916,0.10216 c -2.073039,0.0562 -4.095623,0.10474 -4.4946318,0.10788 l -0.7254707,0.006 0.00917,1.00632 c 0.01514,1.66102 -0.7036826,2.64801 -2.0380837,2.79842 -0.6708481,0.0756 -0.8451163,0.0243 -1.232193,-0.36277 z m 2.8402444,-4.62331 c -0.052828,-0.8233 -0.059669,-0.83184 -0.7096411,-0.88563 -0.7971872,-0.066 -0.8299722,0.13959 -0.1178319,0.73881 0.3347269,0.28166 0.4387865,0.45309 0.2750205,0.45309 -0.2957184,0 -0.725415,-0.38348 -0.995804,-0.88871 -0.1844917,-0.34473 -0.6927483,-0.46916 -0.6927483,-0.1696 0,0.73671 0.9983581,1.57055 1.8909788,1.57937 0.3724774,0.004 0.3992834,-0.0597 0.350026,-0.82733 z m 5.2408007,0.66776 c 0.3002985,-0.009 0.3937792,-0.11533 0.3937792,-0.44899 0,-0.40837 -0.058338,-0.43754 -0.8750649,-0.43754 -0.8264259,0 -1.109283,-0.18461 -0.6848052,-0.44695 0.1046429,-0.0647 0.1513939,-0.26621 0.1038912,-0.44786 -0.051529,-0.19705 0.00427,-0.33028 0.1383367,-0.33028 0.1235881,0 0.3227478,-0.11813 0.4425773,-0.26252 0.1198294,-0.14438 0.2845126,-0.26252 0.3659626,-0.26252 0.08145,0 0.1027588,0.11814 0.047353,0.26252 -0.067258,0.17527 0.00728,0.26252 0.224259,0.26252 0.2156371,0 0.3303596,-0.1325 0.3409326,-0.39378 0.0088,-0.21658 0.06262,-0.61035 0.119671,-0.87506 l 0.103734,-0.48129 H 8.7628702 c -0.9256762,0 -1.5635274,-0.0714 -1.5635274,-0.17501 0,-0.0963 0.3234494,-0.17501 0.7187765,-0.17501 0.6172442,0 0.7004697,-0.0433 0.5891784,-0.30628 -0.324026,-0.76575 0.1153766,-1.4954 0.6054899,-1.00544 0.2177497,0.21768 0.2100661,0.29578 -0.058273,0.59229 -0.2969491,0.32812 -0.2939003,0.34968 0.077589,0.54849 0.8848014,0.47353 1.7870684,-0.67809 1.1139804,-1.42185 -0.3040286,-0.33594 -0.4556428,-0.34787 -3.039169,-0.23909 -1.4955473,0.063 -2.7784906,0.15115 -2.8509852,0.19596 -0.072495,0.0448 -0.1318082,0.43121 -0.1318082,0.85869 v 0.77723 h 1.1375845 c 0.6417143,0 1.1375844,0.0763 1.1375844,0.17501 0,0.0963 -0.1640746,0.17501 -0.3646103,0.17501 -0.2005358,0 -0.3383586,0.0608 -0.3062727,0.13509 0.6773713,1.56852 0.9096088,1.78255 1.9397273,1.78767 0.2647071,10e-4 0.4812857,0.0919 0.4812857,0.20119 0,0.13513 -0.2539379,0.16399 -0.7928855,0.0901 -0.7383708,-0.1012 -0.8048519,-0.0772 -0.9669302,0.3491 -0.095725,0.25177 -0.3378258,0.68778 -0.5380027,0.9689 l -0.3639579,0.51113 1.8121738,-0.085 c 0.9966957,-0.0467 1.9893746,-0.0901 2.2059532,-0.0965 z m 4.5456465,-0.22317 c 0.219159,-0.20589 0.398471,-0.31561 0.398471,-0.24383 0,0.0718 0.131025,-5.1e-4 0.291167,-0.16065 0.195843,-0.19585 0.452923,-0.25882 0.785248,-0.19235 0.366006,0.0732 0.585411,7.8e-4 0.846417,-0.27938 l 0.352337,-0.37819 v 0.73306 0.73305 H 19.1327 c 2.139238,0 2.337661,-0.0282 2.718979,-0.38643 0.253829,-0.23846 0.727258,-0.42275 1.236371,-0.48129 0.67674,-0.0778 0.825034,-0.15777 0.825034,-0.44488 0,-0.33562 -0.145844,-0.35363 -3.544274,-0.43753 -1.949351,-0.0481 -3.563845,-0.0481 -3.587766,0 -0.02392,0.0481 -0.949185,0.043 -2.056142,-0.0113 -1.106958,-0.0544 -1.973272,-0.12454 -1.925143,-0.15597 0.09531,-0.0622 1.523887,-0.14712 2.843961,-0.16898 0.710048,-0.0118 0.831312,-0.0648 0.831312,-0.36379 0,-0.19252 0.07876,-0.35003 0.175013,-0.35003 0.09626,0 0.175013,0.15301 0.175013,0.34002 0,0.31526 0.156143,0.34394 2.143909,0.39378 1.17915,0.0296 2.797828,0.0308 3.597059,0.003 l 1.453153,-0.051 -0.05305,-0.82409 -0.05305,-0.82408 -3.544248,-0.0875 c -2.298036,-0.0567 -3.551251,-0.026 -3.564166,0.0875 -0.01096,0.0963 -0.0044,0.32154 0.01451,0.50063 0.02142,0.20262 -0.0536,0.29609 -0.198613,0.24745 -0.128174,-0.043 -0.233044,-0.22889 -0.233044,-0.41312 0,-0.2938 -0.150548,-0.34043 -1.225091,-0.37947 -1.370629,-0.0498 -2.012453,-0.16222 -2.013051,-0.3526 -2.28e-4,-0.0704 0.712895,-0.10254 1.584702,-0.0715 l 1.585104,0.0564 -0.05334,-0.93148 -0.05334,-0.93149 -2.647037,-0.026 -2.647037,-0.026 0.184804,0.4896 c 0.14726,0.39014 0.124212,0.58208 -0.113452,0.9448 -0.28734,0.43854 -0.285298,0.4552 0.0558,0.4552 0.194733,0 0.354061,0.0788 0.354061,0.17501 0,0.0963 -0.206734,0.17501 -0.459409,0.17501 -0.421198,0 -0.450312,0.0455 -0.350026,0.54692 0.06016,0.3008 0.109383,0.69458 0.109383,0.87506 0,0.21148 0.124453,0.32815 0.350026,0.32815 0.192514,0 0.350026,0.0788 0.350026,0.17502 0,0.0962 -0.157512,0.17501 -0.350026,0.17501 -0.194459,0 -0.350026,0.11667 -0.350026,0.26252 0,0.1656 0.16691,0.26252 0.452117,0.26252 0.548266,0 0.488257,0.41101 -0.07205,0.49346 -0.49708,0.0731 -0.488427,0.52652 0.01371,0.71826 0.216579,0.0827 0.903581,0.15613 1.526672,0.16318 0.927574,0.0105 1.205109,-0.055 1.531364,-0.36152 z m -2.314231,-1.71343 c 0.05949,-0.0963 0.22165,-0.17502 0.360355,-0.17502 0.138705,0 0.252191,0.0788 0.252191,0.17502 0,0.0962 -0.16216,0.17501 -0.360355,0.17501 -0.198195,0 -0.311681,-0.0788 -0.252191,-0.17501 z m -0.08751,-2.10016 c -0.192567,-0.12445 -0.07598,-0.16709 0.437532,-0.16003 0.550008,0.008 0.62503,0.0419 0.350026,0.16003 -0.460502,0.19788 -0.481354,0.19788 -0.787558,0 z m -6.253722,3.71903 c 0.1518051,-0.16845 0.3300607,-0.52286 0.3961237,-0.78756 0.1164078,-0.46643 0.097924,-0.48129 -0.59891,-0.48129 -0.629688,0 -0.7187278,0.0489 -0.716635,0.39378 0.00667,1.09947 0.3891421,1.46349 0.9194213,0.87507 z m 4.5035917,-1.15815 c 0,-0.31314 -0.5629321,-0.46387 -0.9413947,-0.25207 -0.4005774,0.22417 -0.2389421,0.40702 0.4030506,0.45594 0.3641696,0.0277 0.5383441,-0.0382 0.5383441,-0.20387 z m -7.4064839,-0.7424 c 0.099346,-0.25889 0.1208394,-0.25889 0.2657231,0 0.161509,0.2886 1.0995709,0.39508 1.2556547,0.14254 0.1311659,-0.21224 -0.091378,-1.61099 -0.2563099,-1.61099 -0.079688,0 -0.3449634,0.21577 -0.5895017,0.47949 -0.3429509,0.36986 -0.4446151,0.41224 -0.4446151,0.18534 0,-0.16178 0.078756,-0.34282 0.175013,-0.40231 0.2465981,-0.15241 0.2178569,-0.43806 -0.043753,-0.43486 -0.426094,0.005 -0.6834588,0.30433 -0.8332266,0.96838 -0.083388,0.36974 -0.1124227,0.73566 -0.064521,0.81317 0.143623,0.23238 0.4202484,0.15968 0.5355365,-0.14076 z m 3.1368212,0.0349 c 0.1997686,-0.52059 -0.5651274,-1.5034 -1.1700539,-1.5034 -0.237022,0 -0.1955464,1.29525 0.049316,1.54011 0.288126,0.28813 1.0050984,0.26464 1.1207375,-0.0367 z M 4.0464249,266.0947 c -0.006,-0.68545 -0.2677067,-0.75857 -0.7844644,-0.21919 l -0.5034333,0.52547 h 0.6452889 c 0.4989064,0 0.6446808,-0.0695 0.6426088,-0.30628 z m 19.7111031,0.18708 c 0.266206,-0.10215 0.327189,-1.05227 0.09141,-1.42411 -0.109588,-0.17283 -1.003337,-0.25291 -3.562215,-0.3192 l -3.415921,-0.0885 -0.08269,0.43257 c -0.04548,0.23792 -0.04682,0.677 -0.003,0.97574 l 0.07972,0.54315 3.32481,-0.0132 c 1.828646,-0.007 3.434187,-0.0552 3.567868,-0.10647 z M 5.2741999,262.69195 c 0,-0.18883 -0.8163607,-0.37316 -1.0401311,-0.23486 -0.210925,0.13036 -0.2520368,1.19333 -0.05382,1.39154 0.1285627,0.12857 1.093951,-0.89219 1.0939511,-1.15668 z m 0.087506,-1.25972 c 0,-0.69381 -0.508561,-1.01152 -0.8647912,-0.54025 -0.1439137,0.19039 -0.264166,0.52835 -0.2672274,0.75103 -0.00484,0.35224 0.068368,0.39774 0.5632263,0.35003 0.4979045,-0.048 0.5687923,-0.1179 0.5687923,-0.56081 z m 61.3858071,11.1625 c -0.28344,-0.12622 -0.28344,-1.04898 0,-1.29241 0.120322,-0.10333 0.363592,-0.2877 0.540603,-0.40971 0.262446,-0.18089 -0.504541,-0.20851 -4.156559,-0.14964 -3.210136,0.0517 -4.478394,0.0171 -4.478394,-0.12223 0,-0.13216 0.699809,-0.19441 2.185538,-0.19441 h 2.18554 l -0.06582,-0.5688 c -0.0362,-0.31283 -0.07461,-0.7263 -0.08536,-0.91881 -0.01867,-0.33454 -0.129897,-0.34843 -2.513498,-0.31384 -1.37168,0.0199 -3.537478,0.0396 -4.812885,0.0438 -2.024817,0.007 -2.318922,0.0438 -2.318922,0.29316 0,0.15709 -0.281253,0.55087 -0.625007,0.87507 l -0.625006,0.58946 h 0.625006 c 0.343754,0 0.625007,0.0788 0.625007,0.17501 0,0.19702 -1.046124,0.22823 -8.61939,0.25711 l -5.206637,0.0199 v -2.20349 -2.2035 l -0.612546,0.0715 c -0.372107,0.0434 -0.612545,0.16704 -0.612545,0.31489 0,0.30792 -0.171775,0.30087 -0.602242,-0.0247 -0.186848,-0.14132 -0.600316,-0.25695 -0.918819,-0.25695 -0.504587,0 -0.579095,0.0576 -0.579095,0.44786 0,0.26172 -0.07467,0.40171 -0.179654,0.33683 -0.09881,-0.0611 -0.157878,-0.24033 -0.13126,-0.39835 0.04131,-0.24529 -0.156421,-0.28998 -1.351709,-0.30555 -2.154627,-0.0281 -2.537689,-0.0667 -2.537689,-0.2558 0,-0.10419 0.661842,-0.17502 1.635498,-0.17502 1.848258,0 2.214788,-0.19778 2.214788,-1.19511 v -0.55502 h -1.389775 c -1.951258,0 -1.955476,-0.31211 -0.0052,-0.38129 2.333062,-0.0828 4.895189,0.0315 4.895189,0.21829 0,0.0897 -0.708803,0.163 -1.575117,0.163 -0.933402,0 -1.575117,0.0713 -1.575117,0.17502 0,0.0962 0.126489,0.17501 0.281088,0.17501 0.268752,0 1.668223,0.99105 1.789899,1.26754 0.03209,0.0729 0.33094,0.13256 0.66412,0.13256 h 0.605783 l -0.07847,-1.95476 c -0.04316,-1.07511 -0.04134,-2.05152 0.004,-2.16978 0.0608,-0.15844 0.942842,-0.22 3.352143,-0.23395 1.798296,-0.0104 8.349381,-0.0582 14.557967,-0.10617 34.538519,-0.26698 51.103795,-0.30241 51.103795,-0.10932 0,0.12821 -0.41894,0.2 -1.18133,0.20244 -7.284861,0.0233 -17.997441,0.20387 -18.097548,0.30504 -0.07005,0.0708 -0.08216,0.46342 -0.02692,0.87252 l 0.100453,0.7438 h 2.602151 2.60215 v -0.43753 c 0,-0.54447 0.305519,-0.5795 0.381608,-0.0437 l 0.05593,0.39377 7.414856,-0.0293 c 4.60228,-0.0182 7.48036,-0.0948 7.58753,-0.20198 0.0992,-0.0992 0.12114,-0.47771 0.0516,-0.88952 -0.11476,-0.67928 -0.15315,-0.71683 -0.73285,-0.71683 -0.41148,0 -0.58796,-0.0716 -0.53909,-0.21877 0.0462,-0.13915 0.41773,-0.21876 1.02091,-0.21876 h 0.94825 l 0.11659,4.20031 c 0.0641,2.31017 0.081,4.33021 0.0376,4.48899 -0.0663,0.24223 -0.45116,0.30646 -2.39177,0.39924 -1.27199,0.0608 -3.41529,0.0799 -4.76289,0.0424 -2.24786,-0.0625 -2.4818,-0.0396 -2.83307,0.27733 -0.21058,0.19001 -0.7314,0.38475 -1.157364,0.43276 -0.664979,0.075 -0.814526,0.0301 -1.057694,-0.31704 -0.266802,-0.38092 -0.379735,-0.40154 -1.949117,-0.35586 -1.107345,0.0322 -1.665905,-0.015 -1.665905,-0.14075 0,-0.17627 0.565944,-0.22453 2.585712,-0.22052 0.547439,10e-4 0.889938,-0.11788 1.276997,-0.44357 0.330741,-0.2783 0.826525,-0.4786 1.323201,-0.53458 0.82067,-0.0925 1.1929,-0.47073 0.74628,-0.75831 -0.13434,-0.0865 -0.78974,-0.13987 -1.456439,-0.11859 -0.873413,0.0279 -1.2336,-0.0256 -1.288853,-0.19135 -0.05976,-0.17927 0.207824,-0.21819 1.21217,-0.17632 1.494012,0.0623 1.726392,-0.0343 1.726392,-0.71724 0,-1.07347 0.0583,-1.05407 -3.168963,-1.05407 -2.839821,0 -2.956497,0.0138 -2.956497,0.35003 0,0.19251 -0.07876,0.35003 -0.175013,0.35003 -0.09626,0 -0.175013,-0.11814 -0.175013,-0.26252 0,-0.21559 -0.344192,-0.268 -1.925142,-0.29315 -1.058829,-0.0169 -2.1811,-0.0452 -2.493936,-0.0631 -0.919913,-0.0525 -1.029136,0.054 -0.971259,0.9471 0.04451,0.68683 0.11201,0.81771 0.44622,0.86518 0.535748,0.0761 0.50072,0.3816 -0.04375,0.3816 -0.361213,0 -0.437116,0.084 -0.435143,0.48129 0.0059,1.19169 0.09676,1.26884 1.493928,1.26884 h 1.280479 l -0.0139,-0.48871 c -0.0076,-0.26879 0.07494,-0.65469 0.183513,-0.85757 0.161599,-0.30195 0.142431,-0.39508 -0.105658,-0.51342 -0.199459,-0.0951 0.173135,-0.17591 1.089872,-0.23626 1.305613,-0.086 1.399941,-0.11913 1.504646,-0.52923 l 0.111706,-0.43753 0.07047,0.43448 c 0.06439,0.39698 0.148511,0.43474 0.97465,0.43753 0.497297,0.002 0.963269,0.0621 1.035492,0.13431 0.128341,0.12829 -0.849679,0.21921 -1.633398,0.15185 -0.287671,-0.0247 -0.393779,0.0599 -0.393779,0.31412 0,0.19137 -0.106637,0.41093 -0.236971,0.48791 -0.222498,0.13141 -0.638092,0.785 -0.638092,1.00351 0,0.0545 0.196889,0.099 0.437532,0.099 0.240643,0 0.437532,0.0718 0.437532,0.15946 0,0.0898 -1.338278,0.16031 -3.062727,0.16143 l -3.062727,0.002 v -1.02433 c 0,-1.18661 0.02499,-1.17328 -2.022809,-1.07977 -1.17904,0.0538 -1.243903,0.0793 -1.425387,0.56013 -0.104573,0.27705 -0.454403,0.66484 -0.777399,0.86176 l -0.587263,0.35804 0.743806,6.4e-4 c 0.409092,3.7e-4 0.743805,0.0794 0.743805,0.17568 0,0.10189 -0.577135,0.17501 -1.38138,0.17501 -1.497815,0 -1.593841,-0.0635 -1.593841,-1.05447 0,-0.31911 0.141113,-0.59964 0.388968,-0.77324 l 0.388966,-0.27245 h -0.378639 c -0.208251,0 -0.427311,-0.0787 -0.486802,-0.17501 -0.06869,-0.11115 0.406547,-0.17501 1.302269,-0.17501 1.137043,0 1.410433,-0.0509 1.410433,-0.26252 0,-0.14439 0.07876,-0.26252 0.175013,-0.26252 0.09626,0 0.175013,0.11813 0.175013,0.26252 0,0.2144 0.296703,0.26258 1.61887,0.26286 l 1.61887,3.5e-4 -0.05435,-2.013 -0.05435,-2.01299 h -0.724459 c -0.563468,0 -0.677789,0.0467 -0.514443,0.21001 0.257762,0.25777 0.275828,0.95375 0.02872,1.10647 -0.09971,0.0616 -0.575243,-0.14075 -1.056734,-0.44972 -0.481489,-0.30897 -0.906763,-0.53044 -0.945053,-0.49215 -0.03829,0.0383 -0.02767,0.38314 0.02359,0.76632 l 0.0932,0.6967 1.470677,-0.0376 c 0.854141,-0.0219 1.470677,0.0332 1.470677,0.13126 0,0.0953 -0.648579,0.16887 -1.487611,0.16887 -1.479257,0 -1.48761,0.003 -1.48761,0.44786 0,0.25401 -0.07575,0.40105 -0.175013,0.3397 -0.09626,-0.0595 -0.175013,-0.24641 -0.175013,-0.41537 0,-0.28142 -0.282802,-0.30933 -3.369,-0.33251 -1.852951,-0.0139 -3.709373,0.0165 -4.125384,0.0676 -0.752206,0.0924 -0.755921,0.0964 -0.67271,0.71382 0.174942,1.29816 -0.56138,2.15737 -1.843709,2.15141 -0.649834,-0.003 -0.843349,-0.10785 -1.119488,-0.60652 -0.164071,-0.29628 -0.103326,-0.41714 0.417843,-0.83131 0.376777,-0.29943 0.821931,-0.48463 1.164854,-0.48463 0.646018,0 1.256087,-0.38191 1.075873,-0.6735 -0.08725,-0.14117 -1.170204,-0.20156 -3.614505,-0.20156 h -3.489931 v 1.31259 c 0,0.72193 -0.07219,1.3126 -0.160429,1.3126 -0.08823,0 -0.186679,-0.0764 -0.218766,-0.16974 -0.06264,-0.18226 -4.754136,-0.36367 -5.017138,-0.194 -0.259228,0.16723 -0.400612,0.82962 -0.279811,1.31093 l 0.113424,0.45192 2.642376,-0.0433 2.642375,-0.0433 0.121539,-0.43753 0.12154,-0.43754 0.01745,0.46469 0.01745,0.46468 3.159289,-0.0543 c 2.332099,-0.0401 3.141557,-10e-4 3.091566,0.14786 -0.04781,0.14271 -0.977097,0.20218 -3.159319,0.20218 h -3.09159 l -0.0063,0.43753 c -0.01073,0.74852 -0.686975,1.38488 -1.573807,1.48098 -0.430403,0.0466 -0.880995,0.0409 -1.001316,-0.0126 z m 1.112064,-1.42095 c -0.177904,-0.17791 -0.324693,0.0899 -0.178727,0.32611 0.110263,0.17841 0.151488,0.17855 0.210768,7e-4 0.04053,-0.12159 0.02611,-0.26866 -0.03204,-0.32682 z m -25.047626,-1.10896 c -0.06699,-0.30504 0.01989,-0.59967 0.27094,-0.91882 l 0.369547,-0.4698 H 43.06054 c -0.786157,0 -0.133125,-0.23357 0.759817,-0.27177 0.5056,-0.0216 1.057096,-0.0481 1.225546,-0.0588 0.16845,-0.0107 0.306273,-0.13296 0.306273,-0.27166 0,-0.13871 0.07876,-0.30087 0.175013,-0.36036 0.107999,-0.0667 0.175013,0.23602 0.175013,0.7907 0,0.75272 -0.08027,0.97913 -0.493754,1.39261 l -0.493755,0.49375 0.625015,0.1034 c 0.343757,0.0569 1.589772,0.10427 2.768922,0.10533 l 2.14391,0.002 v -0.67862 c 0,-0.40641 0.111474,-0.77114 0.277905,-0.90927 0.248887,-0.20656 0.235182,-0.24982 -0.13126,-0.41429 -0.334422,-0.15011 -0.149304,-0.19305 1.0134,-0.23506 l 1.422567,-0.0514 0.115407,-0.72171 c 0.06347,-0.39694 0.04711,-0.79001 -0.03636,-0.87348 -0.08347,-0.0835 -1.399352,-0.15177 -2.924179,-0.15177 -3.564645,0 -3.417328,-0.31182 0.178856,-0.37857 l 2.621352,-0.0487 v -0.87507 -0.87506 l -1.925143,0.0288 c -1.058828,0.0158 -2.653634,0.0355 -3.544013,0.0437 l -1.61887,0.015 v 0.87507 0.87506 h 0.700052 c 0.385028,0 0.700052,0.0788 0.700052,0.17502 0,0.0962 -0.309546,0.17501 -0.68788,0.17501 -0.573729,0 -0.700735,0.0654 -0.765341,0.39378 l -0.07746,0.39378 -0.130137,-0.39378 c -0.127201,-0.3849 -0.188896,-0.39378 -2.734919,-0.39378 h -2.604783 v 0.96257 0.96257 l 0.656299,0.0294 0.656298,0.0294 -0.656298,0.0686 c -0.360965,0.0378 -0.664278,0.16235 -0.674031,0.27686 -0.03408,0.40018 0.05236,1.43438 0.130502,1.56123 0.04334,0.0704 0.667672,0.10975 1.387403,0.0875 1.30618,-0.0404 1.308416,-0.0413 1.209992,-0.48945 z m -1.135048,-1.56364 c 0,-0.0962 0.152863,-0.17501 0.339697,-0.17501 0.186833,0 0.388371,0.0788 0.447861,0.17501 0.06135,0.0993 -0.08569,0.17502 -0.339696,0.17502 -0.246324,0 -0.447862,-0.0788 -0.447862,-0.17502 z m 4.262429,0.0411 c 0.09082,-0.14695 3.604205,-0.10837 3.753796,0.0412 0.05099,0.051 -0.791377,0.0927 -1.87193,0.0927 -1.080553,0 -1.927392,-0.0603 -1.881866,-0.13394 z m 63.257388,1.41962 0.92737,-0.11137 -0.0523,-0.80593 -0.0523,-0.80592 -0.67415,0.0536 c -0.49389,0.0392 -0.65355,-0.008 -0.5971,-0.17501 0.0424,-0.12572 0.30636,-0.23109 0.58664,-0.23417 0.48976,-0.005 0.51165,-0.041 0.56235,-0.91453 l 0.0527,-0.90894 -1.80288,0.0827 c -0.99159,0.0455 -2.17698,0.0829 -2.6342,0.0832 l -0.83131,5.2e-4 v 0.61255 c 0,0.3369 -0.0787,0.61254 -0.17501,0.61254 -0.10262,0 -0.17501,-0.6008 -0.17501,-1.45238 v -1.45238 l 0.65629,-0.0118 c 0.36097,-0.006 0.8108,-0.042 0.99962,-0.079 0.45183,-0.0885 0.55428,0.4103 0.16437,0.8002 -0.28494,0.28494 -0.48943,0.28649 -1.16399,0.009 -0.21693,-0.0893 -0.30627,-0.044 -0.30627,0.15516 0,0.15468 0.13782,0.28449 0.30627,0.28845 0.16845,0.004 0.76912,0.0517 1.33482,0.10599 0.56569,0.0543 1.61323,0.044 2.32786,-0.023 l 1.29933,-0.12176 -0.0527,-0.81554 -0.0527,-0.81554 -4.33157,-2.4e-4 -4.33157,-2.3e-4 v 1.96913 1.96913 h 3.67527 c 2.33351,0 3.67528,0.0639 3.67528,0.17502 0,0.11095 -1.30636,0.17501 -3.56904,0.17501 -3.9403,0 -3.78151,-0.0484 -3.78151,1.1519 v 0.59823 l 3.54401,-0.002 c 1.94921,-8.4e-4 3.96133,-0.0516 4.47139,-0.1129 z m -7.57787,-3.91088 c -0.0682,-0.11036 0.34821,-0.17501 1.12726,-0.17501 0.70694,0 1.23542,0.0749 1.23542,0.17501 0,0.0986 -0.49243,0.17501 -1.12726,0.17501 -0.61999,0 -1.17593,-0.0787 -1.23542,-0.17501 z m -26.689478,2.6252 c 0,-0.0963 -0.0834,-0.17502 -0.185343,-0.17502 -0.101938,0 -0.136668,0.0788 -0.07718,0.17502 0.05949,0.0962 0.142894,0.17501 0.185343,0.17501 0.04245,0 0.07718,-0.0788 0.07718,-0.17501 z m -16.73886,-0.35941 4.626848,0.003 0.06181,-0.65289 c 0.103465,-1.09288 -0.0357,-5.65523 -0.169967,-5.57224 -0.06914,0.0427 -5.164406,0.13149 -11.322812,0.19724 -6.158405,0.0658 -11.238902,0.18678 -11.289994,0.26893 -0.05109,0.0822 -0.06325,0.46026 -0.02701,0.84023 l 0.06588,0.69085 2.127166,-0.0523 c 1.169943,-0.0288 2.334561,-0.0604 2.588041,-0.0703 0.313473,-0.0123 0.502496,-0.14398 0.59101,-0.41182 l 0.130136,-0.39377 0.07621,0.38425 c 0.09415,0.4747 0.453705,0.51068 4.385934,0.43889 2.686929,-0.049 2.843962,-0.0708 2.843962,-0.39378 0,-0.18802 0.07876,-0.34186 0.175013,-0.34186 0.09626,0 0.175013,0.15751 0.175013,0.35003 0,0.33706 0.116676,0.35002 3.150234,0.35002 1.848142,0 3.150233,0.068 3.150233,0.16442 0,0.19086 -3.389296,0.31374 -5.119285,0.18561 l -1.181496,-0.0875 1.58e-4,1.00633 1.56e-4,1.00632 h 2.187662 2.187662 v -0.78756 c 0,-0.86264 0.02161,-0.88632 0.523046,-0.57317 0.270883,0.16917 0.388497,0.16917 0.557667,0 0.479782,-0.47978 1.15333,-0.0669 0.912914,0.55964 -0.154418,0.40241 -0.597105,0.47492 -1.166196,0.19102 -0.666332,-0.33241 -0.652417,-0.33423 -0.652417,0.085 0,0.40182 -0.01386,0.39985 2.663171,0.37921 1.031587,-0.008 1.922238,0.061 1.979225,0.1532 0.09965,0.16124 -2.05718,0.26318 -3.719051,0.17577 l -0.739277,-0.0389 -0.122278,0.75918 c -0.119477,0.74179 -0.125424,0.7475 -0.259602,0.24914 -0.07553,-0.28052 -0.09665,-0.57586 -0.04693,-0.6563 0.04971,-0.0804 -0.898704,-0.14625 -2.1076,-0.14625 h -2.197991 v 0.9729 c 0,0.57677 0.06838,0.93064 0.167951,0.8691 0.09237,-0.0571 2.250035,-0.10265 4.794801,-0.10125 z m 1.512728,-4.19093 c 0,-0.10295 0.612547,-0.17502 1.487612,-0.17502 0.875065,0 1.487609,0.0721 1.487609,0.17502 0,0.10295 -0.612544,0.17501 -1.48761,0.17501 -0.875065,0 -1.487611,-0.0721 -1.487611,-0.17501 z m 9.068277,4.05052 c 0.148562,-0.0952 0.21059,-0.4204 0.175013,-0.91763 l -0.05511,-0.77022 H 66.266225 63.64103 l -0.05244,0.90553 -0.05244,0.90553 2.50262,0.0121 c 1.376442,0.007 2.606174,-0.0542 2.73274,-0.13531 z M 35.813968,266.051 c 0.05949,-0.0963 0.02941,-0.17501 -0.06685,-0.17501 -0.09626,0 -0.223686,0.0788 -0.283176,0.17501 -0.05949,0.0963 -0.02941,0.17501 0.06685,0.17501 0.09626,0 0.223686,-0.0787 0.283177,-0.17501 z m 9.619151,0.0106 c 0.05588,-0.0904 0.05046,-0.4842 -0.01204,-0.87507 l -0.113639,-0.71067 h -2.602827 c -2.42831,0 -2.602826,0.022 -2.602826,0.32815 0,0.18048 -0.04922,0.57426 -0.109383,0.87507 l -0.109383,0.54691 h 2.724248 c 1.510074,0 2.769534,-0.0733 2.825851,-0.16439 z m 21.576915,0.009 1.968896,-0.0195 v -0.43753 c 0,-0.24064 0.07876,-0.43753 0.175013,-0.43753 0.09626,0 0.175013,0.19852 0.175013,0.44115 v 0.44116 l 3.544013,-0.0474 c 3.20155,-0.0428 3.539337,-0.0757 3.495619,-0.34045 -0.02662,-0.16119 0.03245,-0.34304 0.13126,-0.40411 0.105461,-0.0652 0.179654,0.079 0.179654,0.34904 v 0.46007 l 4.112805,-0.0454 4.112806,-0.0454 v -0.93489 -0.9349 l -4.069052,0.0493 -4.069053,0.0493 -0.05593,0.39378 c -0.0682,0.48019 -0.381607,0.52668 -0.381607,0.0566 0,-0.30288 -0.155734,-0.34293 -1.531364,-0.39378 -0.84225,-0.0311 -3.736527,-0.0172 -6.431727,0.0309 l -4.900364,0.0875 0.06198,0.78756 c 0.03409,0.43315 0.08569,0.82693 0.114679,0.87506 0.02898,0.0481 0.355495,0.0766 0.72558,0.0632 0.370084,-0.0134 1.558884,-0.033 2.641777,-0.0438 z m 26.717377,-0.13195 0.820556,-0.11247 -0.05232,-0.80635 -0.05232,-0.80635 -2.712701,-0.0481 -2.712702,-0.0481 0.06002,0.87011 0.06002,0.87011 0.72754,0.0662 c 1.339404,0.12187 3.033701,0.1284 3.861915,0.0149 z m 7.153809,-0.1938 c 0.0388,-0.0722 0.0352,-0.46597 -0.008,-0.87507 l -0.0786,-0.7438 h -3.063068 c -2.721216,0 -3.051214,0.0309 -2.95684,0.27683 0.05843,0.15226 0.106231,0.54604 0.106231,0.87507 v 0.59823 h 2.964892 c 1.630691,0 2.996655,-0.0591 3.035475,-0.13126 z m -25.908095,-1.95116 1.356351,-0.0177 V 263.007 c 0,-0.46409 -0.08671,-0.79433 -0.218766,-0.83316 -0.196172,-0.0577 -1.571015,-0.0565 -10.12771,0.009 l -2.383385,0.0182 -0.09871,0.73593 c -0.05429,0.40476 -0.0619,0.79548 -0.01691,0.86828 0.06979,0.11292 2.141763,0.11088 11.489129,-0.0113 z m 9.097342,-0.0121 c 0.554789,-0.005 0.670102,-0.0739 0.766951,-0.45977 0.06269,-0.24979 0.162639,-0.38761 0.222102,-0.30627 0.319083,0.43648 1.289973,0.76043 2.279024,0.76043 h 1.066829 l -0.0027,-0.7438 c -0.0029,-0.80658 -0.208168,-1.28802 -0.478036,-1.12123 -0.0934,0.0577 -2.661774,0.11481 -5.70749,0.12685 l -5.537667,0.0219 v 0.82898 c 0,0.45593 0.03278,0.86179 0.07284,0.9019 0.04006,0.0401 1.556113,0.0557 3.369001,0.0348 1.812887,-0.021 3.589994,-0.0407 3.949124,-0.0438 z m -47.73146,6.99491 c -0.06889,-0.11147 0.435715,-0.17501 1.389774,-0.17501 0.881952,0 1.49794,0.072 1.49794,0.17501 0,0.10198 -0.579934,0.17501 -1.389775,0.17501 -0.764376,0 -1.438449,-0.0788 -1.497939,-0.17501 z m 17.501299,-0.17501 c 0.805443,-0.20495 4.637844,-0.20495 4.637844,0 0,0.1097 -0.963352,0.16728 -2.581441,0.15431 -1.570268,-0.0126 -2.375779,-0.073 -2.056403,-0.15431 z m 22.110662,-0.0213 c -0.267558,-0.16959 -0.105007,-0.17831 3.410452,-0.18293 1.33067,-0.002 2.466066,0.0435 2.523105,0.10053 0.05704,0.057 -0.204756,0.1086 -0.581762,0.11457 -0.377008,0.006 -1.682733,0.0346 -2.901613,0.0635 -1.218878,0.029 -2.32146,-0.0141 -2.450182,-0.0957 z m 9.56669,-0.1537 c 0.05949,-0.0963 0.305053,-0.17502 0.545696,-0.17502 0.247124,0 0.390461,0.0762 0.329369,0.17502 -0.05949,0.0962 -0.305053,0.17501 -0.545696,0.17501 -0.247123,0 -0.390461,-0.0762 -0.329369,-0.17501 z m 1.312598,0 c 0,-0.0963 0.315023,-0.17502 0.700052,-0.17502 0.385028,0 0.700052,0.0788 0.700052,0.17502 0,0.0962 -0.315024,0.17501 -0.700052,0.17501 -0.385029,0 -0.700052,-0.0788 -0.700052,-0.17501 z m -8.400624,-1.11509 c 0,-0.50914 0.199163,-0.68195 0.606005,-0.52583 0.425812,0.1634 0.267628,0.84113 -0.212226,0.90928 -0.318648,0.0453 -0.393779,-0.0279 -0.393779,-0.38345 z m -41.871859,-0.75095 c 0.120321,-0.0486 0.317211,-0.0486 0.437532,0 0.120322,0.0485 0.02188,0.0883 -0.218766,0.0883 -0.240643,0 -0.339088,-0.0397 -0.218766,-0.0883 z m 1.225091,-0.008 c 0.216578,-0.0417 0.57098,-0.0417 0.787558,0 0.216579,0.0417 0.03938,0.0759 -0.393779,0.0759 -0.433157,0 -0.610358,-0.0341 -0.393779,-0.0759 z m 31.808612,-0.22651 c 0.0603,-0.0976 0.873439,-0.17501 1.837636,-0.17501 0.964197,0 1.777334,0.0774 1.837637,0.17501 0.06963,0.11267 -0.585002,0.17501 -1.837637,0.17501 -1.252634,0 -1.907269,-0.0623 -1.837636,-0.17501 z m 7.263039,0 c 0,-0.0963 0.157512,-0.17501 0.350026,-0.17501 0.192514,0 0.350026,0.0788 0.350026,0.17501 0,0.0963 -0.157512,0.17501 -0.350026,0.17501 -0.192514,0 -0.350026,-0.0787 -0.350026,-0.17501 z m 1.050078,0.007 c 0,-0.0979 0.84123,-0.16828 2.012649,-0.16828 1.17142,0 2.01265,0.0703 2.01265,0.16828 0,0.098 -0.84123,0.16828 -2.01265,0.16828 -1.171419,0 -2.012649,-0.0703 -2.012649,-0.16828 z m 12.775949,0.004 c 0,-0.0906 0.07165,-0.20897 0.159219,-0.26309 0.226157,-0.13977 0.733238,0.083 0.617005,0.2711 -0.128799,0.2084 -0.776224,0.20172 -0.776224,-0.008 z m 6.300467,-0.18534 c 0,-0.0963 0.152864,-0.17502 0.339697,-0.17502 0.186834,0 0.388371,0.0788 0.447862,0.17502 0.06135,0.0993 -0.08569,0.17501 -0.339697,0.17501 -0.246324,0 -0.447862,-0.0788 -0.447862,-0.17501 z M 8.7161222,263.83417 c -0.2164417,-0.21644 -0.1187409,-0.81605 0.1882387,-1.15526 0.2948822,-0.32584 0.2876846,-0.33551 -0.2187662,-0.29366 -0.8865662,0.0732 -1.4862519,-10e-4 -1.4862519,-0.18454 0,-0.11272 1.8376365,-0.17501 5.1628832,-0.17501 4.394365,0 5.162884,0.0378 5.162884,0.25387 0,0.21648 -0.579901,0.24299 -3.937793,0.18001 -2.165786,-0.0406 -3.9377922,-0.007 -3.9377922,0.0757 0,0.0823 -0.1575117,0.19079 -0.350026,0.24113 -0.3551744,0.0929 -0.4959174,0.47433 -0.175013,0.47433 0.096257,0 0.175013,0.15751 0.175013,0.35003 0,0.33728 -0.34246,0.47427 -0.5833766,0.23335 z m 9.2892898,-1.48609 c -0.114205,-0.0706 -0.170223,-0.16576 -0.124484,-0.2115 0.04574,-0.0457 4.827877,-0.12128 10.626972,-0.16787 9.541822,-0.0767 11.301051,-0.0222 10.325042,0.3196 -0.385647,0.13506 -20.611799,0.1931 -20.82753,0.0598 z"
       id="path21"
       inkscape:connector-curvature="0" />
  </g>
</svg>
