<?xml version="1.0" encoding="UTF-8" standalone="no"?>
<!-- Created with Inkscape (http://www.inkscape.org/) -->

<svg
   xmlns:dc="http://purl.org/dc/elements/1.1/"
   xmlns:cc="http://creativecommons.org/ns#"
   xmlns:rdf="http://www.w3.org/1999/02/22-rdf-syntax-ns#"
   xmlns:svg="http://www.w3.org/2000/svg"
   xmlns="http://www.w3.org/2000/svg"
   xmlns:sodipodi="http://sodipodi.sourceforge.net/DTD/sodipodi-0.dtd"
   xmlns:inkscape="http://www.inkscape.org/namespaces/inkscape"
   width="134mm"
   height="46mm"
   viewBox="0 0 134 46"
   version="1.1"
   id="svg8"
   inkscape:version="0.92.3 (2405546, 2018-03-11)"
   sodipodi:docname="paris_img_current.svg">
  <defs
     id="defs2" />
  <sodipodi:namedview
     id="base"
     pagecolor="#ffffff"
     bordercolor="#666666"
     borderopacity="1.0"
     inkscape:pageopacity="0.0"
     inkscape:pageshadow="2"
     inkscape:zoom="4"
     inkscape:cx="114.18657"
     inkscape:cy="110"
     inkscape:document-units="mm"
     inkscape:current-layer="layer1"
     showgrid="false"
     scale-x="0.9"
     height="209mm"
     inkscape:window-width="1788"
     inkscape:window-height="815"
     inkscape:window-x="120"
     inkscape:window-y="150"
     inkscape:window-maximized="0" />
  <metadata
     id="metadata5">
    <rdf:RDF>
      <cc:Work
         rdf:about="">
        <dc:format>image/svg+xml</dc:format>
        <dc:type
           rdf:resource="http://purl.org/dc/dcmitype/StillImage" />
        <dc:title></dc:title>
      </cc:Work>
    </rdf:RDF>
  </metadata>
  <g
     inkscape:label="Layer 1"
     inkscape:groupmode="layer"
     id="layer1"
     transform="translate(0,-251)">
    <path
       style="fill:#000000;stroke-width:0.21166667"
       d="m 111.15145,295.56899 c 0,-0.22621 0.1905,-1.0076 0.42334,-1.73643 0.52943,-1.65728 0.52943,-1.85497 0,-1.37583 -0.72509,0.6562 -0.46298,0.0156 0.2937,-0.71778 0.44563,-0.43191 0.74972,-0.59696 0.80337,-0.43602 0.0662,0.1987 0.19509,0.19104 0.55369,-0.0329 0.71097,-0.444 1.21039,-0.0232 1.19225,1.00456 -0.0254,1.44033 -1.3224,2.66903 -1.72097,1.63038 -0.0922,-0.24025 -0.24764,0.0101 -0.49282,0.79375 -0.36074,1.15293 -1.05256,1.72494 -1.05256,0.87028 z m 2.6511,-2.87142 c 0.085,-0.3653 0.18158,-0.78324 0.21465,-0.92876 0.12338,-0.5429 -0.74693,-0.24771 -1.06114,0.3599 -0.4501,0.87039 -0.40414,1.17 0.18467,1.20386 0.40452,0.0233 0.53861,-0.1054 0.66182,-0.635 z m 0.94724,2.96729 c 0,-0.1564 0.1905,-0.83806 0.42333,-1.5148 0.52667,-1.5308 0.56487,-2.18013 0.10583,-1.79917 -0.17462,0.14493 -0.3175,0.20288 -0.3175,0.12878 0,-0.21552 0.93897,-1.60494 1.08658,-1.60782 0.28228,-0.006 0.32326,1.07692 0.06,1.5844 -0.2631,0.50712 -0.25195,0.52568 0.2413,0.40188 0.38175,-0.0958 0.51714,-0.0439 0.51714,0.19816 0,0.18037 -0.0968,0.38778 -0.21512,0.4609 -0.31422,0.1942 -0.0369,0.52922 0.3236,0.3909 0.30322,-0.11636 0.73473,-1.31079 0.73701,-2.04009 10e-4,-0.4787 -0.61861,-0.73087 -0.85534,-0.34783 -0.0983,0.15911 -0.24846,0.21963 -0.3336,0.13449 -0.20749,-0.20749 0.5782,-0.7916 0.97684,-0.72623 0.4363,0.0716 0.91191,1.14012 0.76608,1.72118 -0.30864,1.22969 -1.55072,2.00537 -2.18904,1.36705 -0.17787,-0.17788 -0.27725,-0.0286 -0.38743,0.58208 -0.15347,0.85057 -0.43255,1.35049 -0.75391,1.35049 -0.10217,0 -0.18575,-0.12797 -0.18575,-0.28437 z m 3.96288,-0.0566 c -0.0711,-0.0711 0.0482,-0.61883 0.2652,-1.21709 0.217,-0.59825 0.46173,-1.42111 0.54385,-1.82857 l 0.14929,-0.74083 -0.44978,0.40322 c -0.66656,0.59756 -0.5334,0.12567 0.18844,-0.66781 0.67316,-0.73996 0.96231,-0.87961 0.7669,-0.37041 -0.14815,0.38609 0.10201,0.41347 0.48346,0.0529 0.23077,-0.21813 0.238,-0.18304 0.0412,0.19988 -0.13129,0.25546 -0.33345,0.52301 -0.44924,0.59458 -0.33814,0.20898 -0.24383,0.47038 0.21281,0.58979 0.42956,0.11233 0.59978,0.57367 0.21166,0.57367 -0.11641,0 -0.21166,0.14287 -0.21166,0.3175 0,0.52726 0.63071,0.35633 0.8542,-0.2315 0.1148,-0.30195 0.22331,-0.92107 0.24113,-1.37583 0.0354,-0.90347 0.24945,-1.05477 0.59055,-0.41742 0.37712,0.70466 0.2419,1.42642 -0.39497,2.1082 -0.61987,0.66357 -1.15631,0.83475 -1.39675,0.44572 -0.2445,-0.39562 -0.74079,-0.21906 -0.74372,0.26458 -0.007,1.11768 -0.44844,1.75353 -0.90256,1.29941 z M 12.009672,295.37355 c -0.510248,-0.51025 0.80174,-2.38766 1.668565,-2.38766 0.522205,0 0.802811,-0.44074 0.60643,-0.9525 -0.0891,-0.23218 0.02644,-0.3175 0.429976,-0.3175 0.6759,0 0.688707,0.28075 0.06276,1.37584 -0.76979,1.34673 -0.816667,1.5572 -0.317755,1.42674 0.384002,-0.10042 0.404746,-0.0628 0.188383,0.34145 -0.133724,0.24987 -0.311221,0.4661 -0.394438,0.48052 -0.669694,0.11602 -2.139324,0.13771 -2.24392,0.0331 z m 1.518171,-1.16759 c 0.189538,-0.31238 0.269065,-0.64324 0.176727,-0.73526 -0.202647,-0.20195 -0.978114,0.70486 -0.978114,1.14378 0,0.45293 0.40349,0.24725 0.801387,-0.40852 z m 4.432561,1.19166 c -0.07648,-0.0765 -0.0352,-0.33311 0.09173,-0.57028 0.126931,-0.23718 0.245545,-0.72471 0.263585,-1.08342 0.02899,-0.57651 0.109131,-0.65465 0.690544,-0.67336 0.361758,-0.0116 0.808243,-0.0789 0.992189,-0.14951 0.448346,-0.17204 0.630819,0.17588 0.456502,0.87041 -0.141835,0.56512 -0.145074,0.56603 -0.390344,0.11007 -0.211342,-0.39289 -0.301209,-0.42026 -0.617739,-0.18812 -0.203729,0.14941 -0.373842,0.3564 -0.378028,0.45998 -0.01305,0.32284 -0.961882,1.37079 -1.10844,1.22423 z m 1.46883,-0.0129 c -0.248833,-0.24883 -0.150851,-0.86819 0.155973,-0.98593 0.362063,-0.13893 1.184582,0.056 1.184582,0.28073 0,0.14574 -0.928328,0.84632 -1.121442,0.84632 -0.0429,0 -0.141502,-0.0635 -0.219113,-0.14111 z m -2.681111,-0.27849 c 0,-0.13377 0.108908,-0.44672 0.242019,-0.69543 0.181581,-0.33929 0.181581,-0.47237 0,-0.53289 -0.379469,-0.12649 -0.284859,-0.43091 0.217474,-0.69975 0.380773,-0.20379 0.50769,-0.18 0.740818,0.13882 0.154728,0.2116 0.209894,0.43797 0.12259,0.50305 -0.0873,0.0651 -0.30161,0.39643 -0.476235,0.73634 -0.328761,0.63995 -0.846666,0.9763 -0.846666,0.54986 z m 23.283332,-0.12347 c 0,-0.18228 0.105084,-0.52777 0.233522,-0.76775 0.177349,-0.33138 0.167894,-0.4769 -0.03931,-0.60495 -0.404628,-0.25008 0.14496,-0.83588 0.784202,-0.83588 0.570482,0 0.634754,0.3375 0.179019,0.94003 -0.337141,0.44574 -0.404429,0.76809 -0.152019,0.72823 0.454558,-0.0718 0.503752,0.0672 0.15875,0.4484 -0.455909,0.50378 -1.164167,0.5597 -1.164167,0.0919 z m 3.251513,0.0138 c -0.07269,-0.18942 -0.02083,-0.58877 0.115253,-0.88743 0.394532,-0.86591 0.118032,-0.79946 -0.539443,0.12962 -0.332653,0.47008 -0.686585,0.85672 -0.78652,0.85921 -0.172375,0.004 -0.07912,-0.61532 0.20344,-1.35165 0.07624,-0.19868 0.01966,-0.33716 -0.137736,-0.33716 -0.176382,0 -0.13698,-0.1438 0.115993,-0.42334 0.434816,-0.48046 0.874641,-0.54985 1.006274,-0.15875 0.06896,0.2049 0.170466,0.19737 0.449942,-0.0334 0.572199,-0.4724 0.923927,0.0202 0.549739,0.76992 -0.160962,0.3225 -0.339247,0.68161 -0.396187,0.79803 -0.05694,0.11641 0.04915,0.088 0.235756,-0.0632 0.465648,-0.37723 0.671049,0.0332 0.213235,0.42604 -0.658582,0.56517 -0.89346,0.62723 -1.029746,0.27207 z m 20.932426,-0.37032 c 0.05681,-0.26194 0.179349,-0.65856 0.272311,-0.88139 0.119431,-0.28627 0.09636,-0.36023 -0.07861,-0.25209 -0.14416,0.0891 -0.247637,0.0289 -0.247637,-0.14414 0,-0.34886 0.664728,-0.9978 1.022083,-0.9978 0.310964,0 0.321767,0.73651 0.01909,1.30205 -0.445001,0.83149 -0.01829,0.61566 0.665631,-0.33667 0.381304,-0.53096 0.772386,-0.96538 0.869067,-0.96538 0.289441,0 0.199028,0.71929 -0.153717,1.2229 -0.298225,0.42578 -0.298225,0.47044 0,0.47044 0.452497,0 0.412799,0.28233 -0.105672,0.75154 -0.370349,0.33517 -0.50019,0.35323 -0.871622,0.12127 -0.31304,-0.1955 -0.50121,-0.20781 -0.665493,-0.0435 -0.412341,0.41235 -0.837091,0.26761 -0.725439,-0.2472 z m 15.109515,-0.0529 c -0.273581,-0.71294 0.722683,-2.2225 1.466791,-2.2225 0.757176,0 0.68246,0.77093 -0.118908,1.22693 -0.793576,0.45157 -0.82143,0.73115 -0.05425,0.54458 0.58149,-0.14142 0.581672,-0.1411 0.17886,0.31346 -0.46511,0.52487 -1.294138,0.6023 -1.472489,0.13753 z m 2.298802,-0.15875 c 0.08523,-0.26194 0.167775,-0.73342 0.183437,-1.04775 0.04079,-0.81861 0.455049,-1.1819 0.976443,-0.85628 0.257537,0.16083 0.455539,0.17841 0.536376,0.0476 0.07047,-0.11403 0.276496,-0.20733 0.45782,-0.20733 0.333227,0 0.321054,0.48131 -0.03351,1.32532 -0.120474,0.28678 -0.07791,0.34261 0.184447,0.24194 0.459452,-0.17631 0.432409,0.18947 -0.04602,0.62244 -0.783361,0.70893 -1.288021,0.28001 -0.794175,-0.67498 0.524948,-1.01513 0.08854,-0.96115 -0.552215,0.0683 -0.633207,1.01733 -1.181119,1.30595 -0.912603,0.48072 z m 15.063855,0.33514 c -0.51855,-0.51855 0.535125,-2.39889 1.344252,-2.39889 0.606195,0 1.124628,-0.61312 0.824357,-0.97492 -0.19882,-0.23957 -0.140466,-0.29508 0.310196,-0.29508 0.659926,0 0.683895,0.18486 0.158908,1.22552 -0.217896,0.43192 -0.459934,0.99174 -0.537861,1.24402 -0.119107,0.3856 -0.07283,0.44071 0.290341,0.34573 0.237614,-0.0621 0.432028,-0.19326 0.432028,-0.29139 0,-0.36636 1.179833,-1.26319 1.587503,-1.2067 0.33515,0.0464 0.41642,0.20576 0.39013,0.76486 -0.0626,1.33145 -1.745949,2.36805 -2.089211,1.28653 -0.139875,-0.44071 -0.140957,-0.44063 -0.660412,0.0474 -0.437403,0.41092 -0.550852,0.43938 -0.712011,0.17862 -0.152675,-0.24703 -0.24521,-0.25668 -0.454518,-0.0474 -0.288919,0.28892 -0.664731,0.34067 -0.883702,0.1217 z m 3.974384,-0.75265 c 0.36867,-0.52635 0.43888,-1.2229 0.12327,-1.2229 -0.21818,0 -0.852099,1.09446 -0.852099,1.47115 0,0.37658 0.382419,0.24632 0.728829,-0.24825 z m -2.639466,-0.43412 c 0.171524,-0.30422 0.240692,-0.62428 0.15371,-0.71127 -0.207156,-0.20715 -0.69778,0.31911 -0.888403,0.95294 -0.204038,0.67845 0.31152,0.50885 0.734693,-0.24167 z m 3.892726,1.0118 c -0.0733,-0.19106 -0.0318,-0.44887 0.0922,-0.57292 0.3225,-0.32249 0.93354,-0.0277 0.8493,0.40968 -0.0938,0.48723 -0.77209,0.60482 -0.94154,0.16324 z m -75.60226,-0.47524 c 0.08713,-0.45241 0.799412,-0.62151 1.032093,-0.24503 0.244195,0.39512 0.04132,0.61302 -0.570766,0.61302 -0.391577,0 -0.513469,-0.0972 -0.461327,-0.36799 z m 6.635169,0.16845 c -0.231588,-0.37472 0.0889,-0.64713 0.761348,-0.64713 0.493296,0 0.622093,0.084 0.567781,0.37042 -0.07918,0.41753 -1.109527,0.63204 -1.329129,0.27671 z m 16.92181,-0.23031 c -0.231402,-0.37442 0.205277,-0.66897 0.877824,-0.59212 0.850915,0.0972 0.804907,0.68534 -0.06018,0.76932 -0.367428,0.0357 -0.735366,-0.0441 -0.817641,-0.1772 z m 7.359443,0.0779 c -0.145521,-0.0587 -0.264584,-0.24164 -0.264584,-0.40656 0,-0.20834 0.256409,-0.29986 0.840025,-0.29986 0.659725,0 0.813873,0.0681 0.718187,0.3175 -0.06701,0.17462 -0.199106,0.3175 -0.293546,0.3175 -0.09444,0 -0.298562,0.0401 -0.453604,0.0891 -0.155043,0.049 -0.400958,0.041 -0.546478,-0.0176 z m 15.081249,-0.28309 c -0.230124,-0.37235 0.110653,-0.635 0.823881,-0.635 0.795568,0 0.993134,0.13053 0.832222,0.54986 -0.130973,0.34131 -1.45569,0.40941 -1.656103,0.0851 z m 17.355741,-0.21316 c -0.07246,-0.11724 0.01024,-0.26765 0.183782,-0.33424 0.472288,-0.18124 1.253765,-0.0179 1.352787,0.28282 0.106847,0.32444 -1.337951,0.37279 -1.536569,0.0514 z M 2.8448766,292.56564 c -0.9967138,-0.41141 -1.2385645,-1.89695 -0.3984476,-2.44741 0.9149807,-0.59952 1.8854085,0.38262 1.1272132,1.14081 -0.2093074,0.20931 -0.1985342,0.30345 0.052917,0.46243 0.4656241,0.29437 0.7287583,0.25254 1.3157572,-0.2092 0.5863204,-0.4612 1.0838226,-1.93154 0.9753966,-2.88274 L 5.84729,288.01173 H 3.748454 c -1.4908183,0 -2.1244408,-0.0766 -2.1872222,-0.26459 -0.062317,-0.18654 0.2035364,-0.26458 0.9013677,-0.26458 h 0.989754 l -0.9764973,-1.0861 c -1.0288659,-1.14435 -1.0313873,-1.15665 -0.6340049,-3.09432 0.053719,-0.26194 6.061e-4,-0.47625 -0.1180285,-0.47625 -0.1186347,0 -0.2156994,-0.14287 -0.2156994,-0.3175 0,-0.17462 0.1723331,-0.3175 0.3829624,-0.3175 0.2106294,0 0.8770634,-0.47625 1.4809645,-1.05833 L 4.470052,280.07423 H 2.8832541 c -1.2049556,0 -1.5867978,-0.07 -1.5867978,-0.29093 0,-0.23342 0.3789333,-0.26932 1.9171036,-0.18162 l 1.9171037,0.10931 -0.06502,-1.1413 -0.06502,-1.1413 -1.8520833,0.0765 c -1.5936845,0.0658 -1.8520832,0.0289 -1.8520832,-0.26459 0,-0.28837 0.2942949,-0.34106 1.9049999,-0.34106 1.7739254,0 1.905,-0.0296 1.905,-0.43013 0,-0.74771 0.5788962,-1.85186 1.0491679,-2.00112 0.6315928,-0.20046 0.9407142,0.13002 1.2771113,1.36538 0.3302743,1.21287 0.00585,1.1206 3.7062208,1.05407 1.164167,-0.0209 2.766482,-0.037 3.560702,-0.0356 0.903414,0.001 1.470332,-0.0882 1.514277,-0.23966 0.03863,-0.13313 0.141968,-0.43256 0.229633,-0.6654 0.140314,-0.37266 0.174766,-0.34733 0.287849,0.21167 l 0.128459,0.635 3.589346,-0.0149 3.589346,-0.0149 0.121403,-0.51427 c 0.268009,-1.1353 0.508547,-0.41661 0.447896,1.33823 l -0.06403,1.85252 4.358771,-0.0341 c 2.397324,-0.0187 4.415396,0.0226 4.484602,0.0918 0.26676,0.26676 -1.438554,0.37311 -5.050341,0.31496 l -3.757083,-0.0605 v 0.59682 c 0,0.34398 -0.08967,0.5414 -0.211667,0.466 -0.116416,-0.072 -0.211666,-0.3157 -0.211666,-0.54166 0,-0.46219 -0.09032,-0.47047 -4.497917,-0.41262 -1.6499,0.0217 -2.487083,-0.0438 -2.487083,-0.19444 0,-0.15245 1.140535,-0.2271 3.469854,-0.2271 3.788587,0 3.726812,0.0212 3.726812,-1.27986 0,-0.73035 -0.413042,-0.96968 -1.5875,-0.91984 -0.465666,0.0198 -2.021725,0.0465 -3.457909,0.0595 l -2.611243,0.0236 0.04023,1.64041 c 0.04733,1.93007 0.0068,2.25381 -0.192137,1.53459 -0.138021,-0.499 -0.248446,-0.53545 -1.936818,-0.63941 -2.04623,-0.126 -1.867601,-0.38178 0.326214,-0.46712 l 1.481667,-0.0576 v -0.9525 -0.9525 l -4.371325,-0.0571 -4.3713239,-0.0571 -0.6557592,1.06574 c -0.3606675,0.58616 -0.655759,1.11884 -0.655759,1.18374 0,0.0649 0.5000625,0.0948 1.11125,0.0665 0.6111875,-0.0283 1.11125,0.0362 1.11125,0.1434 0,0.10719 -0.5715,0.19488 -1.27,0.19488 -1.542061,0 -1.8001083,0.14626 -1.7959254,1.01791 0.00544,1.13429 0.2471175,1.31284 1.6807559,1.24179 0.8012969,-0.0397 1.2793361,0.0206 1.2793361,0.16137 0,0.12362 -0.2828793,0.22477 -0.6286209,0.22477 h -0.628621 l 0.5227876,0.77037 c 0.2875333,0.4237 0.5227877,0.89995 0.5227877,1.05833 0,0.15838 0.142875,0.28796 0.3175,0.28796 0.174625,0 0.3175,0.0953 0.3175,0.21167 0,0.11642 -0.088831,0.21167 -0.1974029,0.21167 -0.1085717,0 -0.262502,0.21431 -0.3420675,0.47625 -0.079565,0.26193 -0.3765815,0.78581 -0.6600355,1.16416 l -0.5153715,0.68792 h 0.9757641 c 0.5966095,0 0.9249318,0.0823 0.8449466,0.21167 -0.07195,0.11641 -0.6966957,0.21166 -1.3883252,0.21166 H 6.3764561 l -0.00348,1.11125 c -0.00708,2.26026 -1.9397617,4.20411 -3.5280976,3.5485 z m 4.0591373,-5.42925 c 0.309253,-0.11867 0.7425402,-1.00361 0.7422094,-1.51587 -1.795e-4,-0.27815 -0.1989876,-0.36451 -0.8706134,-0.37818 l -0.8703805,-0.0177 0.1272267,0.92822 c 0.080621,0.5882 0.050625,0.88088 -0.081887,0.79898 -0.1150123,-0.0711 -0.2091133,-0.45138 -0.2091133,-0.84509 0,-0.87813 -0.1366662,-0.97258 -1.0946448,-0.75652 -0.4145773,0.0935 -0.9030318,0.0865 -1.0854546,-0.0156 -0.4543873,-0.25429 -0.6203503,0.0871 -0.3666909,0.75427 0.3358147,0.88326 1.4227546,1.43482 2.520935,1.27925 0.5096545,-0.0722 1.0444403,-0.17649 1.188413,-0.23173 z m -2.5395654,-0.71346 c -0.5629181,-0.62202 -0.3061007,-0.67998 0.3833944,-0.0865 0.3447607,0.29674 0.4695105,0.51116 0.2973889,0.51116 -0.1630737,0 -0.4694261,-0.19109 -0.6807833,-0.42463 z M 3.712984,284.67798 c 0.098778,-0.21167 0.1481667,-0.21167 0.2469443,0 0.1574851,0.33746 1.4047203,0.34505 1.7391945,0.0106 0.1975555,-0.19756 0.254,-0.19756 0.254,0 0,0.1565 0.3351388,0.254 0.873125,0.254 0.8711709,0 0.872828,-0.001 0.7404375,-0.68792 -0.1314871,-0.68169 -1.1057452,-1.70057 -1.5018908,-1.57069 -0.1132054,0.0371 -0.2703984,0.29856 -0.3493177,0.58097 -0.135241,0.48395 -0.1447023,0.48681 -0.1645884,0.0497 -0.033639,-0.73939 -0.3492629,-0.74637 -1.0561633,-0.0233 -0.7003609,0.71634 -0.8845888,0.5869 -0.3173351,-0.22297 0.3335467,-0.4762 0.3278141,-0.48525 -0.2645833,-0.41751 -0.4990662,0.0571 -0.6389842,0.20467 -0.7958857,0.83961 -0.1975881,0.79958 -0.075394,1.45213 0.2719199,1.45213 0.1103689,0 0.2562333,-0.11906 0.3241431,-0.26458 z m 1.1991171,-2.48709 c 0.3229138,0 0.4060217,-0.15164 0.4060217,-0.74083 0,-0.40746 -0.057035,-0.74083 -0.1267439,-0.74083 -0.20528,0 -1.3549227,1.29539 -1.3549227,1.52669 0,0.11656 0.1506652,0.15411 0.3348116,0.0834 0.1841466,-0.0707 0.5175216,-0.12848 0.7408333,-0.12848 z m 1.4114384,-3.66579 c 0.6640798,-0.97548 0.6154312,-1.24278 -0.2116667,-1.16304 -0.6577831,0.0634 -0.6879166,0.10573 -0.6879166,0.9658 0,1.0799 0.2598961,1.13688 0.8995833,0.19724 z m 0.6879166,-2.32438 c 0,-1.18887 -0.8012876,-1.62151 -1.2360243,-0.66737 -0.4582793,1.00582 -0.327741,1.36587 0.495191,1.36587 0.6970033,0 0.7408333,-0.0413 0.7408333,-0.6985 z m 34.2212799,15.79923 c -0.191417,-0.19142 0.28296,-0.73078 0.516037,-0.58673 0.291833,0.18036 0.220781,0.72601 -0.09454,0.72601 -0.155224,0 -0.344896,-0.0627 -0.421498,-0.13928 z m 66.856524,-1.81864 c -0.18399,-0.26194 -0.54658,-0.47625 -0.80575,-0.47625 -0.72014,0 -0.76755,-0.4137 -0.0567,-0.49457 0.34442,-0.0392 0.89942,-0.30112 1.23333,-0.58208 0.33391,-0.28097 0.86174,-0.52184 1.17295,-0.53527 1.11211,-0.048 1.20169,-0.0874 1.26848,-0.55766 l 0.0676,-0.47625 h -3.40139 c -2.12648,0 -3.40139,-0.0793 -3.40139,-0.21167 0,-0.13229 1.27,-0.21167 3.38667,-0.21167 h 3.38667 v -0.52916 c 0,-0.29105 0.0952,-0.52917 0.21166,-0.52917 0.12544,0 0.21167,0.77611 0.21167,1.905 0,1.63521 -0.0611,1.96615 -0.43178,2.33678 -0.92266,0.92266 -2.32296,1.101 -2.84208,0.36197 z m 2.55508,-1.58309 c -0.0703,-0.0703 -0.12037,0.0547 -0.11118,0.27781 0.0102,0.24658 0.0603,0.29674 0.12789,0.12788 0.0611,-0.15279 0.0536,-0.33536 -0.0167,-0.40569 z m 9.16347,1.78442 c 1.07794,-0.17197 1.49854,-0.35649 2.06375,-0.90539 0.60303,-0.58562 0.70989,-0.83626 0.70989,-1.66507 v -0.97567 l -4.17788,0.0584 -4.17788,0.0584 -0.13624,-0.635 c -0.0749,-0.34925 -0.14751,-2.08756 -0.16129,-3.86291 l -0.025,-3.22792 h -3.79751 c -2.30335,0 -3.84898,-0.0833 -3.92832,-0.21167 -0.0854,-0.1382 1.22915,-0.21167 3.78741,-0.21167 h 3.91822 l 0.063,-1.32291 0.063,-1.32292 1.27,-0.0222 c 0.6985,-0.0122 4.65138,-0.0332 8.78417,-0.0466 9.4577,-0.0308 8.89402,-0.0215 9.55959,-0.15835 0.42466,-0.0873 0.59067,-0.0214 0.67281,0.26725 0.06,0.21076 0.13967,2.6692 0.17708,5.46321 l 0.068,5.08 -2.98042,0.10583 c -3.59038,0.12749 -6.01541,0.0352 -6.01541,-0.22904 0,-0.10929 1.38551,-0.19429 3.16698,-0.19429 h 3.16698 l 0.0609,-4.49792 c 0.0335,-2.47386 0.0308,-4.70989 -0.006,-4.96898 l -0.067,-0.47105 -8.47002,0.0757 c -5.17863,0.0463 -8.55112,0.15681 -8.67873,0.28441 -0.11479,0.1148 -0.1784,0.57845 -0.14135,1.03036 l 0.0674,0.82164 h 8.39551 c 4.61753,0 8.46721,0.0714 8.55486,0.15875 0.0876,0.0873 -0.92808,0.16807 -2.25717,0.17946 -1.32909,0.0114 -4.84541,0.0587 -7.81403,0.10517 -2.96862,0.0465 -5.74789,0.0848 -6.17614,0.0851 l -0.77865,6.4e-4 0.0378,1.00541 c 0.0377,1.00125 0.0411,1.00569 0.83156,1.07112 0.98763,0.0817 1.05301,0.46347 0.0794,0.46347 -0.62942,0 -0.72997,0.078 -0.84551,0.65567 -0.0721,0.36062 -0.0714,0.89387 0.002,1.18499 0.11285,0.44963 0.22297,0.51129 0.73147,0.40959 0.32924,-0.0658 0.65556,-0.0276 0.72515,0.085 0.0726,0.11745 -0.1994,0.20476 -0.63783,0.20476 h -0.76439 l 0.064,1.11125 0.064,1.11125 3.86292,0.0601 3.86291,0.0601 v -1.06554 c 0,-1.01787 -0.026,-1.06617 -0.58208,-1.07964 -0.32015,-0.008 -1.62983,-0.0316 -2.91042,-0.0529 -1.38523,-0.0231 -2.32833,-0.12455 -2.32833,-0.25048 0,-0.13116 0.91066,-0.1954 2.39417,-0.16891 1.3168,0.0235 2.62621,-0.0455 2.90982,-0.15328 0.44285,-0.16837 0.50206,-0.30221 0.41937,-0.94808 -0.053,-0.41361 -0.15356,-0.84469 -0.22357,-0.95796 -0.0723,-0.11695 -1.35666,-0.20594 -2.97228,-0.20594 -1.75556,0 -2.84501,-0.0811 -2.84501,-0.21167 0,-0.13762 2.68431,-0.20409 7.67292,-0.19 4.2201,0.0119 7.38716,0.0881 7.03791,0.16937 -0.34925,0.0812 -2.32568,0.14133 -4.39208,0.13354 -2.0664,-0.008 -3.76051,0.0351 -3.76471,0.0952 -0.0177,0.25407 -0.0231,3.84984 -0.008,5.55451 l 0.016,1.84679 0.635,-0.127 c 0.51268,-0.10254 0.635,-0.0554 0.635,0.24465 0,0.30526 -0.13,0.35056 -0.72772,0.25356 -0.51635,-0.0838 -0.80838,-0.0208 -1.00542,0.21676 -0.46933,0.56594 -1.58152,0.90568 -2.86381,0.87481 l -1.22388,-0.0295 1.35386,-0.21598 z m 13.78031,-4.98147 c 0,-1.12 -0.1014,-1.33431 -0.54986,-1.16221 -0.19867,0.0762 -0.29681,0.45632 -0.29681,1.14958 0,0.89457 0.0577,1.03569 0.42334,1.03569 0.36494,0 0.42333,-0.14112 0.42333,-1.02306 z m 0,-2.69583 c 0,-1.10148 -0.0313,-1.17445 -0.47625,-1.11125 -0.34678,0.0493 -0.49513,0.23283 -0.54569,0.67529 -0.11043,0.96626 0.13162,1.61485 0.60264,1.61485 0.36777,0 0.4193,-0.14489 0.4193,-1.17889 z m -0.0419,-2.58018 c 0.0607,-1.05265 0.0376,-1.10927 -0.45309,-1.10927 -0.43871,0 -0.53214,0.1203 -0.61654,0.79375 -0.11882,0.94805 0.1587,1.58572 0.64952,1.49245 0.26943,-0.0512 0.37171,-0.33772 0.42011,-1.17693 z m 0.0419,-1.92948 c 0,-1.00819 -0.27369,-1.71979 -0.66146,-1.71979 -0.33514,0 -0.39687,0.16463 -0.39687,1.05833 0,0.98778 0.0353,1.05834 0.52916,1.05834 0.3763,0 0.52917,-0.11466 0.52917,-0.39688 z M 28.696818,289.96576 c -0.06593,-0.17181 -0.09954,-0.53888 -0.0747,-0.81571 0.02485,-0.27683 0.03043,-0.74145 0.0124,-1.03249 l -0.03277,-0.52917 -6.403069,0.0666 c -4.274335,0.0445 -6.332697,-0.004 -6.1914,-0.14532 0.128628,-0.1288 2.4122,-0.22714 5.820833,-0.25066 6.022763,-0.0416 6.773333,-0.10044 6.773333,-0.53128 0,-0.1532 0.110255,-0.34669 0.245009,-0.42997 0.16787,-0.10375 0.207431,-0.008 0.125649,0.305 -0.131299,0.50209 -0.322838,0.46987 3.174687,0.53409 1.458563,0.0268 1.534516,0.005 1.534583,-0.44807 4.5e-5,-0.26194 0.09533,-0.47625 0.211743,-0.47625 0.116417,0 0.211667,0.1905 0.211667,0.42333 0,0.52839 -0.0543,0.53073 2.455088,-0.10583 1.14732,-0.29104 2.159658,-0.52917 2.249641,-0.52917 0.08998,0 0.163604,0.23813 0.163604,0.52917 v 0.52917 h 3.175 3.175 v -1.13431 -1.1343 l -3.01625,0.0452 c -1.658938,0.0249 -3.063875,0.0643 -3.122083,0.0877 -0.05821,0.0233 -1.217594,0.0324 -2.576413,0.0201 -2.17035,-0.0197 -2.497527,0.0239 -2.692313,0.35872 -0.207288,0.35628 -0.222153,0.35698 -0.228171,0.0107 -0.0047,-0.26902 -0.180238,-0.3704 -0.641437,-0.3704 -0.34925,0 -0.635,-0.10606 -0.635,-0.23569 0,-0.14148 0.253829,-0.19844 0.635,-0.14249 0.530185,0.0778 0.636112,0.0206 0.641731,-0.3464 0.0061,-0.39777 0.03206,-0.40629 0.273017,-0.0896 0.235775,0.30993 0.901913,0.35002 5.814102,0.34995 l 5.547817,-9e-5 v -1.1437 -1.1437 h -3.069167 -3.069166 v 0.52917 c 0,0.29104 -0.09525,0.52917 -0.211667,0.52917 -0.116417,0 -0.211667,-0.17969 -0.211667,-0.39931 0,-0.49076 -0.526794,-0.57839 -2.910416,-0.48416 -1.687938,0.0667 -1.74625,0.0862 -1.74625,0.58208 0,0.28218 -0.09525,0.51305 -0.211667,0.51305 -0.116417,0 -0.211667,-0.48577 -0.211667,-1.0795 0,-0.94544 0.08937,-1.16887 0.719667,-1.79916 0.765977,-0.76598 0.762284,-0.78548 -0.137583,-0.72615 -0.320146,0.0211 -0.582084,-0.064 -0.582084,-0.18924 0,-0.19897 1.799233,-0.31688 4.7625,-0.31211 0.34925,6.3e-4 0.682625,-0.0572 0.740834,-0.12826 0.778196,-0.95062 2.512743,-1.13592 3.043961,-0.32517 0.323708,0.49404 0.314562,0.54683 -0.18052,1.04191 -0.286829,0.28683 -0.73888,0.59058 -1.004557,0.67502 -0.433572,0.13779 -0.706935,0.18505 -1.594301,0.27565 -0.145521,0.0149 -0.264583,0.21751 -0.264583,0.45035 0,0.37694 0.144964,0.4246 1.322916,0.43489 0.727604,0.006 2.108729,0.0629 3.069167,0.12563 l 1.74625,0.11406 v -2.63685 -2.63686 l 2.38125,-0.12272 c 4.463588,-0.23004 19.683287,-0.18891 19.53391,0.0528 -0.08899,0.144 -1.476587,0.22396 -3.88307,0.22378 l -3.744591,-2.1e-4 0.07052,1.13017 0.07052,1.13017 4.427398,-0.095 c 3.162287,-0.068 4.427398,-0.0279 4.427398,0.14003 0,0.16496 -1.326835,0.23515 -4.445,0.23515 h -4.445 l -0.0362,0.58209 c -0.01992,0.32014 -0.05405,0.77258 -0.07587,1.00542 -0.02182,0.23283 -0.05315,1.15503 -0.06963,2.04933 -0.02855,1.54913 -0.05989,1.64732 -0.662955,2.07673 -0.348143,0.2479 -0.961183,0.50399 -1.362308,0.56908 -0.594955,0.0965 -0.819988,0.0205 -1.221469,-0.41268 -0.45147,-0.48715 -0.647287,-0.53233 -2.369083,-0.54662 -2.292128,-0.019 -2.715123,-0.23284 -0.534846,-0.27036 2.246232,-0.0387 2.367003,-0.0638 3.278653,-0.6833 0.453005,-0.30783 1.111098,-0.56114 1.462426,-0.56293 0.825663,-0.004 1.263422,-0.28932 1.099602,-0.71623 -0.104292,-0.27178 -0.466549,-0.33886 -1.83001,-0.33886 -0.992207,0 -1.699976,-0.0881 -1.699976,-0.21166 0,-0.12462 0.744521,-0.21167 1.810229,-0.21167 h 1.810228 l -0.06398,-1.10004 -0.06398,-1.10004 -3.756323,-0.0112 c -3.63583,-0.0109 -3.754651,0.002 -3.704167,0.41213 0.02869,0.23283 -0.04127,0.42333 -0.155456,0.42333 -0.114186,0 -0.209436,-0.14288 -0.211667,-0.3175 -0.0033,-0.25733 -0.415243,-0.32893 -2.173637,-0.37782 -2.804047,-0.078 -2.867473,-0.46884 -0.07608,-0.46884 h 2.093511 l 0.08511,-0.72904 c 0.167559,-1.43527 -0.02324,-1.58874 -1.88054,-1.5126 -0.907917,0.0372 -2.055569,0.0806 -2.55034,0.0963 l -0.899583,0.0286 v 1.18681 c 0,0.95648 0.06031,1.16368 0.31072,1.06758 0.170898,-0.0656 0.36702,-0.0281 0.435826,0.0832 0.06881,0.11133 -0.07599,0.20242 -0.321782,0.20242 -0.406114,0 -0.44105,0.10139 -0.382909,1.11125 l 0.06398,1.11125 2.328333,-0.0478 c 1.280584,-0.0263 2.495021,-0.0501 2.69875,-0.0529 0.227603,-0.003 0.370417,-0.16833 0.370417,-0.42844 0,-0.23284 0.09801,-0.42334 0.217809,-0.42334 0.189347,0 0.138796,3.81012 -0.05163,3.89148 -0.03319,0.0142 -0.366053,0.23978 -0.739693,0.50132 -0.889681,0.62277 -2.040996,0.63794 -2.312058,0.0305 -0.157042,-0.35195 -0.408659,-0.45343 -1.202559,-0.48501 -1.360049,-0.0541 -1.477245,0.0543 -1.304415,1.20684 0.143972,0.96007 0.155569,0.97181 1.022835,1.03508 0.482464,0.0352 0.829585,0.13655 0.771377,0.22524 -0.05821,0.0887 -2.248958,0.19195 -4.868333,0.22948 -2.619375,0.0375 -5.000625,0.12655 -5.291667,0.19782 -0.291042,0.0713 -1.195917,0.32601 -2.010833,0.56607 -1.695236,0.49937 -2.010834,0.45078 -2.010834,-0.3096 v -0.5441 l -2.328333,0.0441 c -2.277518,0.0431 -2.328333,0.0547 -2.328333,0.53222 0,0.43652 0.05741,0.46631 0.542946,0.28171 0.791271,-0.30085 0.935941,-0.26032 0.963274,0.26982 0.02219,0.43038 0.03436,0.43548 0.12638,0.0529 0.117032,-0.48657 0.484067,-0.94664 0.484067,-0.60678 0,0.1203 0.281561,0.21872 0.625688,0.21872 0.34413,0 0.580701,-0.0728 0.525715,-0.16176 -0.05499,-0.089 0.01156,-0.23069 0.147849,-0.31493 0.138208,-0.0854 0.19156,-0.0621 0.120622,0.0527 -0.06996,0.1132 0.0582,0.33944 0.284796,0.50277 0.480714,0.34648 0.535061,0.62683 0.121513,0.62683 -0.258112,0 -2.814396,0.79043 -3.782316,1.16954 -0.233699,0.0915 -0.412511,0.03 -0.488505,-0.16801 z m 20.030687,-5.99267 c 0.363273,-0.34804 0.904924,-0.58875 1.493249,-0.66359 1.079343,-0.13731 1.475094,-0.38976 1.305168,-0.83258 -0.10033,-0.26146 -0.540412,-0.30786 -2.474501,-0.26088 -3.153927,0.0766 -3.093299,0.0545 -3.093299,1.12843 0,0.49089 0.0635,0.95603 0.141112,1.03364 0.07761,0.0776 0.572461,0.14112 1.099667,0.14112 0.742006,0 1.087338,-0.12339 1.528604,-0.54614 z m -9.888355,-3.21095 0.03618,-1.11125 h -0.79777 c -0.755624,0 -0.797769,0.0356 -0.797769,0.67428 0,0.40592 -0.187653,0.87402 -0.471505,1.17616 l -0.471502,0.5019 1.233094,-0.0649 1.233096,-0.0649 z m 19.163243,-1.67165 1.311372,-0.13706 -0.06324,-0.97419 -0.06324,-0.97418 h -3.598333 c -2.154106,0 -3.660747,0.0849 -3.753843,0.21166 -0.08553,0.11642 -0.156967,0.61648 -0.15875,1.11125 l -0.0032,0.89959 h 2.50895 c 1.379923,0 3.099067,-0.0617 3.820321,-0.13707 z m 28.293347,10.38778 c -0.506592,-0.50659 -0.400126,-1.12781 0.306398,-1.7878 l 0.639018,-0.59693 -2.247763,0.0647 c -1.236271,0.0356 -2.500141,-0.0116 -2.8086,-0.1048 l -0.560839,-0.16948 0.635,-0.029 c 0.34925,-0.0159 1.877907,-0.0198 3.397013,-0.009 3.081236,0.0229 3.472879,-0.0564 3.503253,-0.70945 0.0188,-0.40425 0.03703,-0.39602 0.167502,0.0756 0.133564,0.48277 0.262518,0.53471 1.470616,0.59244 1.156381,0.0553 1.404209,-0.004 1.955395,-0.46782 0.347151,-0.29211 0.985567,-0.58995 1.418702,-0.66186 1.20224,-0.19959 1.316686,-0.2627 1.316686,-0.72611 0,-0.39911 -0.131663,-0.42997 -1.834445,-0.42997 -1.008944,0 -1.770897,-0.0636 -1.69323,-0.14122 0.17591,-0.17591 0.752401,-0.2419 2.310591,-0.26448 1.070094,-0.0155 1.217084,-0.0688 1.217084,-0.44097 0,-0.23283 0.101921,-0.42333 0.226491,-0.42333 0.15113,0 0.192905,0.60473 0.12555,1.81745 -0.117077,2.108 -0.457887,2.6534 -1.884294,3.01546 -0.814872,0.20684 -0.897363,0.18343 -1.454235,-0.4127 -0.542698,-0.58096 -0.689379,-0.62683 -1.816942,-0.56818 -1.116212,0.0581 -1.236218,0.11142 -1.333661,0.59297 -0.169685,0.83857 -0.819808,1.64212 -1.528462,1.88916 -0.875885,0.30533 -1.134159,0.28755 -1.526828,-0.10512 z m 25.27905,-0.0907 c 0,-0.11642 0.23812,-0.21167 0.52916,-0.21167 0.29105,0 0.52917,0.0953 0.52917,0.21167 0,0.11642 -0.23812,0.21167 -0.52917,0.21167 -0.29104,0 -0.52916,-0.0952 -0.52916,-0.21167 z m 4.86833,0 c 0,-0.11642 0.36934,-0.21167 0.82075,-0.21167 0.50556,0 0.93231,-0.13452 1.11125,-0.35028 0.61309,-0.73928 2.64852,-1.17932 3.65985,-0.79124 0.48207,0.18499 0.41332,0.48742 -0.0814,0.35805 -0.7234,-0.18917 -2.58945,0.37041 -2.70468,0.81107 -0.0875,0.3344 -0.31291,0.39574 -1.45463,0.39574 -0.75966,0 -1.35115,-0.0927 -1.35115,-0.21167 z m 3.06608,-0.005 c -0.0767,-0.12405 0.30034,-0.20667 0.94309,-0.20667 0.58896,0 1.07083,0.0745 1.07083,0.16564 0,0.24469 -1.86457,0.28269 -2.01392,0.041 z m -19.27402,-0.157 c -0.445493,-0.30505 -0.473181,-0.85101 -0.0763,-1.5037 l 0.40298,-0.66263 h -2.254669 c -1.240067,0 -2.20091,-0.0538 -2.135209,-0.11946 0.138745,-0.13875 1.715023,-0.22949 4.742488,-0.27303 l 2.14556,-0.0308 0.0964,-0.65662 c 0.053,-0.36114 0.0558,-0.8688 0.006,-1.12813 -0.0861,-0.45041 -0.16512,-0.46717 -1.76568,-0.37452 -1.16041,0.0672 -1.675556,0.0236 -1.675556,-0.14186 0,-0.1576 0.579876,-0.23887 1.704396,-0.23887 h 1.70439 l -0.064,-1.11125 -0.064,-1.11125 -3.492503,0.0638 c -2.777339,0.0507 -3.541553,0.12783 -3.732049,0.37664 -0.210623,0.27509 -0.254553,0.27379 -0.363775,-0.0108 -0.103348,-0.26933 -0.625396,-0.32372 -3.106691,-0.32372 -1.934413,0 -2.936498,-0.0744 -2.851651,-0.21167 0.07665,-0.12402 1.301595,-0.21167 2.958185,-0.21167 2.073292,0 2.851121,-0.0706 2.916422,-0.26458 0.06926,-0.20578 0.167957,-0.19944 0.444106,0.0285 0.281743,0.23258 0.933503,0.26609 3.156505,0.16229 1.540801,-0.0719 3.111011,-0.1324 3.489361,-0.13435 0.53609,-0.003 0.68792,-0.0933 0.68792,-0.41006 0,-0.54421 0.97425,-0.74777 2.11225,-0.44134 0.48272,0.12998 1.13363,0.2698 1.44646,0.3107 2.58494,0.33797 4.18122,0.58629 4.3199,0.672 0.23308,0.14405 0.20558,1.34682 -0.0308,1.34682 -0.10753,0 -0.65522,-0.0928 -1.21708,-0.20618 -0.56186,-0.1134 -1.97406,-0.35602 -3.13823,-0.53916 -1.16417,-0.18314 -2.33098,-0.37792 -2.59292,-0.43285 -0.4522,-0.0948 -0.47625,-0.0355 -0.47625,1.17416 v 1.27403 h 2.54 c 2.37315,0 2.54,-0.027 2.54,-0.41084 0,-0.59171 0.30757,-0.70314 1.49143,-0.54032 0.88837,0.12219 1.04851,0.21395 1.04819,0.60061 -4.3e-4,0.41679 0.10525,0.45471 1.21708,0.43706 1.21106,-0.0192 1.21173,-0.0189 0.12667,0.0629 -0.96504,0.0727 -1.10658,0.14506 -1.22765,0.62742 -0.11771,0.46902 -0.17234,0.50003 -0.39086,0.22185 -0.38623,-0.49168 -2.23281,-0.78698 -4.92111,-0.78698 h -2.42375 v 1.72611 1.7261 l -0.85558,0.8139 c -0.84315,0.80207 -1.83463,1.06689 -2.44069,0.6519 z m -17.879208,-0.80113 c -0.22446,-0.27046 -0.213301,-0.38714 0.0635,-0.66394 0.379541,-0.37955 0.947703,-0.24668 1.145125,0.26779 0.243914,0.63563 -0.741752,0.9587 -1.208627,0.39615 z m 21.970138,-0.14812 c -0.17208,-0.46794 0.0737,-0.79375 0.59882,-0.79375 0.40451,0 0.51152,0.1107 0.51152,0.52917 0,0.41702 -0.10734,0.52916 -0.50652,0.52916 -0.27858,0 -0.5503,-0.11906 -0.60382,-0.26458 z m -35.578544,-0.0882 c -0.07761,-0.0776 -0.141111,-0.29595 -0.141111,-0.4852 0,-0.31406 -0.886659,-0.33677 -10.16,-0.26024 -7.319926,0.0604 -10.16,0.0185 -10.16,-0.1498 0,-0.16041 1.078135,-0.23685 3.439583,-0.24386 1.891771,-0.006 6.51821,-0.0294 10.280976,-0.0529 l 6.84139,-0.0427 -0.120973,-0.60854 c -0.06654,-0.3347 -0.120976,-0.83476 -0.120976,-1.11125 v -0.50271 h -4.445 c -2.707771,0 -4.445,-0.0797 -4.445,-0.20379 0,-0.24344 7.812841,-0.3775 12.276666,-0.21066 3.024118,0.11303 3.452688,0.19747 1.375833,0.2711 -1.051841,0.0373 -1.058462,0.042 -1.079499,0.76128 -0.01374,0.47008 -0.18288,0.8547 -0.482558,1.09737 l -0.461389,0.37361 0.694222,0.0668 c 0.381824,0.0367 1.241912,0.0345 1.911308,-0.005 l 1.217083,-0.0717 v -2.41537 -2.41537 h -0.881945 c -0.485068,0 -0.813336,-0.0686 -0.72948,-0.15246 0.08386,-0.0839 0.484956,-0.12382 0.891335,-0.0888 l 0.738871,0.0637 -0.03982,-2.54096 -0.03982,-2.54096 -3.779575,0.10584 c -2.622029,0.0734 -3.779575,0.0361 -3.779575,-0.12191 0,-0.12526 0.119063,-0.23927 0.264584,-0.25337 0.14552,-0.0141 5.979583,-0.0569 12.964583,-0.0951 6.984999,-0.0382 17.194169,-0.12319 22.687041,-0.18881 6.15041,-0.0735 10.03434,-0.0428 10.11016,0.0799 0.0677,0.10956 -0.045,0.24946 -0.25038,0.31088 -0.20542,0.0614 -8.69618,0.13972 -18.868348,0.17399 -14.524594,0.0489 -18.516591,0.11894 -18.596093,0.3261 -0.05568,0.14509 -0.09421,0.47846 -0.08562,0.74084 0.0086,0.26237 0.01681,1.21809 0.01827,2.12381 l 0.0026,1.64677 2.702829,-0.0593 2.702831,-0.0593 -0.06172,-0.94366 c -0.03394,-0.51901 -0.11351,-0.99526 -0.17682,-1.05833 -0.06331,-0.0631 -1.154722,-0.10045 -2.425367,-0.0831 -1.270646,0.0174 -2.310264,-0.054 -2.310264,-0.15875 0,-0.1047 1.214438,-0.20414 2.69875,-0.22098 4.147932,-0.047 4.60767,-0.026 4.555511,0.20877 -0.04897,0.2204 1.260687,0.53319 3.276156,0.78246 0.611187,0.0756 1.11125,0.20086 1.11125,0.27837 0,0.0775 0.309562,0.14002 0.687916,0.13889 0.593213,-0.002 0.687917,0.0708 0.687917,0.52712 0,0.29351 -0.117828,0.51974 -0.264583,0.508 -0.145521,-0.0116 -0.455084,-0.0355 -0.687917,-0.0529 -0.232833,-0.0175 -0.423333,-0.17463 -0.423333,-0.34925 0,-0.17463 -0.09525,-0.3175 -0.211667,-0.3175 -0.116417,0 -0.211667,0.0953 -0.211667,0.21166 0,0.3485 -0.673017,0.23926 -0.978058,-0.15875 -0.236328,-0.30835 -0.316457,-0.32091 -0.478223,-0.075 -0.123888,0.18834 -0.336338,0.23789 -0.586107,0.13671 -0.215477,-0.0873 -0.820403,-0.17948 -1.344278,-0.20484 -0.523875,-0.0254 -1.309688,-0.12129 -1.74625,-0.21317 l -0.79375,-0.16707 v 1.39939 c 0,0.79181 -0.0919,1.39939 -0.211667,1.39939 -0.116416,0 -0.211666,-0.23813 -0.211666,-0.52917 v -0.52916 h -2.645834 -2.645833 v 1.03365 c 0,1.2239 -0.08292,1.1902 3.123792,1.26944 2.095696,0.0518 2.177829,0.0366 2.36769,-0.43681 0.194575,-0.48519 0.196829,-0.48549 0.2101,-0.0278 0.01283,0.44199 0.09467,0.46089 1.832858,0.42334 1.000692,-0.0216 1.863564,0.0321 1.917493,0.11944 0.05393,0.0873 -0.76482,0.15875 -1.819441,0.15875 -1.276667,0 -1.917492,0.0794 -1.917492,0.23758 0,0.16372 -0.08226,0.17068 -0.264583,0.0224 -0.145521,-0.11835 -1.436402,-0.2261 -2.868628,-0.23945 l -2.604041,-0.0243 0.06404,1.11312 0.06404,1.11312 0.846667,0.10583 c 1.753481,0.21918 0.241766,0.44638 -2.899914,0.43582 -3.088102,-0.0104 -3.252855,0.0108 -4.018483,0.51751 -0.883943,0.58497 -0.889821,0.58706 -1.089658,0.38722 z m 1.491795,-2.31799 c 1.724908,-0.9436 1.74788,-1.06156 0.233809,-1.20063 -0.735651,-0.0676 -1.406493,-0.0553 -1.490759,0.0272 -0.14245,0.13955 0.01693,1.72751 0.173395,1.72751 0.03884,0 0.526444,-0.24935 1.083555,-0.55411 z m 8.702065,2.31632 c -0.194807,-0.0515 -0.511843,-0.33428 -0.704524,-0.62834 -0.328383,-0.50118 -0.326354,-0.56117 0.0324,-0.95758 0.485815,-0.53682 1.639672,-1.02296 2.428003,-1.02296 0.335035,0 0.609151,-0.0953 0.609151,-0.21167 0,-0.11641 0.102817,-0.21166 0.228486,-0.21166 0.144539,0 0.17856,0.25273 0.0926,0.68791 -0.254201,1.28688 -0.555267,1.78442 -1.29253,2.13599 -0.757633,0.36129 -0.794383,0.36679 -1.393582,0.20831 z m 47.238364,-0.36373 c 0,-0.61367 0.45889,-0.83309 0.96631,-0.46205 0.50926,0.37237 0.24426,0.96857 -0.4305,0.96857 -0.42403,0 -0.53581,-0.10567 -0.53581,-0.50652 z m -115.993334,-0.1363 c -0.5238749,-0.0772 -0.9048749,-0.15822 -0.8466666,-0.18015 0.369473,-0.13922 6.1813026,-0.12543 6.2680076,0.0149 0.05884,0.0952 -0.303458,0.17549 -0.805099,0.17842 -0.501641,0.003 -1.5312,0.0327 -2.287909,0.0662 -0.756708,0.0335 -1.804458,-0.002 -2.328333,-0.0794 z m 101.917494,-0.83886 c -0.0791,-0.12802 0.21364,-0.21167 0.74084,-0.21167 0.5272,0 0.81995,0.0836 0.74083,0.21167 -0.072,0.11642 -0.40532,0.21167 -0.74083,0.21167 -0.33551,0 -0.66889,-0.0953 -0.74084,-0.21167 z m 11.53584,-0.21167 c 0.41547,-0.2685 1.20989,-0.2685 1.37583,0 0.0796,0.12877 -0.2264,0.2104 -0.78126,0.20843 -0.66687,-0.002 -0.82672,-0.0584 -0.59457,-0.20843 z m -95.122281,-1.71883 c -0.132574,-0.92969 -0.102301,-2.07267 0.07595,-2.86765 0.0044,-0.0196 0.328801,-0.23393 0.720894,-0.47625 0.949793,-0.58701 2.249335,-0.59635 2.40077,-0.0173 0.06089,0.23284 0.194846,0.42334 0.297684,0.42334 0.872289,0 -1.146503,1.38664 -2.300103,1.57986 -0.692155,0.11594 -0.899584,0.244 -0.899584,0.55541 0,0.3648 0.167058,0.40473 1.693334,0.40473 0.987778,0 1.693333,0.0882 1.693333,0.21166 0,0.12333 -0.700869,0.21167 -1.679275,0.21167 -1.672145,0 -1.6796,0.002 -1.756316,0.58208 -0.05395,0.40759 -0.127902,0.22545 -0.246689,-0.60758 z m 60.595546,0.39592 c -0.01378,-0.14553 -0.01378,-0.33603 0,-0.42334 0.01378,-0.0873 -0.232109,-0.15875 -0.546434,-0.15875 -0.413303,0 -0.507482,-0.064 -0.340225,-0.23127 0.331722,-0.33173 1.123391,0.13483 1.123391,0.66205 0,0.45396 -0.196181,0.57934 -0.236732,0.15131 z M 9.379765,285.0437 c 0.246076,-0.24608 3.294673,-0.35655 3.438035,-0.12459 0.10229,0.16551 -0.401462,0.23512 -1.70163,0.23512 -1.015815,0 -1.7971972,-0.0497 -1.736405,-0.11053 z m 4.775441,-0.0598 c -0.983973,-0.0631 -1.005417,-0.0795 -1.005417,-0.76521 0,-0.38836 0.195545,-0.94928 0.438696,-1.2584 l 0.438696,-0.55771 h -0.473973 c -0.260686,0 -0.405814,-0.0682 -0.322507,-0.15147 0.148215,-0.14821 0.361442,-0.17142 2.194505,-0.2388 0.74745,-0.0275 0.899583,-0.10466 0.899583,-0.4564 0,-0.65086 0.420043,-0.50192 0.447708,0.15875 0.05617,1.34129 -0.346948,2.25356 -1.101643,2.49309 -0.686094,0.21776 -0.446357,0.50916 0.336435,0.40894 0.407459,-0.0522 0.740834,-0.0102 0.740834,0.0933 0,0.2301 -1.237846,0.36087 -2.592917,0.27392 z m 0.815799,-2.31233 c -0.07034,-0.0703 -0.120363,0.0547 -0.111172,0.27781 0.01016,0.24658 0.06031,0.29674 0.127882,0.12789 0.06114,-0.1528 0.05363,-0.33536 -0.01671,-0.4057 z m 4.052534,2.12163 c 0.261938,-0.0505 0.690563,-0.0505 0.9525,0 0.261938,0.0505 0.04763,0.0917 -0.47625,0.0917 -0.523875,0 -0.738187,-0.0413 -0.47625,-0.0917 z m 2.07882,-0.20518 c -0.218354,-0.56902 -0.127292,-1.0619 0.295498,-1.59939 0.229019,-0.29115 0.356019,-0.58974 0.282222,-0.66354 -0.0738,-0.0738 0.286509,-0.1443 0.800682,-0.15668 1.764358,-0.0425 1.785186,-0.0494 1.728929,-0.57188 -0.03034,-0.28184 0.03682,-0.43328 0.15875,-0.35792 0.649825,0.40161 -0.109008,2.54448 -1.100241,3.10696 -0.466526,0.26473 -0.446454,0.2822 0.464923,0.40444 0.740347,0.0993 0.566907,0.13058 -0.778681,0.14042 -1.345995,0.01 -1.75808,-0.0574 -1.852082,-0.30241 z m 5.170763,0.27188 c 0,-0.16951 1.511497,-0.25196 1.612841,-0.088 0.05801,0.0939 -0.281144,0.17067 -0.753681,0.17067 -0.472538,0 -0.85916,-0.0372 -0.85916,-0.0827 z m 59.266666,-0.34065 c 0,-0.25502 1.417366,-0.25502 2.010833,0 0.304578,0.13088 0.08191,0.18608 -0.79375,0.19678 -0.680195,0.008 -1.217083,-0.0785 -1.217083,-0.19678 z m 4.712493,-0.15189 c 0.321746,-0.0487 0.797996,-0.0473 1.058333,0.003 0.260338,0.0502 -0.0029,0.09 -0.584993,0.0885 -0.582084,-0.002 -0.795086,-0.0427 -0.47334,-0.0914 z m 6.082506,-0.0598 c 0,-0.12302 0.642722,-0.20544 1.534584,-0.19679 1.053839,0.0102 1.401963,0.0719 1.11125,0.19679 -0.594928,0.25565 -2.645834,0.25565 -2.645834,0 z m 26.987503,-0.21167 c 0.0798,-0.12906 1.69553,-0.21166 4.13999,-0.21166 2.53167,0 4.00917,0.078 4.00917,0.21166 0,0.1339 -1.52111,0.21167 -4.13999,0.21167 -2.70609,0 -4.09468,-0.0733 -4.00917,-0.21167 z m -34.42313,-0.18571 c -0.0432,-0.12849 -0.578602,-0.35231 -1.189789,-0.49738 -1.121527,-0.2662 -1.295076,-0.49658 -0.984259,-1.30655 0.100182,-0.26107 0.216986,-0.28278 0.553265,-0.1028 0.234451,0.12547 0.748805,0.19048 1.143009,0.14446 0.406326,-0.0474 0.724181,0.0125 0.733931,0.1384 0.09078,1.17232 0.08484,1.43282 -0.03714,1.63018 -0.09915,0.16043 -0.163587,0.15858 -0.21902,-0.006 z m 0.02729,-1.20261 c 0,-0.0513 -0.09525,-0.0933 -0.211667,-0.0933 -0.116416,0 -0.211666,0.10087 -0.211666,0.22415 0,0.12329 0.09525,0.16529 0.211666,0.0934 0.116417,-0.072 0.211667,-0.17283 0.211667,-0.22416 z m -23.124394,0.68359 c -0.08721,-0.21298 -0.100694,-0.6178 -0.02997,-0.89959 0.124707,-0.49687 0.09237,-0.51234 -1.071014,-0.51234 -0.69164,0 -1.147727,-0.0839 -1.077092,-0.19824 0.07102,-0.1149 1.032786,-0.14908 2.28791,-0.0813 2.328716,0.12573 3.022221,0.27956 1.260341,0.27956 h -1.081439 l -0.06509,0.89958 c -0.04651,0.6428 -0.110348,0.78905 -0.223649,0.51235 z m 2.956115,-0.49102 c -0.280532,-0.45391 0.203736,-2.18077 0.770501,-2.74753 0.304059,-0.30406 0.501076,-0.63659 0.437815,-0.73894 -0.06326,-0.10236 0.40415,-0.18611 1.038691,-0.18611 1.045316,0 1.165845,0.0483 1.28284,0.51448 0.15542,0.61925 -0.178859,1.59565 -0.554245,1.6189 -0.148402,0.009 0.01594,0.12825 0.365178,0.26458 0.582034,0.2272 0.48566,0.2567 -1.155453,0.35371 -1.695761,0.10023 -1.796988,0.1337 -1.91404,0.63286 -0.07394,0.31532 -0.18292,0.43103 -0.271287,0.28805 z M 9.2339561,282.40256 c -0.083319,-0.13482 0.5269687,-0.21167 1.6808409,-0.21167 1.066662,0 1.811659,0.087 1.811659,0.21167 0,0.12334 -0.701392,0.21167 -1.680841,0.21167 -0.924463,0 -1.7397094,-0.0953 -1.8116589,-0.21167 z m 8.7312499,-0.15499 c 0.494771,-0.0446 1.304396,-0.0446 1.799166,0 0.494771,0.0446 0.08996,0.081 -0.899583,0.081 -0.989541,0 -1.394354,-0.0365 -0.899583,-0.081 z m 7.46125,-0.0567 c 0,-0.11641 0.238125,-0.21166 0.529166,-0.21166 0.291042,0 0.529167,0.0953 0.529167,0.21166 0,0.11642 -0.238125,0.21167 -0.529167,0.21167 -0.291041,0 -0.529166,-0.0953 -0.529166,-0.21167 z m 7.139721,0.0728 c 0.143305,-0.058 0.429055,-0.0615 0.635,-0.008 0.205946,0.0537 0.0887,0.1011 -0.260555,0.10541 -0.34925,0.004 -0.517749,-0.0396 -0.374445,-0.0976 z m 20.220688,-0.28505 c 0.785832,-0.23637 2.48459,-0.22393 2.48459,0.0182 0,0.10672 -0.690563,0.18584 -1.534583,0.17584 -1.162812,-0.0138 -1.392964,-0.0608 -0.950007,-0.19403 z m 7.045289,0.0165 c -0.09626,-0.15574 0.442508,-0.22762 1.706253,-0.22762 1.015816,0 1.807248,0.036 1.758743,0.0801 -0.246361,0.22373 -3.336584,0.35531 -3.464996,0.14754 z m 22.1093,-0.23411 c 0,-0.13719 0.785508,-0.20713 2.116667,-0.18845 1.164167,0.0163 2.116667,0.1145 2.116667,0.21815 0,0.10365 -0.9525,0.18846 -2.116667,0.18846 -1.311948,0 -2.116667,-0.0829 -2.116667,-0.21816 z m 29.739166,-0.20518 c 0.5927,-0.25469 1.79917,-0.25469 1.79917,0 0,0.11642 -0.50007,0.20497 -1.11125,0.19679 -0.81613,-0.0109 -0.99883,-0.0632 -0.68792,-0.19679 z m -47.866227,-0.95321 c -0.07287,-0.18988 -0.02459,-0.45314 0.10729,-0.58502 0.149458,-0.14945 0.239772,-0.1579 0.239772,-0.0224 0,0.12262 0.28579,0.1754 0.655732,0.1211 0.552374,-0.0811 0.643852,-0.0336 0.58035,0.30124 -0.101481,0.53511 -1.39098,0.68588 -1.583144,0.18511 z m 31.710708,-0.25138 c -0.02034,-0.37148 -0.141753,-0.74018 -0.269809,-0.81932 -0.128057,-0.0791 -1.458109,-0.13591 -2.955671,-0.12614 -2.666069,0.0174 -3.827429,-0.23747 -2.048089,-0.44944 1.876954,-0.22361 15.608258,-0.18244 15.608258,0.0468 0,0.1518 -1.63913,0.22437 -5.06783,0.22437 h -5.067831 l -0.08102,0.89958 c -0.06357,0.70583 -0.08899,0.75411 -0.118004,0.22416 z M 9.3701079,279.88679 c -0.5032773,-0.32067 0.076715,-0.44914 1.6517651,-0.36584 1.882848,0.0996 2.22803,0.34161 0.487172,0.34161 -0.708381,0 -1.414818,0.0466 -1.5698607,0.10361 -0.1550422,0.057 -0.4111265,0.0213 -0.5690764,-0.0794 z m 33.6246811,-0.44757 c 0,-0.11641 0.428625,-0.21166 0.9525,-0.21166 0.523875,0 0.9525,0.0953 0.9525,0.21166 0,0.11642 -0.428625,0.21167 -0.9525,0.21167 -0.523875,0 -0.9525,-0.0953 -0.9525,-0.21167 z m 25.982082,-0.14018 c 0.145521,-0.0587 0.383646,-0.0587 0.529167,0 0.145521,0.0587 0.02646,0.10676 -0.264583,0.10676 -0.291042,0 -0.410105,-0.048 -0.264584,-0.10676 z m 3.862917,-0.0715 c 0,-0.11642 0.434247,-0.21167 0.964992,-0.21167 0.589429,0 0.914079,0.0824 0.834174,0.21167 -0.07195,0.11641 -0.506196,0.21166 -0.964992,0.21166 -0.458796,0 -0.834174,-0.0952 -0.834174,-0.21166 z m 11.79403,-0.15467 c 0.491257,-0.0444 1.348507,-0.0449 1.905,-0.001 0.556491,0.0437 0.154553,0.0801 -0.893197,0.0807 -1.04775,6.3e-4 -1.503062,-0.0351 -1.011803,-0.0795 z m 3.287219,0.009 c 0.20373,-0.0532 0.537105,-0.0532 0.740834,0 0.203729,0.0532 0.03704,0.0968 -0.370417,0.0968 -0.407458,0 -0.574146,-0.0436 -0.370417,-0.0968 z m -52.718304,-1.38868 c 0.04974,-0.35774 -0.0522,-0.49306 -0.409678,-0.54384 -0.293205,-0.0416 -0.524313,-0.26048 -0.60201,-0.57005 -0.171433,-0.68304 0.0384,-0.94986 0.746984,-0.94986 0.705634,0 1.128309,0.41269 0.862754,0.84237 -0.108443,0.17546 -0.09737,0.46233 0.0268,0.69434 0.147434,0.27549 0.135098,0.48752 -0.04069,0.69932 -0.375077,0.45195 -0.659301,0.36812 -0.58416,-0.17228 z m -0.03961,-1.32291 c 0,-0.17463 -0.08506,-0.3175 -0.18902,-0.3175 -0.103963,0 -0.243847,0.14287 -0.310858,0.3175 -0.07422,0.1934 -4.24e-4,0.3175 0.18902,0.3175 0.170972,0 0.310858,-0.14288 0.310858,-0.3175 z m -1.058333,1.27 c 0,-0.17463 0.09525,-0.3175 0.211666,-0.3175 0.116417,0 0.211667,0.14287 0.211667,0.3175 0,0.17462 -0.09525,0.3175 -0.211667,0.3175 -0.116416,0 -0.211666,-0.14288 -0.211666,-0.3175 z m -8.926908,-0.53821 c -1.110734,-0.26146 0.1647,-0.37083 4.111491,-0.35255 2.299229,0.0106 4.180417,0.0964 4.180417,0.19048 0,0.14624 -1.594392,0.2085 -6.812375,0.26602 -0.545347,0.006 -1.211138,-0.0408 -1.479533,-0.10395 z m 15.065241,-0.22472 c 0,-0.10427 1.100997,-0.18957 2.446659,-0.18957 1.626036,0 2.401426,0.0732 2.311804,0.2182 -0.166801,0.26988 -4.758463,0.24226 -4.758463,-0.0286 z m -2.272506,-0.12979 c 0.321746,-0.0487 0.797996,-0.0473 1.058333,0.003 0.260337,0.0502 -0.0029,0.09 -0.584994,0.0885 -0.582083,-0.002 -0.795085,-0.0427 -0.473339,-0.0914 z M 30.29479,275.3614 c 0,-0.30783 1.988409,-1.56238 3.362149,-2.12128 0.533781,-0.21717 1.493097,-0.38281 2.250711,-0.38862 1.574366,-0.0121 3.91214,0.58947 3.91214,1.00667 0,0.3567 0.03428,0.35761 -1.058334,-0.0279 -1.963163,-0.69265 -4.814112,-0.26863 -7.016982,1.04361 -1.427501,0.85036 -1.449684,0.85782 -1.449684,0.48751 z M 2.0533823,269.20873 c -0.6542498,-0.65425 -0.6946292,-1.2618 -0.1219261,-1.83451 0.5123593,-0.51236 0.9149643,-0.53646 1.3694366,-0.082 0.3140106,0.31401 0.3135475,0.38376 -0.00578,0.87112 -0.3017708,0.46056 -0.3073891,0.56952 -0.043,0.83391 0.2511389,0.25114 0.40525,0.25805 0.8845469,0.0397 0.800427,-0.3647 1.3931322,-1.61697 1.3931322,-2.94341 v -1.08591 l -2.1695833,0.0721 c -1.8194322,0.0604 -2.1695833,0.0208 -2.1695833,-0.24545 0,-0.24357 0.209457,-0.30094 0.8995833,-0.24638 1.0315814,0.0815 1.1128151,-0.0541 0.3783142,-0.63189 -0.2866983,-0.22551 -0.7147403,-0.68173 -0.9512048,-1.01382 -0.3811781,-0.53531 -0.405592,-0.73215 -0.2152785,-1.73567 0.1457433,-0.7685 0.1453275,-1.15499 -0.0013,-1.20386 -0.37182211,-0.12394 -0.2352539,-0.67171 0.1674689,-0.67171 0.2108816,0 0.5689463,-0.16669 0.7956993,-0.37042 0.226753,-0.20373 0.786567,-0.69285 1.2440314,-1.08694 l 0.8317532,-0.71653 -1.6274526,0.1525 c -1.5767528,0.14776 -1.6274525,0.13817 -1.6274525,-0.30788 0,-0.44786 0.048293,-0.45638 1.7725711,-0.31274 1.0051713,0.0837 1.8237033,0.0649 1.890678,-0.0435 0.064959,-0.10511 0.062703,-0.60416 -0.00501,-1.10902 L 4.619908,254.6185 2.8523487,254.72877 c -1.6308496,0.10174 -1.7675591,0.0793 -1.7675591,-0.28964 0,-0.36073 0.1762376,-0.39991 1.7991666,-0.39991 1.7478351,0 1.7991666,-0.0142 1.7991666,-0.49786 0,-0.81887 0.8982712,-1.94592 1.4978651,-1.87935 0.6499614,0.0722 0.9750683,0.50716 1.1491601,1.5376 0.1154502,0.68335 0.2288161,0.82522 0.7032235,0.88006 0.7855103,0.0908 0.7096185,0.47477 -0.1095184,0.55409 -0.5430842,0.0526 -0.7810889,0.24623 -1.2170833,0.99019 -0.2980891,0.50865 -0.5419803,0.9808 -0.5419803,1.04922 0,0.0684 1.3916697,0.0876 3.0925995,0.0427 3.60053,-0.0951 3.765754,-0.18267 3.152935,-1.67125 -0.207137,-0.50315 0.352455,-0.49167 0.812493,0.0167 0.39283,0.43407 0.458506,1.00273 0.138639,1.20041 -0.600058,0.37086 0.130048,0.44742 3.757083,0.39399 12.196011,-0.17968 22.489583,-0.12152 22.489583,0.12706 0,0.19619 -5.161257,0.33624 -8.815392,0.2392 l -1.089558,-0.0289 -0.07738,0.97298 c -0.04256,0.53514 -0.02851,1.03734 0.03122,1.11601 0.05973,0.0787 1.652266,0.14242 3.538959,0.14168 3.560273,-10e-4 4.117498,-0.12699 3.719434,-0.83829 -0.177675,-0.31749 -0.222993,-0.31946 -0.471185,-0.0204 -0.376708,0.4539 -0.927955,0.4147 -1.392896,-0.0991 -0.359924,-0.39771 -0.363178,-0.45582 -0.04343,-0.77557 0.280876,-0.28087 0.405509,-0.29596 0.665099,-0.0805 0.198916,0.16509 0.562327,0.21178 0.963124,0.12375 0.64171,-0.14094 0.64367,-0.13851 0.64367,0.79859 0,0.8885 0.02898,0.93443 0.529166,0.83881 0.308896,-0.059 0.529167,-0.003 0.529167,0.13519 0,0.23268 -0.273795,0.31966 -0.79375,0.25214 -0.184114,-0.0239 -0.264583,0.32425 -0.264583,1.14474 v 1.17911 l 3.112787,-0.0586 3.112786,-0.0586 0.146948,-0.52917 c 0.124904,-0.44979 0.154017,-0.40216 0.194073,0.3175 0.121651,2.18558 -0.0074,2.94687 -0.59671,3.52006 -0.328568,0.31958 -0.918804,0.60829 -1.385642,0.67777 -0.666957,0.0993 -0.895419,0.034 -1.27,-0.36309 -0.454473,-0.48173 -0.481683,-0.48382 -5.475526,-0.41997 -2.760332,0.0353 -5.06741,-0.0145 -5.126842,-0.11068 -0.166717,-0.26975 2.361127,-0.44343 6.478135,-0.44508 3.659579,-10e-4 3.754225,-0.0128 4.356878,-0.51987 0.348099,-0.2929 1.067766,-0.59409 1.654639,-0.69248 0.727538,-0.12197 1.059703,-0.2837 1.109057,-0.53998 0.07952,-0.41291 0.270724,-0.40467 -8.499064,-0.36628 -3.324441,0.0146 -4.791458,-0.0482 -4.697093,-0.20087 0.08609,-0.13929 1.345415,-0.22203 3.379565,-0.22203 h 3.242342 l -0.107997,-1.00542 c -0.0594,-0.55298 -0.129768,-1.03192 -0.156379,-1.06432 -0.02661,-0.0324 -1.633258,-0.08 -3.570326,-0.10583 l -3.52194,-0.0469 -0.01429,0.635 c -0.0079,0.34925 -0.0021,1.41627 0.013,2.37116 0.01501,0.95489 -0.07656,1.93022 -0.203492,2.1674 -0.565832,1.05726 -2.796085,1.47203 -3.195966,0.59436 -0.210151,-0.46124 -0.309653,-0.47599 -3.157402,-0.46796 -2.544486,0.007 -2.998017,0.0604 -3.368218,0.39545 -0.235293,0.21293 -0.85687,0.43552 -1.381281,0.49463 -0.880313,0.0992 -0.97377,0.0629 -1.217956,-0.473 l -0.264483,-0.58047 -4.558551,0.12356 c -2.5072028,0.068 -4.9533847,0.12667 -5.4359595,0.13047 l -0.8774089,0.007 0.011094,1.21708 c 0.018311,2.0089 -0.8510577,3.20259 -2.4649277,3.3845 -0.8113465,0.0915 -1.0221123,0.0294 -1.490256,-0.43874 z m 3.435088,-5.59159 c -0.063892,-0.99572 -0.072166,-1.00605 -0.8582641,-1.07111 -0.9641453,-0.0798 -1.0037966,0.16882 -0.1425099,0.89354 0.4048301,0.34065 0.5306833,0.54799 0.3326191,0.54799 -0.3576519,0 -0.8773416,-0.4638 -1.2043591,-1.07484 -0.2231306,-0.41692 -0.8378334,-0.56742 -0.8378334,-0.20512 0,0.891 1.2074482,1.89947 2.287014,1.91014 0.4504868,0.004 0.4829069,-0.0722 0.4233334,-1.0006 z m 6.3384027,0.80762 c 0.363191,-0.0106 0.47625,-0.13949 0.47625,-0.54304 0,-0.49388 -0.07056,-0.52916 -1.058334,-0.52916 -0.999507,0 -1.3416041,-0.22328 -0.828226,-0.54057 0.126558,-0.0782 0.183101,-0.32196 0.125649,-0.54165 -0.06232,-0.23832 0.0052,-0.39945 0.167309,-0.39945 0.149472,0 0.390343,-0.14287 0.535268,-0.3175 0.144926,-0.17462 0.3441,-0.3175 0.442608,-0.3175 0.09851,0 0.12428,0.14288 0.05727,0.3175 -0.08134,0.21198 0.0088,0.3175 0.271226,0.3175 0.260799,0 0.399548,-0.16026 0.412337,-0.47625 0.0106,-0.26194 0.07573,-0.73819 0.144733,-1.05833 l 0.125459,-0.58209 h -1.890983 c -1.1195441,0 -1.8909829,-0.0863 -1.8909829,-0.21166 0,-0.11642 0.3911907,-0.21167 0.8693126,-0.21167 0.7465163,0 0.8471723,-0.0523 0.7125723,-0.37042 -0.391888,-0.92613 0.139541,-1.80859 0.7323,-1.21601 0.263354,0.26327 0.254061,0.35772 -0.07048,0.71633 -0.359141,0.39685 -0.355453,0.42291 0.09384,0.66336 1.070108,0.57271 2.161341,-0.8201 1.347285,-1.71962 -0.367702,-0.40631 -0.551069,-0.42074 -3.6756735,-0.28917 -1.8087657,0.0762 -3.3604009,0.1828 -3.4480783,0.23699 -0.087677,0.0542 -0.1594134,0.52153 -0.1594134,1.03853 v 0.94001 h 1.3758333 c 0.7761112,0 1.3758333,0.0923 1.3758333,0.21167 0,0.11641 -0.1984375,0.21166 -0.4409721,0.21166 -0.2425349,0 -0.4092224,0.0735 -0.3704167,0.16338 0.8192359,1.89702 1.1001119,2.15588 2.3459721,2.16207 0.3201458,0.002 0.5820833,0.11108 0.5820833,0.24332 0,0.16344 -0.3071211,0.19835 -0.9589426,0.109 -0.8930107,-0.1224 -0.9734152,-0.0934 -1.1694382,0.42221 -0.1157728,0.30451 -0.4085781,0.83183 -0.6506788,1.17183 l -0.4401831,0.61818 2.1917046,-0.10279 c 1.2054381,-0.0565 2.4060171,-0.10904 2.6679551,-0.11666 z m 5.497659,-0.26992 c 0.265058,-0.24901 0.481924,-0.38171 0.481924,-0.29489 0,0.0868 0.158466,-6.2e-4 0.352148,-0.1943 0.236859,-0.23686 0.547781,-0.31302 0.949705,-0.23264 0.44266,0.0885 0.708017,9.5e-4 1.023685,-0.33788 l 0.426128,-0.4574 v 0.88658 0.88658 h 2.790942 c 2.587267,0 2.827246,-0.0341 3.288426,-0.46736 0.306988,-0.2884 0.87957,-0.51129 1.495308,-0.58209 0.818473,-0.0941 0.997824,-0.19081 0.997824,-0.53805 0,-0.40591 -0.176388,-0.42769 -4.286565,-0.52917 -2.357611,-0.0582 -4.310235,-0.0582 -4.339166,0 -0.02893,0.0582 -1.147977,0.0521 -2.486768,-0.0137 -1.338792,-0.0657 -2.386542,-0.15061 -2.328334,-0.18863 0.115271,-0.0753 1.843041,-0.17793 3.439583,-0.20437 0.858756,-0.0142 1.005417,-0.0784 1.005417,-0.43998 0,-0.23284 0.09525,-0.42334 0.211667,-0.42334 0.116416,0 0.211666,0.18506 0.211666,0.41124 0,0.38129 0.188846,0.41597 2.592917,0.47625 1.426104,0.0358 3.383788,0.0373 4.350406,0.003 l 1.757492,-0.0616 -0.06416,-0.99668 -0.06416,-0.99667 -4.286533,-0.10584 c -2.779323,-0.0686 -4.295004,-0.0314 -4.310624,0.10584 -0.01325,0.11641 -0.0054,0.38888 0.01755,0.60548 0.02591,0.24505 -0.06482,0.3581 -0.240209,0.29927 -0.155018,-0.052 -0.281851,-0.27683 -0.281851,-0.49964 0,-0.35533 -0.182078,-0.41173 -1.481667,-0.45895 -1.657685,-0.0602 -2.433929,-0.19619 -2.434652,-0.42645 -2.76e-4,-0.0851 0.862199,-0.12401 1.916593,-0.0865 l 1.917078,0.0682 -0.06451,-1.12657 -0.06451,-1.12657 -3.201417,-0.0314 -3.201416,-0.0314 0.223508,0.59214 c 0.178102,0.47185 0.150227,0.70398 -0.137213,1.14267 -0.347518,0.53038 -0.345048,0.55053 0.06749,0.55053 0.235517,0 0.428213,0.0952 0.428213,0.21167 0,0.11641 -0.250031,0.21166 -0.555625,0.21166 -0.509411,0 -0.544622,0.055 -0.423333,0.66146 0.07276,0.3638 0.132291,0.84005 0.132291,1.05834 0,0.25576 0.150519,0.39687 0.423334,0.39687 0.232833,0 0.423333,0.0953 0.423333,0.21167 0,0.11641 -0.1905,0.21166 -0.423333,0.21166 -0.235186,0 -0.423334,0.14112 -0.423334,0.3175 0,0.20029 0.201868,0.3175 0.546806,0.3175 0.663092,0 0.590515,0.4971 -0.08713,0.59681 -0.601185,0.0885 -0.590719,0.6368 0.01658,0.86869 0.261937,0.10002 1.092821,0.18883 1.846409,0.19736 1.121839,0.0127 1.457499,-0.0666 1.852083,-0.43724 z m -2.798909,-2.07228 c 0.07195,-0.11642 0.26807,-0.21167 0.435825,-0.21167 0.167754,0 0.305008,0.0953 0.305008,0.21167 0,0.11641 -0.196122,0.21166 -0.435825,0.21166 -0.239704,0 -0.376958,-0.0953 -0.305008,-0.21166 z m -0.105834,-2.54 c -0.232896,-0.15051 -0.09189,-0.20209 0.529167,-0.19355 0.665198,0.009 0.755932,0.0506 0.423333,0.19355 -0.556946,0.23933 -0.582166,0.23933 -0.9525,0 z m -7.5634632,4.49791 c 0.1835982,-0.20373 0.3991866,-0.63235 0.4790855,-0.9525 0.1407875,-0.56411 0.1184326,-0.58208 -0.7243421,-0.58208 -0.7615661,0 -0.8692539,0.0592 -0.8667227,0.47625 0.00807,1.32974 0.4706416,1.76999 1.1119793,1.05833 z m 5.4467972,-1.4007 c 0,-0.37871 -0.68083,-0.56102 -1.138555,-0.30486 -0.484472,0.27113 -0.288985,0.49226 0.487463,0.55143 0.440439,0.0336 0.651092,-0.0462 0.651092,-0.24657 z m -8.9576537,-0.89788 c 0.120153,-0.31312 0.1461474,-0.31312 0.3213746,0 0.1953345,0.34904 1.3298584,0.47783 1.5186315,0.17239 0.1586365,-0.25668 -0.1105154,-1.94839 -0.3099899,-1.94839 -0.096377,0 -0.4172104,0.26096 -0.7129634,0.57992 -0.4147765,0.44732 -0.5377326,0.49857 -0.5377326,0.22416 0,-0.19567 0.09525,-0.41463 0.2116667,-0.48658 0.298244,-0.18432 0.2634835,-0.5298 -0.052917,-0.52592 -0.5153325,0.006 -0.8265983,0.36806 -1.0077325,1.17119 -0.1008526,0.44717 -0.1359678,0.88972 -0.078034,0.98346 0.1737026,0.28106 0.5082627,0.19313 0.6476966,-0.17023 z m 3.7937782,0.0423 c 0.2416069,-0.62962 -0.6834843,-1.81827 -1.4151029,-1.81827 -0.2866625,0 -0.2365005,1.56652 0.059645,1.86267 0.3484693,0.34847 1.2156001,0.32007 1.3554579,-0.0444 z M 5.1032149,258.9605 c -0.00725,-0.829 -0.3237736,-0.91745 -0.9487579,-0.2651 l -0.6088693,0.63552 h 0.7804342 c 0.6033944,0 0.7796989,-0.084 0.777193,-0.37042 z m 23.8392781,0.22627 c 0.321958,-0.12355 0.395713,-1.27266 0.110551,-1.72238 -0.132539,-0.20902 -1.21347,-0.30588 -4.308263,-0.38605 l -4.131332,-0.10701 -0.100011,0.52317 c -0.05501,0.28775 -0.05663,0.81878 -0.0036,1.18008 l 0.09641,0.65691 4.021138,-0.016 c 2.211627,-0.009 4.153423,-0.0667 4.3151,-0.12876 z M 6.5881228,254.845 c 0,-0.22837 -0.9873344,-0.45131 -1.2579699,-0.28404 -0.2550998,0.15766 -0.3048218,1.44325 -0.065092,1.68298 0.155488,0.15549 1.3230614,-1.07905 1.3230619,-1.39894 z m 0.1058333,-1.52354 c 0,-0.83912 -0.6150709,-1.22337 -1.0459078,-0.6534 -0.1740541,0.23027 -0.3194914,0.63901 -0.3231938,0.90832 -0.00586,0.42602 0.082687,0.48104 0.681185,0.42334 0.6021825,-0.0581 0.6879166,-0.14259 0.6879166,-0.67826 z m 74.2420819,13.50031 c -0.342803,-0.15266 -0.342803,-1.26868 0,-1.56309 0.14552,-0.12497 0.439739,-0.34796 0.653821,-0.49551 0.317413,-0.21879 -0.610207,-0.25218 -5.027083,-0.18099 -3.882447,0.0626 -5.416321,0.0207 -5.416321,-0.14783 0,-0.15984 0.846372,-0.23513 2.643263,-0.23513 h 2.643266 l -0.0796,-0.68791 c -0.04378,-0.37836 -0.09024,-0.87842 -0.103232,-1.11125 -0.02258,-0.4046 -0.157101,-0.4214 -3.03991,-0.37956 -1.658956,0.0241 -4.278346,0.0479 -5.820867,0.0529 -2.448881,0.008 -2.804583,0.053 -2.804583,0.35456 0,0.18998 -0.340157,0.66623 -0.755904,1.05833 l -0.755904,0.71291 h 0.755904 c 0.415747,0 0.755904,0.0952 0.755904,0.21167 0,0.23829 -1.265216,0.27603 -10.424583,0.31096 l -6.297083,0.024 v -2.66498 -2.66498 l -0.740834,0.0865 c -0.450039,0.0525 -0.740833,0.20203 -0.740833,0.38083 0,0.37242 -0.207751,0.36389 -0.728372,-0.0299 -0.22598,-0.17093 -0.726042,-0.31077 -1.11125,-0.31077 -0.610265,0 -0.700378,0.0697 -0.700378,0.54166 0,0.31653 -0.09031,0.48584 -0.21728,0.40737 -0.119505,-0.0739 -0.190942,-0.29066 -0.15875,-0.48178 0.04997,-0.29666 -0.189181,-0.35072 -1.634803,-0.36954 -2.605879,-0.0339 -3.069167,-0.0806 -3.069167,-0.30938 0,-0.12601 0.800454,-0.21167 1.978027,-0.21167 2.235346,0 2.67864,-0.2392 2.67864,-1.44541 v -0.67125 h -1.680841 c -2.359918,0 -2.365019,-0.37748 -0.0062,-0.46115 2.821683,-0.10009 5.920407,0.0381 5.920407,0.264 0,0.10843 -0.85725,0.19715 -1.905,0.19715 -1.128888,0 -1.905,0.0862 -1.905,0.21166 0,0.11642 0.15298,0.21167 0.339958,0.21167 0.325037,0 2.017605,1.19862 2.164764,1.53301 0.03881,0.0882 0.400251,0.16032 0.803209,0.16032 h 0.732655 l -0.09491,-2.36415 c -0.0522,-1.30028 -0.05,-2.48118 0.0049,-2.62421 0.07353,-0.19163 1.140306,-0.26608 4.054196,-0.28294 2.174919,-0.0126 10.098025,-0.0704 17.6069,-0.12842 41.772056,-0.32288 61.806666,-0.36574 61.806666,-0.1322 0,0.15505 -0.50669,0.24188 -1.42875,0.24483 -8.81055,0.0282 -21.76671,0.24657 -21.88778,0.36892 -0.0847,0.0856 -0.0994,0.56049 -0.0326,1.05526 l 0.12149,0.89958 h 3.14713 3.14713 v -0.52917 c 0,-0.6585 0.36951,-0.70086 0.46153,-0.0529 l 0.0676,0.47625 8.96778,-0.0354 c 5.56614,-0.022 9.04699,-0.11466 9.17662,-0.24428 0.11997,-0.11998 0.14651,-0.57776 0.0624,-1.07581 -0.1388,-0.82155 -0.18522,-0.86696 -0.88634,-0.86696 -0.49765,0 -0.7111,-0.0866 -0.65199,-0.26459 0.0559,-0.1683 0.50523,-0.26458 1.23472,-0.26458 h 1.14685 l 0.14101,5.08 c 0.0776,2.794 0.098,5.23711 0.0454,5.42914 -0.0802,0.29296 -0.54565,0.37065 -2.89268,0.48285 -1.53839,0.0735 -4.13057,0.0966 -5.76041,0.0513 -2.71863,-0.0756 -3.00157,-0.0479 -3.4264,0.33541 -0.25469,0.2298 -0.88458,0.46533 -1.39976,0.5234 -0.80424,0.0907 -0.98511,0.0364 -1.27921,-0.38345 -0.32268,-0.46069 -0.45926,-0.48562 -2.35732,-0.43038 -1.33927,0.039 -2.01481,-0.0181 -2.01481,-0.17023 0,-0.21319 0.68447,-0.27156 3.12725,-0.2667 0.66209,10e-4 1.07632,-0.14257 1.54444,-0.53647 0.40001,-0.33659 0.99963,-0.57884 1.60032,-0.64655 0.99255,-0.11187 1.44274,-0.56931 0.90259,-0.91711 -0.16249,-0.10463 -0.95515,-0.16917 -1.76147,-0.14343 -1.05634,0.0337 -1.49196,-0.031 -1.55878,-0.23143 -0.0723,-0.21681 0.25135,-0.26389 1.46603,-0.21325 1.80691,0.0753 2.08796,-0.0414 2.08796,-0.86746 0,-1.29828 0.0706,-1.27482 -3.83265,-1.27482 -3.43457,0 -3.57569,0.0167 -3.57569,0.42334 0,0.23283 -0.0952,0.42333 -0.21166,0.42333 -0.11642,0 -0.21167,-0.14287 -0.21167,-0.3175 0,-0.26073 -0.41628,-0.32412 -2.32833,-0.35454 -1.28059,-0.0204 -2.6379,-0.0547 -3.01625,-0.0763 -1.11258,-0.0635 -1.24467,0.0653 -1.17468,1.14546 0.0538,0.83067 0.13547,0.98897 0.53968,1.04637 0.64795,0.092 0.60558,0.46153 -0.0529,0.46153 -0.43686,0 -0.52866,0.10154 -0.52628,0.58208 0.007,1.44127 0.11703,1.53459 1.80681,1.53459 h 1.54866 l -0.0168,-0.59106 c -0.009,-0.32509 0.0906,-0.79182 0.22195,-1.03718 0.19544,-0.36519 0.17226,-0.47783 -0.12779,-0.62095 -0.24123,-0.11507 0.20939,-0.21275 1.31813,-0.28574 1.57905,-0.10395 1.69313,-0.14408 1.81977,-0.64007 l 0.1351,-0.52917 0.0852,0.52548 c 0.0779,0.48012 0.17961,0.52579 1.17877,0.52917 0.60145,0.002 1.16501,0.0751 1.25236,0.16243 0.15522,0.15516 -1.02763,0.26512 -1.97549,0.18366 -0.34791,-0.0299 -0.47625,0.0725 -0.47625,0.3799 0,0.23145 -0.12897,0.497 -0.2866,0.59009 -0.26909,0.15893 -0.77173,0.94941 -0.77173,1.21369 0,0.0659 0.23813,0.11975 0.52917,0.11975 0.29104,0 0.52917,0.0868 0.52917,0.19285 0,0.10858 -1.61856,0.19389 -3.70417,0.19524 l -3.70417,0.002 v -1.23885 c 0,-1.43514 0.0302,-1.41901 -2.44645,-1.30591 -1.42597,0.0651 -1.50442,0.0959 -1.72391,0.67744 -0.12648,0.33507 -0.54957,0.80408 -0.94021,1.04224 l -0.71026,0.43302 0.89958,7.8e-4 c 0.49477,4.4e-4 0.89959,0.096 0.89959,0.21246 0,0.12324 -0.69801,0.21167 -1.67069,0.21167 -1.811506,0 -1.927643,-0.0768 -1.927643,-1.27531 0,-0.38595 0.170667,-0.72522 0.470433,-0.93519 l 0.47042,-0.3295 h -0.45793 c -0.251868,0 -0.516807,-0.0952 -0.588756,-0.21167 -0.08308,-0.13442 0.491686,-0.21166 1.575006,-0.21166 1.37518,0 1.70582,-0.0616 1.70582,-0.3175 0,-0.17463 0.0952,-0.3175 0.21167,-0.3175 0.11642,0 0.21167,0.14287 0.21167,0.3175 0,0.25931 0.35884,0.31757 1.95791,0.31791 l 1.95792,4.3e-4 -0.0657,-2.43459 -0.0657,-2.43459 h -0.87619 c -0.68148,0 -0.81974,0.0564 -0.62218,0.254 0.31174,0.31175 0.33359,1.15349 0.0347,1.3382 -0.1206,0.0745 -0.69572,-0.17022 -1.27805,-0.5439 -0.58233,-0.37368 -1.09667,-0.64153 -1.14298,-0.59522 -0.0463,0.0463 -0.0335,0.46337 0.0285,0.92681 l 0.11273,0.84261 1.77868,-0.0455 c 1.03303,-0.0264 1.77869,0.0401 1.77869,0.15875 0,0.1152 -0.78441,0.20424 -1.79917,0.20424 -1.78906,0 -1.79916,0.003 -1.79916,0.54166 0,0.30721 -0.0916,0.48504 -0.21167,0.41084 -0.11642,-0.072 -0.21167,-0.29801 -0.21167,-0.50236 0,-0.34036 -0.34203,-0.37412 -4.074576,-0.40215 -2.241021,-0.0168 -4.486241,0.02 -4.989379,0.0818 -0.909744,0.11177 -0.914237,0.11654 -0.813598,0.86333 0.211579,1.57003 -0.678953,2.60918 -2.229845,2.60199 -0.785931,-0.004 -1.019975,-0.13045 -1.353947,-0.73356 -0.198433,-0.35833 -0.124966,-0.5045 0.505354,-1.00541 0.455687,-0.36214 0.994071,-0.58613 1.408813,-0.58613 0.781317,0 1.519155,-0.46189 1.301198,-0.81455 -0.105523,-0.17074 -1.415284,-0.24378 -4.371505,-0.24378 h -4.220841 v 1.5875 c 0,0.87313 -0.08731,1.5875 -0.194029,1.5875 -0.106713,0 -0.225776,-0.0924 -0.264583,-0.20529 -0.07576,-0.22043 -5.749813,-0.43983 -6.067897,-0.23463 -0.313518,0.20225 -0.484513,1.00338 -0.338412,1.58549 l 0.137179,0.54656 3.195779,-0.0523 3.195777,-0.0523 0.146994,-0.52917 0.146994,-0.52916 0.0211,0.562 0.0211,0.56201 3.820952,-0.0657 c 2.82052,-0.0485 3.799505,-0.002 3.739045,0.17882 -0.05782,0.1726 -1.181735,0.24452 -3.820988,0.24452 h -3.739074 l -0.0076,0.52917 c -0.01298,0.90528 -0.830851,1.67492 -1.903417,1.79115 -0.520543,0.0564 -1.065504,0.0495 -1.211025,-0.0153 z m 1.344966,-1.71855 c -0.215164,-0.21517 -0.392695,0.10877 -0.216159,0.39441 0.133357,0.21578 0.183215,0.21595 0.254911,8.5e-4 0.04902,-0.14706 0.03158,-0.32493 -0.03875,-0.39527 z M 51.987555,263.762 c -0.08102,-0.36892 0.02406,-0.72525 0.327683,-1.11125 l 0.446943,-0.56819 h -0.473975 c -0.950805,0 -0.161006,-0.28249 0.918949,-0.32868 0.61149,-0.0261 1.278487,-0.0581 1.482217,-0.0711 0.203729,-0.0129 0.370416,-0.1608 0.370416,-0.32855 0,-0.16776 0.09525,-0.36388 0.211667,-0.43583 0.130617,-0.0807 0.211667,0.28545 0.211667,0.95629 0,0.91037 -0.09709,1.18419 -0.597163,1.68427 l -0.597164,0.59716 0.755914,0.12506 c 0.415752,0.0688 1.922725,0.12611 3.348829,0.12739 l 2.592917,0.002 v -0.82075 c 0,-0.49153 0.134821,-0.93264 0.336107,-1.09969 0.301014,-0.24982 0.284438,-0.30214 -0.15875,-0.50107 -0.404461,-0.18154 -0.180572,-0.23347 1.225641,-0.28428 l 1.720501,-0.0622 0.139577,-0.87287 c 0.07676,-0.48007 0.05698,-0.95546 -0.04398,-1.05641 -0.100954,-0.10096 -1.692423,-0.18355 -3.5366,-0.18355 -4.311203,0 -4.133033,-0.37713 0.216315,-0.45787 l 3.170351,-0.0589 v -1.05833 -1.05834 l -2.328333,0.0348 c -1.280583,0.0191 -3.209396,0.0429 -4.28625,0.0529 l -1.957916,0.0181 v 1.05833 1.05833 h 0.846666 c 0.465667,0 0.846667,0.0953 0.846667,0.21167 0,0.11642 -0.374375,0.21167 -0.831945,0.21167 -0.693888,0 -0.847492,0.079 -0.925629,0.47625 l -0.09368,0.47625 -0.157391,-0.47625 c -0.153841,-0.46551 -0.228458,-0.47625 -3.307704,-0.47625 h -3.150314 v 1.16416 1.16417 l 0.79375,0.0356 0.79375,0.0356 -0.79375,0.083 c -0.436562,0.0457 -0.803399,0.19634 -0.815196,0.33484 -0.04122,0.48399 0.06333,1.73478 0.157834,1.88821 0.05242,0.0851 0.807506,0.13274 1.677972,0.10584 1.579739,-0.0488 1.582444,-0.0499 1.463407,-0.59197 z m -1.372767,-1.89111 c 0,-0.11642 0.184879,-0.21167 0.410841,-0.21167 0.225963,0 0.46971,0.0953 0.541659,0.21167 0.07419,0.12005 -0.103636,0.21167 -0.41084,0.21167 -0.297913,0 -0.54166,-0.0953 -0.54166,-0.21167 z m 5.155127,0.0497 c 0.109842,-0.17773 4.359049,-0.13107 4.539968,0.0499 0.06167,0.0617 -0.957118,0.11213 -2.263976,0.11213 -1.306857,0 -2.331053,-0.0729 -2.275992,-0.16198 z m 76.505635,1.71693 1.12159,-0.1347 -0.0633,-0.97471 -0.0633,-0.97471 -0.81534,0.0648 c -0.59733,0.0475 -0.79042,-0.009 -0.72215,-0.21166 0.0513,-0.15205 0.37053,-0.27949 0.7095,-0.28321 0.59233,-0.007 0.61881,-0.0496 0.68012,-1.10607 l 0.0638,-1.0993 -2.18047,0.10001 c -1.19925,0.055 -2.6329,0.1003 -3.18588,0.10065 l -1.00541,6.4e-4 v 0.74084 c 0,0.40746 -0.0953,0.74083 -0.21167,0.74083 -0.12411,0 -0.21167,-0.72663 -0.21167,-1.75656 v -1.75657 l 0.79375,-0.0142 c 0.43657,-0.008 0.9806,-0.0508 1.20898,-0.0955 0.54645,-0.10698 0.67035,0.49623 0.19879,0.96779 -0.34462,0.34462 -0.59193,0.34649 -1.40777,0.0106 -0.26237,-0.10801 -0.37041,-0.0533 -0.37041,0.18766 0,0.18708 0.16668,0.34407 0.37041,0.34886 0.20373,0.005 0.9302,0.0625 1.61437,0.12819 0.68417,0.0657 1.9511,0.0532 2.8154,-0.0278 l 1.57145,-0.14725 -0.0637,-0.98635 -0.0637,-0.98634 -5.23875,-2.9e-4 -5.23875,-2.8e-4 v 2.38153 2.38154 h 4.445 c 2.82222,0 4.445,0.0773 4.445,0.21167 0,0.13419 -1.57995,0.21166 -4.31652,0.21166 -4.76553,0 -4.57348,-0.0585 -4.57348,1.39315 v 0.72352 l 4.28625,-0.002 c 2.35744,-10e-4 4.79097,-0.0625 5.40785,-0.13654 z m -9.16493,-4.72995 c -0.0825,-0.13348 0.42114,-0.21167 1.36334,-0.21167 0.855,0 1.49416,0.0906 1.49416,0.21167 0,0.1192 -0.59556,0.21166 -1.36334,0.21166 -0.74984,0 -1.42221,-0.0952 -1.49416,-0.21166 z m -32.279166,3.175 c 0,-0.11642 -0.100872,-0.21167 -0.224159,-0.21167 -0.123288,0 -0.165291,0.0953 -0.09334,0.21167 0.07195,0.11641 0.172822,0.21166 0.224159,0.21166 0.05134,0 0.09334,-0.0953 0.09334,-0.21166 z m -20.244545,-0.43468 5.595868,0.003 0.07476,-0.78962 c 0.125136,-1.32177 -0.04317,-6.83963 -0.205564,-6.73926 -0.08362,0.0517 -6.246008,0.15903 -13.694194,0.23855 -7.448183,0.0795 -13.59271,0.22589 -13.654502,0.32526 -0.06179,0.0994 -0.07649,0.55665 -0.03267,1.0162 l 0.07968,0.83553 2.572666,-0.0632 c 1.414968,-0.0348 2.823498,-0.073 3.130065,-0.085 0.379125,-0.0148 0.607735,-0.17413 0.714788,-0.49806 l 0.157391,-0.47625 0.09217,0.46472 c 0.11387,0.57412 0.548726,0.61764 5.304499,0.53082 3.249664,-0.0593 3.439584,-0.0856 3.439584,-0.47625 0,-0.2274 0.09525,-0.41346 0.211666,-0.41346 0.116417,0 0.211667,0.1905 0.211667,0.42333 0,0.40766 0.141112,0.42334 3.81,0.42334 2.235206,0 3.81,0.0822 3.81,0.19885 0,0.23082 -4.09913,0.37945 -6.191438,0.22448 l -1.428941,-0.10583 1.91e-4,1.21708 1.88e-4,1.21708 h 2.645833 2.645834 v -0.9525 c 0,-1.04331 0.02613,-1.07195 0.632589,-0.69321 0.327615,0.2046 0.469862,0.2046 0.674461,0 0.580265,-0.58027 1.394877,-0.0809 1.104108,0.67685 -0.186758,0.48668 -0.722158,0.57437 -1.410437,0.23102 -0.805884,-0.40203 -0.789055,-0.40423 -0.789055,0.10284 0,0.48597 -0.01676,0.48359 3.22093,0.45863 1.247635,-0.01 2.324819,0.0738 2.393742,0.18528 0.120525,0.19501 -2.488023,0.3183 -4.497946,0.21259 l -0.894107,-0.047 -0.147888,0.91818 c -0.144498,0.89715 -0.151691,0.90406 -0.313971,0.30132 -0.09135,-0.33927 -0.116891,-0.69646 -0.05677,-0.79375 0.06013,-0.0973 -1.086923,-0.17688 -2.549002,-0.17688 h -2.658326 v 1.17666 c 0,0.69756 0.08271,1.12554 0.203126,1.05112 0.11172,-0.0691 2.721269,-0.12416 5.798995,-0.12246 z m 1.829546,-5.06866 c 0,-0.12451 0.740833,-0.21166 1.799166,-0.21166 1.058333,0 1.799167,0.0871 1.799167,0.21166 0,0.12451 -0.740834,0.21167 -1.799167,0.21167 -1.058333,0 -1.799166,-0.0872 -1.799166,-0.21167 z m 10.96748,4.89884 c 0.179675,-0.1151 0.254694,-0.50844 0.211667,-1.10981 l -0.06665,-0.93153 h -3.175 -3.175 l -0.06342,1.09518 -0.06342,1.09518 3.026753,0.0146 c 1.664716,0.008 3.151996,-0.0656 3.305069,-0.16366 z m -39.85998,-2.5705 c 0.07195,-0.11642 0.03557,-0.21167 -0.08085,-0.21167 -0.116417,0 -0.270533,0.0952 -0.342483,0.21167 -0.07195,0.11641 -0.03557,0.21166 0.08085,0.21166 0.116417,0 0.270533,-0.0952 0.342483,-0.21166 z m 11.633729,0.0128 c 0.06758,-0.10935 0.06103,-0.5856 -0.01456,-1.05833 l -0.137439,-0.85951 h -3.147947 c -2.936881,0 -3.147947,0.0266 -3.147947,0.39687 0,0.21828 -0.05953,0.69453 -0.132291,1.05834 l -0.132292,0.66145 h 3.294799 c 1.826334,0 3.349568,-0.0886 3.41768,-0.19882 z m 26.095854,0.0107 2.38125,-0.0236 v -0.52917 c 0,-0.29104 0.09525,-0.52917 0.211666,-0.52917 0.116417,0 0.211667,0.2401 0.211667,0.53355 v 0.53355 l 4.28625,-0.0573 c 3.872062,-0.0518 4.280594,-0.0915 4.22772,-0.41175 -0.03219,-0.19495 0.03924,-0.41489 0.15875,-0.48874 0.127548,-0.0788 0.21728,0.0955 0.21728,0.42214 v 0.55642 l 4.974166,-0.0549 4.974163,-0.0549 v -1.13069 -1.13069 l -4.921246,0.0596 -4.92125,0.0596 -0.06764,0.47625 c -0.08248,0.58075 -0.461529,0.63698 -0.461529,0.0685 0,-0.36632 -0.188349,-0.41475 -1.852083,-0.47625 -1.018646,-0.0377 -4.519083,-0.0208 -7.77875,0.0374 l -5.926666,0.10583 0.07496,0.9525 c 0.04123,0.52388 0.103641,1.00013 0.138697,1.05834 0.03505,0.0582 0.429948,0.0926 0.87754,0.0765 0.447593,-0.0161 1.885368,-0.04 3.195056,-0.0529 z m 32.312902,-0.15959 0.99241,-0.13602 -0.0633,-0.97523 -0.0633,-0.97522 -3.28084,-0.0581 -3.28083,-0.0581 0.0726,1.05234 0.0726,1.05234 0.87991,0.0801 c 1.61992,0.1474 3.66906,0.1553 4.67073,0.018 z m 8.65206,-0.23439 c 0.0469,-0.0873 0.0426,-0.56356 -0.01,-1.05833 l -0.0951,-0.89959 h -3.70458 c -3.29114,0 -3.69025,0.0374 -3.57611,0.33482 0.0707,0.18414 0.12848,0.66039 0.12848,1.05833 v 0.72352 h 3.58584 c 1.97222,0 3.62426,-0.0714 3.67121,-0.15875 z m -31.334129,-2.3598 1.640416,-0.0215 v -0.92985 c 0,-0.56129 -0.104874,-0.96069 -0.264583,-1.00765 -0.237257,-0.0697 -1.900038,-0.0683 -12.248796,0.0105 l -2.882547,0.022 -0.119382,0.89005 c -0.06566,0.48953 -0.07486,0.96209 -0.02045,1.05013 0.08441,0.13657 2.590322,0.1341 13.895343,-0.0137 z m 11.002629,-0.0147 c 0.67099,-0.006 0.81045,-0.0894 0.92758,-0.55606 0.0758,-0.3021 0.1967,-0.46879 0.26862,-0.37042 0.38591,0.5279 1.56014,0.9197 2.75633,0.9197 h 1.29026 l -0.003,-0.89958 c -0.004,-0.9755 -0.25177,-1.55777 -0.57815,-1.35605 -0.11297,0.0698 -3.21924,0.13885 -6.902837,0.15341 l -6.697442,0.0265 v 1.00259 c 0,0.55143 0.03964,1.04228 0.08809,1.09079 0.04845,0.0485 1.882015,0.0674 4.074584,0.0421 2.192568,-0.0254 4.341865,-0.0492 4.776205,-0.0529 z m -57.728045,8.45989 c -0.08332,-0.13482 0.52697,-0.21167 1.680841,-0.21167 1.066662,0 1.811659,0.087 1.811659,0.21167 0,0.12334 -0.701391,0.21166 -1.680841,0.21166 -0.924462,0 -1.739709,-0.0953 -1.811659,-0.21166 z m 21.166666,-0.21167 c 0.974131,-0.24787 5.609167,-0.24787 5.609167,0 0,0.13268 -1.165111,0.20232 -3.122083,0.18662 -1.899135,-0.0152 -2.873348,-0.0883 -2.487084,-0.18662 z m 26.741386,-0.0258 c -0.323593,-0.20511 -0.127,-0.21565 4.124717,-0.22124 1.609357,-0.002 2.982544,0.0526 3.051528,0.12159 0.06898,0.069 -0.247639,0.13133 -0.703603,0.13856 -0.455966,0.007 -2.035154,0.0418 -3.509308,0.0768 -1.474153,0.035 -2.807653,-0.0171 -2.963334,-0.11574 z m 11.570283,-0.1859 c 0.072,-0.11641 0.36894,-0.21166 0.65998,-0.21166 0.29888,0 0.47224,0.0921 0.39835,0.21166 -0.072,0.11642 -0.36894,0.21167 -0.65998,0.21167 -0.29888,0 -0.47224,-0.0921 -0.39835,-0.21167 z m 1.5875,0 c 0,-0.11641 0.381,-0.21166 0.84666,-0.21166 0.46567,0 0.84667,0.0953 0.84667,0.21166 0,0.11642 -0.381,0.21167 -0.84667,0.21167 -0.46566,0 -0.84666,-0.0953 -0.84666,-0.21167 z M 95.064787,262.8506 c 0,-0.61577 0.240875,-0.82477 0.732924,-0.63596 0.514991,0.19762 0.323678,1.0173 -0.256674,1.09972 -0.385383,0.0547 -0.47625,-0.0337 -0.47625,-0.46376 z m -50.641248,-0.90823 c 0.14552,-0.0587 0.383645,-0.0587 0.529166,0 0.145521,0.0587 0.02646,0.10677 -0.264583,0.10677 -0.291042,0 -0.410104,-0.0481 -0.264583,-0.10677 z m 1.481666,-0.009 c 0.261938,-0.0505 0.690563,-0.0505 0.9525,0 0.261938,0.0505 0.04762,0.0917 -0.47625,0.0917 -0.523875,0 -0.738187,-0.0413 -0.47625,-0.0917 z m 38.470416,-0.27396 c 0.07293,-0.118 1.056367,-0.21166 2.2225,-0.21166 1.166133,0 2.149568,0.0937 2.2225,0.21166 0.08422,0.13627 -0.707521,0.21167 -2.2225,0.21167 -1.514979,0 -2.306716,-0.0754 -2.2225,-0.21167 z m 8.784166,0 c 0,-0.11641 0.1905,-0.21166 0.423334,-0.21166 0.232833,0 0.423333,0.0952 0.423333,0.21166 0,0.11642 -0.1905,0.21167 -0.423333,0.21167 -0.232834,0 -0.423334,-0.0952 -0.423334,-0.21167 z m 1.27,0.008 c 0,-0.11845 1.017412,-0.20352 2.434167,-0.20352 1.416755,0 2.434167,0.0851 2.434167,0.20352 0,0.11846 -1.017412,0.20353 -2.434167,0.20353 -1.416755,0 -2.434167,-0.0851 -2.434167,-0.20352 z m 15.451663,0.004 c 0,-0.10954 0.0867,-0.25273 0.19257,-0.31818 0.27352,-0.16905 0.8868,0.10041 0.74623,0.32787 -0.15578,0.25205 -0.9388,0.24397 -0.9388,-0.01 z m 7.62,-0.22415 c 0,-0.11642 0.18488,-0.21167 0.41084,-0.21167 0.22597,0 0.46971,0.0953 0.54166,0.21167 0.0742,0.12005 -0.10363,0.21166 -0.41084,0.21166 -0.29791,0 -0.54166,-0.0953 -0.54166,-0.21166 z M 10.750901,256.22645 c -0.261772,-0.26178 -0.14361,-0.98697 0.227662,-1.39722 0.35664,-0.39408 0.347935,-0.40576 -0.264583,-0.35516 -1.0722437,0.0886 -1.7975239,-0.001 -1.7975239,-0.22318 0,-0.13633 2.2224999,-0.21167 6.2441669,-0.21167 5.314694,0 6.244166,0.0457 6.244166,0.30704 0,0.26182 -0.701351,0.29388 -4.7625,0.21772 -2.619375,-0.0491 -4.7625,-0.008 -4.7625,0.0916 0,0.0995 -0.1905,0.23075 -0.423333,0.29164 -0.42956,0.11233 -0.599779,0.57367 -0.211667,0.57367 0.116417,0 0.211667,0.1905 0.211667,0.42333 0,0.40793 -0.414183,0.5736 -0.705555,0.28223 z m 11.234782,-1.79733 c -0.138123,-0.0854 -0.205873,-0.20047 -0.150554,-0.25579 0.05532,-0.0553 5.838998,-0.14668 12.852619,-0.20303 11.540204,-0.0927 13.667876,-0.0268 12.487457,0.38654 -0.466414,0.16334 -24.928609,0.23353 -25.189522,0.0723 z"
       id="path3734"
       inkscape:connector-curvature="0" />
  </g>
</svg>
